<svg width="604" height="607" viewBox="0 0 604 607" fill="none" xmlns="http://www.w3.org/2000/svg">
<g id="Web 1920 &#226;&#128;&#147; 13 1 (1) 1">
<g id="01">
<g id="mawahib  background simple  inject 91">
<path id="els9e9chjssin" d="M19.1031 235.875C19.1031 235.875 -5.64212 341.454 63.2326 433.525C132.107 525.596 252.107 561.31 348.629 592.852C445.152 624.395 535.457 587.986 569.342 506.904C603.227 425.822 534.78 382.17 519.686 276.276C504.592 170.382 516.635 139.896 446.225 59.2592C375.816 -21.3777 231.306 -19.4312 133.608 63.3338C35.9108 146.099 19.1031 235.875 19.1031 235.875Z" fill="#92E3A9"/>
<g id="elgqvocc40umt">
<path id="Path 191" d="M19.1031 235.875C19.1031 235.875 -5.64212 341.454 63.2326 433.525C132.107 525.596 252.107 561.31 348.629 592.852C445.152 624.395 535.457 587.986 569.342 506.904C603.227 425.822 534.78 382.17 519.686 276.276C504.592 170.382 516.635 139.896 446.225 59.2592C375.816 -21.3777 231.306 -19.4312 133.608 63.3338C35.9108 146.099 19.1031 235.875 19.1031 235.875Z" fill="#FFECB3"/>
</g>
</g>
<g id="mawahib  Plants  inject 91">
<path id="el07csi0hap5hq" d="M563.65 315.935C563.65 315.935 563.65 309.038 553.982 299.438C544.314 289.838 538.129 284.261 538.129 284.261C538.129 284.261 533.296 300.114 542.256 309.782C548.874 316.577 556.047 322.808 563.702 328.41L563.65 315.935Z" fill="#92E3A9"/>
<path id="el8rjjp03uyod" d="M549.628 359.025C549.628 359.025 549.628 352.128 539.977 342.528C530.327 332.928 524.108 327.351 524.108 327.351C524.108 327.351 519.274 343.105 528.248 352.822C534.864 359.62 542.037 365.851 549.694 371.45L549.628 359.025Z" fill="#92E3A9"/>
<path id="elhbd5n6t9ej7" d="M563.04 327.698C563.04 327.698 563.765 320.835 574.39 312.24C585.014 303.645 591.859 298.828 591.859 298.828C591.859 298.828 594.977 315.127 585.046 323.771C577.773 329.834 570.004 335.275 561.82 340.037L563.04 327.698Z" fill="#92E3A9"/>
<path id="elawoxtezaz2c" d="M546.114 378.574C546.114 378.574 547.549 371.827 559.015 364.403C570.48 356.98 577.722 352.856 577.722 352.856C577.722 352.856 579.108 369.353 568.319 376.958C560.466 382.212 552.189 386.803 543.574 390.683L546.114 378.574Z" fill="#92E3A9"/>
<path id="elzzqh651ptc" d="M549.298 434.053C549.298 434.053 549.298 427.156 558.949 417.556C568.599 407.956 574.818 402.379 574.818 402.379C574.818 402.379 579.652 418.249 570.678 427.917C564.058 434.709 556.885 440.939 549.232 446.542L549.298 434.053Z" fill="#92E3A9"/>
<path id="elutxwprtxwan" d="M549.133 447.597C549.133 447.597 550.106 440.767 541.924 429.83C533.742 418.892 528.38 412.557 528.38 412.557C528.38 412.557 521.336 427.569 528.842 438.408C534.408 446.061 540.605 453.235 547.368 459.854L549.133 447.597Z" fill="#92E3A9"/>
<path id="elb0aj5lal5gu" d="M539.613 487.717C539.613 487.717 539.613 480.82 549.264 471.22C558.914 461.62 565.134 456.043 565.134 456.043C565.134 456.043 569.967 471.913 560.993 481.564C554.378 488.362 547.204 494.592 539.547 500.189L539.613 487.717Z" fill="#92E3A9"/>
<path id="elxi9kq9hj97" d="M546.048 524.11C546.048 524.11 544.316 517.428 551.211 505.65C558.107 493.871 562.76 486.942 562.76 486.942C562.76 486.942 571.453 501.063 565.218 512.694C560.563 520.937 555.221 528.774 549.249 536.12L546.048 524.11Z" fill="#92E3A9"/>
<path id="el1luupdwx2cm" d="M564.525 314.17C564.037 321.361 563.156 328.52 561.885 335.615C558.057 355.329 548.522 368.065 544.695 385.882C540.868 403.698 551.838 426.646 548.902 449.543C545.965 472.441 537.057 485.144 539.614 500.42C542.17 515.696 555.566 557.037 555.566 557.037" stroke="#263238" stroke-width="0.5" stroke-linecap="round" stroke-linejoin="round"/>
<path id="elbz5zdvfrdf8" d="M562.941 332.284L573.35 324.282" stroke="#263238" stroke-width="0.5" stroke-linecap="round" stroke-linejoin="round"/>
<path id="elzpago930j1c" d="M563.436 323.079L559.081 315.325" stroke="#263238" stroke-width="0.5" stroke-linecap="round" stroke-linejoin="round"/>
<path id="el8gtjoj9teme" d="M545.272 385.041C545.272 385.041 553.983 378.442 562.941 371.975" stroke="#263238" stroke-width="0.5" stroke-linecap="round" stroke-linejoin="round"/>
<path id="el662fdv3f7zu" d="M549.628 371.447C549.628 371.447 542.37 357.21 534.137 347.774" stroke="#263238" stroke-width="0.5" stroke-linecap="round" stroke-linejoin="round"/>
<path id="elgyxs42ak1nc" d="M549.628 443.868C554.607 434.718 560.886 426.339 568.27 418.991" stroke="#263238" stroke-width="0.5" stroke-linecap="round" stroke-linejoin="round"/>
<path id="el7spveuqjpkw" d="M547.945 453.635C545.293 447.413 542.131 441.421 538.493 435.72C533.411 428.213 532.685 427.24 532.685 427.24" stroke="#263238" stroke-width="0.5" stroke-linecap="round" stroke-linejoin="round"/>
<path id="el9tc235j22m4" d="M539.614 500.403C541.814 494.919 544.434 489.613 547.45 484.533C550.466 479.819 553.871 475.366 557.629 471.22" stroke="#263238" stroke-width="0.5" stroke-linecap="round" stroke-linejoin="round"/>
<path id="eltkzv26w4ff" d="M549.199 536.119C548.693 530.886 549.593 525.613 551.806 520.843C555.435 513.815 559.559 504.627 561.258 501.047" stroke="#263238" stroke-width="0.5" stroke-linecap="round" stroke-linejoin="round"/>
<path id="eluxbl8fc6zd" d="M500.399 408.103C500.399 408.103 499.657 403.781 504.656 396.671C509.654 389.561 512.904 385.436 512.904 385.436C512.904 385.436 517.655 394.856 513.085 401.933C509.693 406.915 505.885 411.6 501.702 415.939L500.399 408.103Z" fill="#92E3A9"/>
<path id="elzq7r39wd6xi" d="M513.862 433.608C513.862 433.608 513.12 429.269 518.135 422.175C523.15 415.081 526.382 410.924 526.382 410.924C526.382 410.924 531.133 420.36 526.547 427.421C523.15 432.399 519.342 437.084 515.164 441.427L513.862 433.608Z" fill="#92E3A9"/>
<path id="ele66rt2fj4q" d="M502.051 415.411C502.051 415.411 500.862 411.19 493.257 406.946C485.653 402.702 480.901 400.43 480.901 400.43C480.901 400.43 480.719 410.988 487.879 415.277C493.105 418.291 498.573 420.862 504.228 422.964L502.051 415.411Z" fill="#92E3A9"/>
<path id="elt1dlxankksh" d="M518.201 445.485C518.201 445.485 516.55 441.411 508.567 437.996C500.583 434.581 495.584 432.799 495.584 432.799C495.584 432.799 496.508 443.324 504.096 446.888C509.605 449.338 515.312 451.319 521.154 452.811L518.201 445.485Z" fill="#92E3A9"/>
<path id="elexknc4r0hr" d="M522.227 480.607C522.227 480.607 521.484 476.285 514.374 471.27C507.263 466.256 502.826 463.484 502.826 463.484C502.826 463.484 501.523 473.959 508.188 479.041C513.066 482.583 518.231 485.711 523.629 488.394L522.227 480.607Z" fill="#92E3A9"/>
<path id="el58phxvopsej" d="M523.794 489.087C523.794 489.087 522.441 484.913 526.384 477.159C530.327 469.406 532.983 464.853 532.983 464.853C532.983 464.853 539.02 473.513 535.49 481.118C532.834 486.533 529.727 491.715 526.202 496.609L523.794 489.087Z" fill="#92E3A9"/>
<path id="el6ufnbj6r9jl" d="M535.919 523.981C535.919 523.981 536.414 519.625 543.229 514.214C550.043 508.804 554.362 505.765 554.362 505.765C554.362 505.765 556.259 516.158 549.892 521.602C545.238 525.422 540.272 528.843 535.045 531.83L535.919 523.981Z" fill="#92E3A9"/>
<path id="el348ogvqu6a9" d="M534.12 513.221C534.12 513.221 533.378 508.899 526.268 503.884C519.157 498.868 514.72 496.08 514.72 496.08C514.72 496.08 513.417 506.556 520.098 511.654C524.969 515.198 530.128 518.327 535.523 521.007L534.12 513.221Z" fill="#92E3A9"/>
<path id="elk6whv6te82" d="M534.121 536.727C534.121 536.727 534.484 532.356 528.874 525.707C523.265 519.059 519.636 515.232 519.636 515.232C519.636 515.232 515.726 525.031 520.89 531.729C524.708 536.392 528.908 540.73 533.446 544.698L534.121 536.727Z" fill="#92E3A9"/>
<path id="eli43fltn14b" d="M499.658 407.097C500.743 411.567 502.076 415.973 503.65 420.294C508.189 432.238 515.545 439.184 519.883 449.989C524.222 460.794 519.883 476.384 524.139 490.374C528.396 504.363 535.44 511.407 535.506 521.272C535.572 531.138 531.679 558.506 531.679 558.506" stroke="#263238" stroke-width="0.5" stroke-linecap="round" stroke-linejoin="round"/>
<path id="elxwl0yli2zbm" d="M502.612 418.265L495.221 414.389" stroke="#263238" stroke-width="0.5" stroke-linecap="round" stroke-linejoin="round"/>
<path id="elbupfyikd6ps" d="M501.308 412.557L503.205 407.229" stroke="#263238" stroke-width="0.5" stroke-linecap="round" stroke-linejoin="round"/>
<path id="elsfgdaso1clj" d="M519.422 449.444C519.422 449.444 513.253 446.294 506.918 443.159" stroke="#263238" stroke-width="0.5" stroke-linecap="round" stroke-linejoin="round"/>
<path id="elp539ty96t1h" d="M515.215 441.394C517.027 435.666 519.42 430.138 522.358 424.897" stroke="#263238" stroke-width="0.5" stroke-linecap="round" stroke-linejoin="round"/>
<path id="elo62dyrj7za" d="M523.084 486.811C518.967 481.601 514.116 477.017 508.682 473.2" stroke="#263238" stroke-width="0.5" stroke-linecap="round" stroke-linejoin="round"/>
<path id="elt9k164wmz7" d="M525.196 492.699C526.176 488.509 527.506 484.409 529.171 480.442C531.547 475.179 531.893 474.488 531.893 474.488" stroke="#263238" stroke-width="0.5" stroke-linecap="round" stroke-linejoin="round"/>
<path id="elfsq84vsu777" d="M535.16 528.646C537.569 525.673 540.229 522.913 543.112 520.398C544.952 519.045 546.679 517.544 548.275 515.91" stroke="#263238" stroke-width="0.5" stroke-linecap="round" stroke-linejoin="round"/>
<path id="elyqew8e0rjn" d="M535.507 521.173C533.544 517.973 531.338 514.929 528.908 512.068C526.504 509.444 523.889 507.021 521.088 504.825" stroke="#263238" stroke-width="0.5" stroke-linecap="round" stroke-linejoin="round"/>
<path id="elptg5n1lwv3" d="M533.362 544.615C533.115 541.274 531.975 538.061 530.061 535.311C527.026 531.303 523.462 525.974 521.994 523.895" stroke="#263238" stroke-width="0.5" stroke-linecap="round" stroke-linejoin="round"/>
<path id="eleq37og8m1uq" d="M511.949 553.639H575.132V600.986C575.132 602.299 574.61 603.558 573.682 604.487C572.753 605.416 571.493 605.937 570.18 605.937H516.964C515.65 605.937 514.391 605.416 513.462 604.487C512.534 603.558 512.012 602.299 512.012 600.986V553.639H511.949Z" fill="#263238"/>
<path id="elh8wuj8yizf" d="M574.571 561.87H511.883C510.569 561.87 509.31 561.349 508.381 560.42C507.453 559.491 506.931 558.232 506.931 556.919C506.931 555.605 507.453 554.346 508.381 553.417C509.31 552.489 510.569 551.967 511.883 551.967H574.571C575.885 551.967 577.144 552.489 578.073 553.417C579.001 554.346 579.523 555.605 579.523 556.919V556.919C579.523 558.232 579.001 559.491 578.073 560.42C577.144 561.349 575.885 561.87 574.571 561.87Z" fill="#263238"/>
</g>
<g id="mawahib  Clock  inject 91">
<path id="el9fb28l0j9vr" d="M454.392 121.503C485.369 121.503 510.481 96.3905 510.481 65.413C510.481 34.4354 485.369 9.32318 454.392 9.32318C423.414 9.32318 398.302 34.4354 398.302 65.413C398.302 96.3905 423.414 121.503 454.392 121.503Z" fill="#263238"/>
<g id="elccv2jzpdlac">
<path id="Ellipse 35" d="M454.391 114.062C481.259 114.062 503.04 92.2806 503.04 65.4124C503.04 38.5442 481.259 16.7632 454.391 16.7632C427.523 16.7632 405.742 38.5442 405.742 65.4124C405.742 92.2806 427.523 114.062 454.391 114.062Z" fill="white"/>
</g>
<path id="elxgyab4m1t1l" d="M422.833 74.3538L454.391 65.4141V21.2669" stroke="#263238" stroke-width="2" stroke-miterlimit="10"/>
</g>
<g id="mawahib  Graphics  inject 91">
<path id="el9tqjgq709ln" d="M182.242 316.166H120.658L40.0378 99.7923H101.621L182.242 316.166Z" fill="#263238"/>
<g id="el22r5zzxf7jh">
<path id="Path 192" opacity="0.2" d="M182.242 316.166H120.658L40.0378 99.7922H101.621L182.242 316.166Z" fill="white"/>
</g>
<path id="elybt5yul4k0g" d="M85.1736 152.648H69.3363C68.2559 152.584 67.2163 152.213 66.3393 151.579C65.4622 150.945 64.7841 150.074 64.3845 149.068L58.2644 132.654C58.0521 132.278 57.9454 131.851 57.9556 131.42C57.9659 130.988 58.0928 130.568 58.3228 130.202C58.5528 129.837 58.8773 129.541 59.2621 129.345C59.6468 129.149 60.0773 129.061 60.508 129.09H76.3448C77.4222 129.157 78.4587 129.527 79.3349 130.157C80.2111 130.788 80.8911 131.653 81.2965 132.654L87.4167 149.068C88.1429 151.048 87.1532 152.648 85.1736 152.648Z" fill="#263238"/>
<path id="elnc38uvystwn" d="M105.696 110.73H44.1124L40.0378 99.7923H101.621L105.696 110.73Z" fill="#263238"/>
<path id="eldz2bdsezrqq" d="M65.1626 112.528L66.9275 117.279" stroke="#263238" stroke-linecap="round" stroke-linejoin="round"/>
<path id="elc9vcepydubc" d="M67.5383 112.528L69.3033 117.279" stroke="#263238" stroke-linecap="round" stroke-linejoin="round"/>
<path id="elx3bmkcaaamc" d="M69.8975 112.528L71.6789 117.279" stroke="#263238" stroke-linecap="round" stroke-linejoin="round"/>
<path id="elmnmvnrr790q" d="M72.2726 112.528L74.0375 117.279" stroke="#263238" stroke-linecap="round" stroke-linejoin="round"/>
<path id="elwupn4r8e9en" d="M74.6482 112.528L76.4131 117.279" stroke="#263238" stroke-linecap="round" stroke-linejoin="round"/>
<path id="elte3n6crtis" d="M77.0238 112.528L78.7887 117.279" stroke="#263238" stroke-linecap="round" stroke-linejoin="round"/>
<path id="elegvp256ut6l" d="M79.3995 112.528L81.1645 117.279" stroke="#263238" stroke-linecap="round" stroke-linejoin="round"/>
<path id="ele15cr7rux8" d="M81.7753 112.528L83.5402 117.279" stroke="#263238" stroke-linecap="round" stroke-linejoin="round"/>
<path id="elqwrrfc32tqa" d="M84.1344 112.528L85.9159 117.279" stroke="#263238" stroke-linecap="round" stroke-linejoin="round"/>
<path id="elmtkm7qyvmfp" d="M86.5094 112.528L88.2743 117.279" stroke="#263238" stroke-linecap="round" stroke-linejoin="round"/>
<path id="ely88crwa3mmi" d="M80.0427 142.354L65.1951 132.904C65.0567 132.794 64.89 132.727 64.7147 132.709C64.5393 132.692 64.3625 132.725 64.2053 132.805C64.0787 132.9 63.993 133.04 63.9655 133.196C63.9379 133.352 63.9705 133.513 64.0568 133.646L70.8866 148.378C70.9761 148.564 71.1052 148.728 71.2647 148.859C71.4243 148.99 71.6105 149.085 71.8104 149.137H72.0415C72.164 149.146 72.2862 149.113 72.388 149.045C72.4898 148.976 72.5653 148.874 72.6021 148.757L74.2526 143.907H80.1918C80.2687 143.914 80.3463 143.904 80.4193 143.879C80.4923 143.854 80.5591 143.813 80.6152 143.76C80.6714 143.707 80.7156 143.643 80.7449 143.571C80.7743 143.5 80.7881 143.423 80.7854 143.346C80.7536 143.132 80.6691 142.929 80.5394 142.756C80.4097 142.583 80.239 142.445 80.0427 142.354Z" fill="white"/>
<path id="eltsn5q9sx228" d="M79.7455 143.014L64.8313 133.561L71.6612 148.294L73.3625 143.08L79.7455 143.014Z" fill="#263238"/>
<path id="el85518d6bq7f" d="M107.609 143.014L92.6951 133.561L99.5415 148.294L101.224 143.081L107.609 143.014Z" fill="white"/>
<path id="eljdap4xjh33" d="M115.247 151.395L113.909 148.359L112.144 150.917L115.247 151.395Z" fill="white"/>
<path id="el5x559zt6nng" d="M151.277 248.1L149.94 245.064L148.175 247.621L151.277 248.1Z" fill="white"/>
<path id="elxi1nrt5mzep" d="M162.346 277.778L160.993 274.742L159.245 277.283L162.346 277.778Z" fill="white"/>
<path id="el1plqejswlj6" d="M173.679 308.198L172.329 305.163L170.58 307.72L173.679 308.198Z" fill="white"/>
<path id="el1lbbk6bekra" d="M110.182 213.835L108.829 210.8L107.08 213.341L110.182 213.835Z" fill="white"/>
<path id="elul3d9u2hzv7" d="M122.951 248.1L121.599 245.064L119.85 247.621L122.951 248.1Z" fill="white"/>
<path id="elmi25z6e3pdc" d="M134.004 277.778L132.668 274.742L130.903 277.283L134.004 277.778Z" fill="white"/>
<path id="el0jj2fxz9zt1b" d="M145.354 308.198L144.001 305.163L142.253 307.72L145.354 308.198Z" fill="white"/>
<path id="eljj44e7gmeah" d="M80.0427 183.96L82.633 185.626L89.7594 170.762L87.1691 169.08L80.0427 183.96Z" fill="white"/>
<path id="ellbbf8ek1k3" d="M83.243 169.393C79.4655 166.457 79.2014 165.863 80.1252 162.53C78.1798 165.203 77.601 165.252 73.5264 163.075C77.3044 166.027 77.5679 166.621 76.6442 169.954C78.5247 167.282 79.1024 167.232 83.243 169.393Z" fill="white"/>
<path id="eltb0pb8n6o1" d="M95.6825 170.993C93.3564 169.179 93.1913 168.816 93.7525 166.753C92.5482 168.404 92.2015 168.404 89.6449 167.1C91.971 168.915 92.1361 169.278 91.5584 171.34C92.7621 169.69 93.1253 169.657 95.6825 170.993Z" fill="white"/>
<path id="el80p8p9lo5ir" d="M94.9728 177.987C93.3222 176.684 93.1913 176.436 93.6034 174.968C92.7457 176.139 92.4833 176.156 90.6671 175.199C92.3177 176.503 92.4321 176.767 92.0365 178.235C92.8942 177.047 93.1418 177.031 94.9728 177.987Z" fill="white"/>
<path id="elyb2aqya5t1" d="M132.354 243.924L133.955 245.063L141.081 230.183L139.481 229.044L132.354 243.924Z" fill="white"/>
<path id="elaf78jjdnlxi" d="M126.383 180.116L113.237 171.785L119.256 184.783L120.758 180.18L126.383 180.116Z" fill="white"/>
<path id="eli0v0wkoo93r" d="M116.485 180.891C111.667 180.891 106.686 178.037 105.382 174.54C104.079 171.042 106.95 168.238 111.8 168.238C116.65 168.238 121.599 171.092 122.902 174.573C124.206 178.054 121.319 180.891 116.485 180.891ZM112.047 168.964C107.642 168.964 105.002 171.471 106.141 174.54C107.279 177.608 111.8 180.116 116.204 180.116C120.608 180.116 123.264 177.624 122.11 174.54C120.956 171.455 116.452 168.964 112.047 168.964Z" fill="white"/>
<path id="el3fmsoklw2mh" d="M110.694 179.621C110.049 179.574 109.429 179.347 108.907 178.964C108.385 178.582 107.981 178.061 107.741 177.46C107.613 177.233 107.549 176.975 107.555 176.714C107.561 176.453 107.638 176.199 107.776 175.978C107.915 175.757 108.11 175.577 108.342 175.457C108.574 175.338 108.834 175.283 109.094 175.299C109.74 175.346 110.359 175.573 110.881 175.955C111.403 176.338 111.807 176.859 112.047 177.46C112.175 177.687 112.239 177.945 112.233 178.206C112.227 178.467 112.151 178.721 112.012 178.942C111.874 179.163 111.678 179.343 111.446 179.463C111.214 179.582 110.954 179.637 110.694 179.621V179.621ZM109.374 176.074C109.206 176.06 109.037 176.093 108.886 176.168C108.734 176.243 108.607 176.359 108.517 176.502C108.426 176.645 108.377 176.81 108.374 176.979C108.371 177.147 108.415 177.314 108.5 177.46C108.653 177.851 108.914 178.191 109.253 178.44C109.592 178.688 109.994 178.835 110.413 178.862C111.172 178.862 111.568 178.236 111.288 177.46C111.129 177.074 110.866 176.74 110.528 176.495C110.19 176.251 109.79 176.105 109.374 176.075V176.074Z" fill="white"/>
<path id="elle8nhday4p" d="M110.909 181.881L110.378 181.155C110.765 181.057 111.116 180.849 111.387 180.556C111.659 180.263 111.841 179.898 111.911 179.505C111.932 178.844 111.735 178.195 111.35 177.657L111.977 177.393C112.485 178.104 112.745 178.962 112.719 179.835C112.643 180.313 112.433 180.76 112.112 181.122C111.791 181.485 111.374 181.748 110.909 181.881V181.881Z" fill="white"/>
<path id="elzm1yww9h0yk" d="M102.66 203.327L93.4713 196.646L91.526 199.747L100.715 206.428L102.66 203.327Z" fill="white"/>
<path id="el1qne9ccswms" d="M87.9448 211.988L89.4462 213.077L92.7474 207.732C92.5699 207.579 92.4457 207.373 92.3927 207.145C92.3397 206.917 92.3607 206.677 92.4527 206.462C92.7003 206.049 93.3764 206.049 93.9376 206.462C94.1902 206.604 94.3847 206.831 94.4872 207.103C94.5897 207.374 94.5936 207.673 94.4982 207.947C94.3513 208.114 94.1497 208.225 93.9293 208.258C93.7088 208.291 93.4837 208.245 93.2939 208.128L89.9927 213.473L91.3951 214.496L99.6433 212.17L100.155 207.218L91.0957 200.622L87.0541 202.882L87.9448 211.988Z" fill="white"/>
<path id="elypa1415ghf" d="M79.2675 190.987H132.272" stroke="#263238" stroke-linecap="round" stroke-linejoin="round"/>
<path id="el2ypwkyo6x4w" d="M125.36 196.646L123.414 199.747L132.603 206.428L134.549 203.327L125.36 196.646Z" fill="white"/>
<path id="eleur4rtjq3u5" d="M118.86 202.882L119.834 211.972L121.335 213.061L124.636 207.716C124.459 207.563 124.335 207.357 124.282 207.129C124.229 206.9 124.25 206.661 124.341 206.445C124.589 206.033 125.265 206.033 125.826 206.445C126.079 206.588 126.274 206.815 126.376 207.086C126.478 207.358 126.482 207.656 126.387 207.93C126.24 208.098 126.039 208.208 125.818 208.242C125.598 208.275 125.372 208.229 125.183 208.112L121.882 213.457L123.284 214.48L131.532 212.153L132.044 207.202L122.984 200.605L118.86 202.882Z" fill="white"/>
<path id="el15hrjk0x348h" d="M116.584 205.571C116.683 204.927 116.765 204.234 116.831 203.459C116.906 202.716 116.829 201.967 116.604 201.255C116.38 200.543 116.014 199.884 115.528 199.318C114.453 198.118 113.056 197.254 111.503 196.827C111.255 196.827 111.057 196.827 111.09 197.122C111.114 197.248 111.173 197.365 111.261 197.459C111.348 197.553 111.461 197.62 111.585 197.652C112.848 198.02 113.988 198.721 114.886 199.681C115.279 200.152 115.573 200.697 115.752 201.284C115.931 201.87 115.99 202.487 115.926 203.096C115.892 203.794 115.809 204.489 115.678 205.175C115.233 208.476 114.971 210.454 120.446 213.737C120.532 213.799 120.635 213.833 120.741 213.836C120.799 213.839 120.856 213.825 120.906 213.796C120.956 213.766 120.996 213.723 121.021 213.671C121.041 213.549 121.021 213.424 120.965 213.314C120.909 213.204 120.818 213.115 120.708 213.061C115.973 210.206 116.154 208.853 116.584 205.571Z" fill="white"/>
<path id="elchqx1xoix7o" d="M93.1248 227.627L93.4549 228.485C93.9245 229.81 94.4758 231.104 95.1055 232.361L96.6381 231.982C96.2093 231.124 95.8292 230.243 95.4998 229.342H102.097L107.574 244.057H105.116L105.759 245.707H112.36L111.717 244.057H109.275L103.765 229.276H110.149L111.288 232.378H113.02L111.551 228.419L111.221 227.561L93.1248 227.627Z" fill="white"/>
<g id="eli4gao5rzftn">
<path id="Path 193" opacity="0.44" d="M127.573 268.408C128.992 272.202 125.922 275.271 120.644 275.271C115.366 275.271 110.02 272.202 108.618 268.408C107.217 264.613 110.269 261.561 115.547 261.561C120.826 261.561 126.168 264.63 127.573 268.408Z" fill="white"/>
</g>
<path id="elkw28yyfwx8" d="M127.573 268.408C128.992 272.202 125.922 275.271 120.644 275.271C115.366 275.271 110.02 272.202 108.618 268.408C107.217 264.613 110.269 261.561 115.547 261.561C120.826 261.561 126.168 264.63 127.573 268.408Z" stroke="white" stroke-miterlimit="10"/>
<path id="ele8766n9yaz" d="M147.086 268.605L153.306 257.305C153.397 257.178 153.512 257.072 153.646 256.992C153.779 256.911 153.927 256.859 154.082 256.837C154.236 256.816 154.393 256.825 154.543 256.866C154.693 256.907 154.834 256.977 154.956 257.074V257.074C155.318 257.225 155.623 257.487 155.827 257.821C156.031 258.156 156.125 258.547 156.094 258.938L152.793 271.426L147.086 268.605Z" fill="white"/>
<path id="elw3rw8uy0nb" d="M146.064 269.562C148.505 269.232 153.289 271.327 153.421 274.514C153.4 274.862 153.287 275.199 153.093 275.489C152.898 275.779 152.63 276.012 152.316 276.164C150.135 277.148 147.738 277.557 145.354 277.352C145.662 277.113 145.891 276.787 146.012 276.417C146.132 276.046 146.139 275.648 146.03 275.274C145.701 274.362 145.321 273.47 144.892 272.601C144.446 271.33 144.677 269.632 146.063 269.532" fill="white"/>
<path id="elusljjhkx72" d="M133.113 294.357C132.6 293.177 131.834 292.123 130.87 291.272L128.989 294.258C130.101 295.217 130.986 296.411 131.579 297.755C132.121 298.949 132.749 300.101 133.46 301.203L135.291 298.267C134.454 297.029 133.725 295.721 133.113 294.357V294.357Z" fill="white"/>
<path id="el7uxks0crjtf" d="M130.952 297.803C130.425 296.626 129.655 295.575 128.692 294.718L126.811 297.72C127.926 298.681 128.816 299.875 129.418 301.218C129.953 302.412 130.576 303.565 131.282 304.666L133.13 301.729C132.281 300.493 131.551 299.178 130.952 297.803V297.803Z" fill="white"/>
<path id="elzm5r6k7k38" d="M133.757 294.308C134.291 295.502 134.914 296.654 135.621 297.756L138.327 293.433L132.273 289.012L131.152 290.794C132.263 291.765 133.152 292.963 133.759 294.308H133.757Z" fill="white"/>
<path id="elfde98uouzl" d="M128.774 301.267C128.261 300.087 127.495 299.034 126.531 298.182L124.88 300.69L125.161 306.382C125.173 306.483 125.205 306.58 125.256 306.668C125.307 306.756 125.376 306.833 125.458 306.893C125.54 306.954 125.634 306.996 125.733 307.019C125.832 307.042 125.935 307.044 126.035 307.025L130.852 305.128C130.05 303.903 129.355 302.611 128.774 301.267V301.267ZM126.646 305.158L126.498 302.123L129.252 304.135L126.646 305.158Z" fill="white"/>
<path id="elu7mzor3r1kn" d="M152.547 297.046L150.484 300.348L161.141 308.118L163.204 304.817L163.847 305.295L168.799 297.525L156.836 288.814L151.969 296.584L152.547 297.046ZM160.433 306.236L152.365 300.346L153.834 297.988L161.917 303.878L160.433 306.236Z" fill="white"/>
<path id="elhtxha4r3fpo" d="M51.932 102.696L52.3281 103.735L50.8438 105.549L53.681 107.364L54.0606 108.42L49.6058 105.549L51.932 102.696Z" fill="white"/>
<path id="ele68cs3uhcxd" d="M48.2041 102.696L48.6002 103.735L47.1153 105.549L49.9525 107.364L50.3487 108.42L45.8779 105.549L48.2041 102.696Z" fill="white"/>
<path id="elutc13gml9x9" d="M301.514 229.557H174.141L135.209 120.942H262.581L301.514 229.557Z" fill="#263238"/>
<path id="elcdaz3gjq8l" d="M292.473 223.634H178.925L144.249 126.88H257.797L292.473 223.634Z" fill="#FFC100"/>
<path id="elcpf16ri07o4" d="M270.88 163.404L252.106 149.58L237.276 188.084L198.821 177.229L178.926 223.634H292.474L270.88 163.404Z" fill="white"/>
<path id="elg9cjpw2h94f" d="M192.634 147.6C189.995 140.243 181.895 134.271 174.488 134.271C167.081 134.271 163.303 140.243 165.94 147.6C168.578 154.958 176.68 160.93 184.087 160.93C191.494 160.93 195.29 155.04 192.634 147.6Z" fill="white"/>
<path id="elgbi4n6jqws8" d="M314.712 210.866H187.339L148.406 102.25H275.779L314.712 210.866Z" fill="#263238"/>
<path id="el4oc8apb1yd6" d="M305.671 204.943H192.123L157.446 108.172H270.995L305.671 204.943Z" fill="#FFC100"/>
<path id="elg5lfkcsnyi" d="M284.077 144.714L265.303 130.889L250.473 169.393L212.018 158.538L192.123 204.944H305.671L284.077 144.714Z" fill="white"/>
<path id="elc9sol9iyzwu" d="M205.832 128.91C203.192 121.552 195.093 115.58 187.686 115.58C180.279 115.58 176.5 121.552 179.138 128.91C181.775 136.267 189.879 142.237 197.286 142.237C204.693 142.237 208.488 136.267 205.832 128.91Z" fill="white"/>
<path id="elb8j2snjmc7r" d="M315.289 85.2093L318.34 92.6328H317.466C317 91.6339 316.419 90.6928 315.734 89.8286C314.997 88.9869 314.092 88.3073 313.079 87.8326C312.004 87.3805 310.846 87.1613 309.68 87.1894H305.209L314.068 111.391C314.436 112.74 315.108 113.987 316.031 115.037C316.914 115.714 318.004 116.064 319.116 116.026H320.222L320.535 116.884H307.106L306.793 116.026H307.913C309.249 116.026 310.041 115.614 310.305 114.805C310.349 113.625 310.099 112.452 309.579 111.391L300.722 87.1889H296.926C295.903 87.1334 294.878 87.2449 293.891 87.519C293.541 87.6688 293.229 87.8948 292.978 88.1803C292.727 88.4658 292.543 88.8038 292.439 89.1696C292.176 90.299 292.251 91.4806 292.653 92.568H291.763L289.422 85.1433L315.289 85.2093Z" fill="black"/>
<path id="el6e2r5g9yrrg" d="M334.574 100.139H344.258" stroke="#263238" stroke-width="0.5" stroke-miterlimit="10"/>
<path id="el508ux6e4wu" d="M343.944 125.808H295.179L277.115 76.4164H325.879L343.944 125.808Z" stroke="#263238" stroke-width="0.5" stroke-miterlimit="10"/>
<path id="el1zgpgmjk2qg" d="M288.234 101.953H284.572L283.235 98.3073H286.898L288.234 101.953Z" fill="white" stroke="#263238" stroke-width="0.5" stroke-miterlimit="10"/>
<path id="elmogora9e6oa" d="M337.065 101.953H333.403L332.066 98.3073H335.729L337.065 101.953Z" fill="white" stroke="#263238" stroke-width="0.5" stroke-miterlimit="10"/>
<path id="eln2rpyvr5ink" d="M279.656 78.5115H276.012L274.674 74.8655H278.32L279.656 78.5115Z" fill="white" stroke="#263238" stroke-width="0.5" stroke-miterlimit="10"/>
<path id="elvo5u6owougg" d="M328.486 78.5115H324.843L323.504 74.8655H327.15L328.486 78.5115Z" fill="white" stroke="#263238" stroke-width="0.5" stroke-miterlimit="10"/>
<path id="el7xxan4lixes" d="M304.087 78.5115H300.441L299.105 74.8655H302.751L304.087 78.5115Z" fill="white" stroke="#263238" stroke-width="0.5" stroke-miterlimit="10"/>
<path id="el9nrj270vmjr" d="M297.521 127.342H293.859L292.523 123.696H296.185L297.521 127.342Z" fill="white" stroke="#263238" stroke-width="0.5" stroke-miterlimit="10"/>
<path id="el8ue5gewcmpt" d="M346.353 127.342H342.69L341.354 123.696H345.017L346.353 127.342Z" fill="white" stroke="#263238" stroke-width="0.5" stroke-miterlimit="10"/>
<path id="el61tu9q8bzin" d="M319.842 126.682L323.389 136.382" stroke="#263238" stroke-width="0.5" stroke-miterlimit="10"/>
<path id="el5m4n3hby9bo" d="M321.954 127.342H318.291L316.955 123.696H320.618L321.954 127.342Z" fill="white" stroke="#263238" stroke-width="0.5" stroke-miterlimit="10"/>
<path id="elmcgl7tne4m" d="M325.929 138.214H322.267L320.93 134.551H324.593L325.929 138.214Z" fill="#263238"/>
<path id="elu583zp573lh" d="M292.26 116.553H333.221" stroke="#263238" stroke-width="0.5" stroke-miterlimit="10"/>
<path id="elly9gbcqv3um" d="M346.188 100.139C345.977 99.6023 345.619 99.1363 345.155 98.7947C344.691 98.4532 344.139 98.2501 343.564 98.2089C343.331 98.1947 343.099 98.2433 342.891 98.3496C342.684 98.4558 342.508 98.6159 342.384 98.8131C342.259 99.0103 342.189 99.2373 342.182 99.4705C342.175 99.7037 342.231 99.9346 342.343 100.139C342.555 100.674 342.913 101.137 343.378 101.476C343.842 101.815 344.393 102.015 344.967 102.052C345.199 102.07 345.432 102.025 345.64 101.921C345.849 101.817 346.025 101.658 346.151 101.462C346.276 101.265 346.346 101.038 346.352 100.805C346.359 100.572 346.302 100.342 346.188 100.139V100.139Z" fill="#263238"/>
</g>
<g id="mawahib  Table  inject 91">
<g id="el2kb9eld9ezo">
<path id="Path 194" opacity="0.2" d="M120.098 362.06L164.292 399.937L122.176 606H125.032L171.883 403.715L214.808 439.711L154.197 605.751L157.991 605.125L221.752 443.505L399.16 605.126H507.115L380.848 357.639L120.098 362.06Z" fill="black"/>
</g>
<path id="el0dt4alwkjoxb" d="M125.03 606H122.176L117.904 358.53H129.303L125.03 606Z" fill="#263238" stroke="#263238" stroke-linecap="round" stroke-linejoin="round"/>
<path id="eluahok395tzl" d="M370.604 606H367.75L363.478 358.53H374.878L370.604 606Z" fill="#263238" stroke="#263238" stroke-linecap="round" stroke-linejoin="round"/>
<path id="elethfr8pfubj" d="M387.991 354.703H113.548V361.12H387.991V354.703Z" fill="white" stroke="#263238" stroke-linecap="round" stroke-linejoin="round"/>
</g>
<g id="mawahib  paper bin  inject 91">
<path id="elp1bfok2675" d="M51.5884 487.569L46.6366 498.094C46.6366 498.094 52.7402 504.692 55.512 504.692C58.2838 504.692 59.3885 501.922 62.721 500.802C66.0534 499.682 71.5799 489.172 71.5799 489.172C71.5799 489.172 68.2787 483.63 64.9811 483.068C61.6834 482.506 56.7329 480.857 53.895 480.297C51.0572 479.737 51.5884 487.569 51.5884 487.569Z" fill="white" stroke="#263238" stroke-linecap="round" stroke-linejoin="round"/>
<path id="elhv6prlz2fni" d="M51.5861 487.569L54.8872 493.111V498.062C54.8872 498.062 58.1884 499.713 59.3249 498.062C60.4615 496.412 65.4286 490.853 65.4286 490.853L63.2015 485.902" stroke="#263238" stroke-linecap="round" stroke-linejoin="round"/>
<path id="eljm3a62hyo2p" d="M54.9013 498.094L48.8142 496.989" stroke="#263238" stroke-linecap="round" stroke-linejoin="round"/>
<path id="elvhmqp1ndzbe" d="M147.103 587.26L135.903 590.561C135.903 590.561 134.929 599.536 136.76 601.614C138.591 603.693 141.413 602.703 144.431 604.468C147.45 606.233 159.031 603.429 159.031 603.429C159.031 603.429 161.011 597.275 159.229 594.421C157.448 591.567 155.402 586.699 153.983 584.259C152.564 581.819 147.103 587.26 147.103 587.26Z" fill="white" stroke="#263238" stroke-linecap="round" stroke-linejoin="round"/>
<path id="elmokw7l8tbo" d="M147.103 587.26L145.14 593.43L141.395 596.731C141.395 596.731 142.338 600.327 144.315 600.032C146.291 599.737 153.767 599.85 153.767 599.85L156.044 594.899" stroke="#263238" stroke-linecap="round" stroke-linejoin="round"/>
<path id="el9pg88yeumcq" d="M141.395 596.745L138.195 591.434" stroke="#263238" stroke-linecap="round" stroke-linejoin="round"/>
<path id="el8bb32xh0fb6" d="M33.8352 485.342C33.8352 485.342 24.4156 491.445 26.0816 494.778C27.7475 498.11 28.8522 500.319 30.5193 501.376C32.1864 502.434 37.1181 504.147 38.7675 503.027C40.4169 501.907 44.3087 499.151 44.8546 494.779C45.4005 490.407 47.0817 489.827 45.4152 487.57C43.7487 485.313 33.8352 485.342 33.8352 485.342Z" fill="white" stroke="#263238" stroke-linecap="round" stroke-linejoin="round"/>
<path id="elt56xdf2xtyl" d="M26.0155 494.778L32.6143 499.215L38.1556 498.655L40.3662 492.551C40.3662 491.676 40.0184 490.836 39.3993 490.217C38.7802 489.598 37.9405 489.25 37.065 489.25C35.2679 489.175 33.5059 489.762 32.1132 490.901L33.2333 494.202" stroke="#263238" stroke-linecap="round" stroke-linejoin="round"/>
<path id="elvtjk39h3xm" d="M74.8628 477.588C74.8628 477.588 66.6146 485.342 67.6539 490.885C68.6932 496.428 79.3029 500.865 79.3029 500.865L92.0549 493.674L88.1642 483.775L79.916 479.338L74.8628 477.588Z" fill="white" stroke="#263238" stroke-linecap="round" stroke-linejoin="round"/>
<path id="elpxzfciam99" d="M67.6539 490.885L76.5294 494.217L86.5101 490.885L82.6194 482.026" stroke="#263238" stroke-linecap="round" stroke-linejoin="round"/>
<path id="el6t4yeog605b" d="M74.8634 477.588L74.3022 489.235L80.9671 491.445" stroke="#263238" stroke-linecap="round" stroke-linejoin="round"/>
<path id="elp80d3z7jqg" d="M99.8061 581.799C99.8061 581.799 91.5579 589.57 92.5972 595.113C93.6364 600.656 104.244 605.09 104.244 605.09L116.996 597.881L113.119 587.9L104.788 583.462L99.8061 581.799Z" fill="white" stroke="#263238" stroke-linecap="round" stroke-linejoin="round"/>
<path id="elrdyggb69k2n" d="M92.5972 595.113L101.473 598.428L111.453 595.113L107.576 586.237" stroke="#263238" stroke-linecap="round" stroke-linejoin="round"/>
<path id="elkvksdqpnh2e" d="M99.8067 581.799L99.2455 593.446L105.91 595.673" stroke="#263238" stroke-linecap="round" stroke-linejoin="round"/>
<path id="ellvoxybgtr9" d="M44.3765 469.274C44.3765 469.274 36.1307 477.027 37.1676 482.57C38.2045 488.113 48.8142 492.469 48.8142 492.469L61.5473 485.26L57.6708 475.362L49.4226 470.924L44.3765 469.274Z" fill="white" stroke="#263238" stroke-linecap="round" stroke-linejoin="round"/>
<path id="elnrld6bpa1v" d="M37.1676 482.572L46.043 485.904L56.0055 482.572L52.129 473.713" stroke="#263238" stroke-linecap="round" stroke-linejoin="round"/>
<path id="elkfrder0gjob" d="M44.3771 469.274L43.8165 480.92L50.4648 483.131" stroke="#263238" stroke-linecap="round" stroke-linejoin="round"/>
<path id="el2w816if65dd" d="M90.8823 606.001H25.0918L15.2266 496.939H100.747L90.8823 606.001Z" fill="#263238" stroke="#263238" stroke-linecap="round" stroke-linejoin="round"/>
<path id="ely9ba27spxcc" d="M47.1507 587.903C47.1507 587.903 37.7123 594.007 39.3782 597.323C41.0441 600.639 42.1488 602.864 43.8159 603.922C45.483 604.98 50.4147 606.693 52.0641 605.573C53.7135 604.453 57.6054 601.695 58.1677 597.324C58.7301 592.952 60.3783 592.372 58.7118 590.115C57.0453 587.858 47.1507 587.903 47.1507 587.903Z" fill="white" stroke="#263238" stroke-linecap="round" stroke-linejoin="round"/>
<path id="elg3g2pkh4aj" d="M39.3782 597.323L45.977 601.76L51.5182 601.216L53.7288 595.113C53.7288 594.237 53.381 593.397 52.7619 592.778C52.1428 592.159 51.3032 591.811 50.4277 591.811C48.6297 591.73 46.8655 592.318 45.4759 593.462L46.5812 596.763" stroke="#263238" stroke-linecap="round" stroke-linejoin="round"/>
</g>
<g id="mawahib  Character  inject 91">
<path id="el7echva4e0rg" d="M221.57 279.295C221.688 280.042 221.574 280.806 221.244 281.486C220.914 282.166 220.384 282.729 219.724 283.098C219.065 283.467 218.308 283.625 217.556 283.55C216.804 283.476 216.092 283.173 215.518 282.681C214.943 282.19 214.533 281.535 214.343 280.803C214.153 280.072 214.191 279.3 214.454 278.591C214.716 277.882 215.189 277.27 215.81 276.839C216.43 276.407 217.168 276.176 217.924 276.177C218.819 276.113 219.704 276.405 220.386 276.988C221.069 277.572 221.494 278.4 221.57 279.295V279.295Z" fill="#808080" stroke="#263238" stroke-linecap="round" stroke-linejoin="round"/>
<path id="el0uk1il5f0e6k" d="M225.084 288.797C225.202 289.544 225.088 290.308 224.758 290.988C224.428 291.668 223.898 292.231 223.238 292.6C222.579 292.969 221.822 293.127 221.07 293.052C220.317 292.978 219.606 292.675 219.032 292.183C218.457 291.692 218.047 291.037 217.857 290.305C217.667 289.574 217.705 288.802 217.968 288.093C218.23 287.384 218.703 286.772 219.323 286.341C219.944 285.909 220.682 285.678 221.438 285.679C222.333 285.615 223.218 285.907 223.9 286.49C224.583 287.074 225.008 287.902 225.084 288.797Z" fill="#808080" stroke="#263238" stroke-linecap="round" stroke-linejoin="round"/>
<path id="ellrb2ppwero" d="M228.582 298.3C228.7 299.046 228.587 299.811 228.257 300.491C227.927 301.171 227.396 301.733 226.737 302.102C226.077 302.472 225.32 302.63 224.568 302.555C223.816 302.481 223.105 302.177 222.53 301.686C221.956 301.195 221.546 300.539 221.356 299.808C221.165 299.077 221.204 298.304 221.466 297.595C221.728 296.887 222.202 296.275 222.822 295.844C223.443 295.412 224.181 295.181 224.936 295.182C225.832 295.118 226.717 295.409 227.399 295.993C228.081 296.576 228.507 297.405 228.582 298.3V298.3Z" fill="#808080" stroke="#263238" stroke-linecap="round" stroke-linejoin="round"/>
<path id="el5ph032p62x9" d="M232.095 307.802C232.213 308.548 232.1 309.312 231.771 309.991C231.441 310.671 230.912 311.233 230.253 311.603C229.595 311.972 228.839 312.131 228.087 312.058C227.336 311.985 226.625 311.683 226.05 311.194C225.475 310.704 225.063 310.05 224.871 309.32C224.679 308.59 224.715 307.818 224.975 307.109C225.234 306.4 225.705 305.787 226.323 305.354C226.941 304.92 227.678 304.687 228.433 304.684C229.33 304.62 230.217 304.911 230.902 305.494C231.587 306.077 232.015 306.906 232.095 307.802V307.802Z" fill="#808080" stroke="#263238" stroke-linecap="round" stroke-linejoin="round"/>
<path id="elwrlyxvntfkq" d="M182.67 354.092H157.694L153.932 312.668H186.431L182.67 354.092Z" fill="#263238" stroke="#263238" stroke-linecap="round" stroke-linejoin="round"/>
<path id="elljcrfdeha8f" d="M185.194 326.295L156.49 340.908L157.694 354.09H171.056L184.025 339.193L185.194 326.295Z" fill="black" stroke="#263238" stroke-linecap="round" stroke-linejoin="round"/>
<path id="el6oll5z9yd58" d="M189.318 307.719H151.046V316.727H189.318V307.719Z" fill="black" stroke="#263238" stroke-linecap="round" stroke-linejoin="round"/>
<path id="el5z5zu4ttfuc" d="M256.609 354.653H211.655C210.881 354.695 210.106 354.578 209.378 354.311C208.65 354.043 207.985 353.63 207.422 353.097C206.859 352.563 206.411 351.921 206.104 351.208C205.798 350.496 205.64 349.729 205.64 348.953C205.64 348.178 205.798 347.411 206.104 346.698C206.411 345.986 206.859 345.343 207.422 344.81C207.985 344.277 208.65 343.863 209.378 343.596C210.106 343.328 210.881 343.212 211.655 343.253H256.609C257.384 343.211 258.159 343.327 258.888 343.594C259.616 343.861 260.282 344.274 260.846 344.808C261.409 345.341 261.858 345.984 262.165 346.697C262.471 347.409 262.63 348.177 262.63 348.953C262.63 349.729 262.471 350.497 262.165 351.209C261.858 351.922 261.409 352.565 260.846 353.098C260.282 353.632 259.616 354.044 258.888 354.312C258.159 354.579 257.384 354.695 256.609 354.652V354.653Z" fill="#263238" stroke="#263238" stroke-linecap="round" stroke-linejoin="round"/>
<path id="elgbkxz1enonq" d="M376.179 354.703H237.787L204.775 264.86H343.169L376.179 354.703Z" fill="#263238" stroke="#263238" stroke-linecap="round" stroke-linejoin="round"/>
<path id="elcz5qgn2fq8e" d="M367.402 345.366H249.219L221.041 268.655H339.21L367.402 345.366Z" fill="#808080" stroke="#263238" stroke-linecap="round" stroke-linejoin="round"/>
<path id="elv6leiqh2o0n" d="M390.597 386.789C387.388 391.509 383.755 395.927 379.742 399.986C367.076 411.43 356.184 424.696 347.425 439.348C335.019 460.382 326.374 481.877 318.16 500.483C309.946 519.088 295.064 553.438 287.624 563.897C283.745 569.458 279.582 574.816 275.152 579.948C275.152 579.948 262.861 580.229 248.312 578.942C233.762 577.655 227.738 575.033 227.561 578.824C227.385 582.616 237.46 593.028 244.619 594.843C251.778 596.657 261.116 599.429 263.294 601.59C265.471 603.751 268.245 606.226 271.905 604.642C275.564 603.058 286.472 587.799 298.663 577.289C310.853 566.78 325.404 556.371 338.571 531.873C351.739 507.376 352.429 493.369 361.667 484.164C370.906 474.959 380.639 460.526 392.418 452.921C404.196 445.317 439.351 431.228 450.586 416.628C461.821 402.028 455.964 384.162 445.158 377.78C434.353 371.398 399.077 369.088 390.597 386.789Z" fill="#263238" stroke="#263238" stroke-linecap="round" stroke-linejoin="round"/>
<path id="elkfuwu6pmu8g" d="M296.334 548.459C293.795 553.804 290.89 558.969 287.64 563.915C280.118 574.358 275.168 579.967 275.168 579.967C275.168 579.967 262.878 580.247 248.328 578.96C233.778 577.674 227.755 575.051 227.575 578.843C227.395 582.634 237.473 593.046 244.632 594.861C251.792 596.675 261.129 599.447 263.307 601.608C265.485 603.769 268.259 606.244 271.918 604.66C275.578 603.076 286.485 587.817 298.676 577.307C304.351 572.356 310.537 567.525 316.823 561.256C308.826 559.228 301.663 554.752 296.334 548.455L296.334 548.459Z" fill="white" stroke="#263238" stroke-linecap="round" stroke-linejoin="round"/>
<path id="eld8gh2e3zmfi" d="M271.918 604.664C273.887 603.347 275.64 601.733 277.115 599.879C267.217 597.916 262.169 592.95 257.649 591.631C253.522 590.414 249.576 588.649 245.918 586.385L250.869 579.11L248.362 578.895C233.811 577.608 227.788 574.985 227.611 578.777C227.435 582.569 237.51 592.981 244.669 594.795C251.828 596.61 261.166 599.382 263.344 601.543C265.521 603.704 268.34 606.245 271.918 604.664Z" fill="#FFC100" stroke="#263238" stroke-linecap="round" stroke-linejoin="round"/>
<g id="el6z4tw084x7e">
<path d="M289.026 433.244C290.947 441.513 293.786 449.542 297.488 457.181C303.328 468.861 316.179 481.119 325.533 488.13C334.886 495.141 364.944 521.998 379.841 543.313C381.705 545.985 374.578 554.992 365.818 562.878C357.058 570.763 353.262 573.683 357.933 575.135C362.603 576.587 373.703 576.009 384.806 566.672C395.909 557.335 403.198 551.198 406.697 543.577C408.446 539.782 398.812 535.097 392.972 530.148C387.133 525.199 365.521 492.486 358.807 477.358C352.093 462.231 335.168 440.57 322.612 432.982" fill="#263238"/>
<path d="M289.026 433.244C290.947 441.513 293.786 449.542 297.488 457.181C303.328 468.861 316.179 481.119 325.533 488.13C334.886 495.141 364.944 521.998 379.841 543.313C381.705 545.985 374.578 554.992 365.818 562.878C357.058 570.763 353.262 573.683 357.933 575.135C362.603 576.587 373.703 576.009 384.806 566.672C395.909 557.335 403.198 551.198 406.697 543.577C408.446 539.782 398.812 535.097 392.972 530.148C387.133 525.199 365.521 492.486 358.807 477.358C352.093 462.231 335.168 440.57 322.612 432.982" stroke="#263238" stroke-linecap="round" stroke-linejoin="round"/>
</g>
<path id="el9r7n0dfazya" d="M406.682 543.608C408.431 539.814 398.797 535.129 392.957 530.18C388.005 526.006 371.989 502.218 363.015 485.737L343.218 503.29C355.575 514.722 370.669 530.081 379.907 543.311C381.771 545.984 374.645 554.991 365.885 562.877C357.125 570.762 353.329 573.682 357.999 575.134C362.67 576.586 373.771 576.008 384.873 566.671C395.975 557.334 403.185 551.195 406.682 543.608Z" fill="white" stroke="#263238" stroke-linecap="round" stroke-linejoin="round"/>
<path id="el0uu4yr30eua9" d="M400.677 535.855C399.11 538.197 397.064 541.381 394.705 545.357C389.164 554.694 373.985 566.671 371.94 564.625C370.709 563.234 369.676 561.68 368.871 560.006C367.882 560.963 366.859 561.936 365.803 562.876C357.043 570.762 353.247 573.682 357.917 575.133C362.588 576.585 373.688 576.008 384.791 566.671C395.893 557.334 403.183 551.196 406.682 543.575C407.739 541.299 404.604 538.676 400.677 535.855Z" fill="#FFC100" stroke="#263238" stroke-linecap="round" stroke-linejoin="round"/>
<path id="elv3ohsivr02" d="M479.961 562.58H380.699V567.249H479.961V562.58Z" fill="white" stroke="#263238" stroke-linecap="round" stroke-linejoin="round"/>
<path id="elbpr2e5nmikp" d="M389.739 437.336L372.451 603.396C372.432 603.582 372.453 603.77 372.512 603.948C372.571 604.126 372.666 604.289 372.792 604.428C372.918 604.566 373.072 604.677 373.243 604.752C373.415 604.827 373.6 604.865 373.787 604.865V604.865C374.107 604.864 374.416 604.749 374.658 604.54C374.9 604.331 375.06 604.043 375.107 603.726L400.927 437.339L389.739 437.336Z" fill="white" stroke="#263238" stroke-linecap="round" stroke-linejoin="round"/>
<path id="elal3q0uph9ch" d="M469.156 437.336L486.527 603.396C486.548 603.582 486.529 603.769 486.472 603.947C486.416 604.125 486.322 604.288 486.197 604.427C486.072 604.566 485.92 604.677 485.749 604.752C485.578 604.827 485.394 604.866 485.207 604.865V604.865C484.886 604.868 484.575 604.754 484.332 604.544C484.09 604.335 483.931 604.044 483.887 603.726L458.07 437.336H469.156Z" fill="white" stroke="#263238" stroke-linecap="round" stroke-linejoin="round"/>
<path id="elos9vslnw0zl" d="M437.63 437.336L438.438 603.526C438.433 603.879 438.291 604.216 438.041 604.465C437.792 604.715 437.455 604.857 437.102 604.862V604.862C436.76 604.862 436.432 604.73 436.186 604.493C435.939 604.256 435.795 603.933 435.782 603.592L426.494 437.336H437.63Z" fill="white" stroke="#263238" stroke-linecap="round" stroke-linejoin="round"/>
<path id="elhb2pv7xn66l" d="M479.952 412.227H377.492C375.874 412.227 374.562 413.539 374.562 415.157V436.154C374.562 437.772 375.874 439.084 377.492 439.084H479.952C481.57 439.084 482.881 437.772 482.881 436.154V415.157C482.881 413.539 481.57 412.227 479.952 412.227Z" fill="black"/>
<g id="elx3yy5utm3wh">
<g id="elw69a5drau5a">
<path id="Path 195" opacity="0.2" d="M474.732 412.227H384.856L382.183 417.836C382.183 417.836 465.13 419.288 465.13 424.072C465.13 428.856 466.565 435.108 450.283 435.108C437.085 435.108 392.791 435.735 376.393 435.966C377.049 436.788 377.855 437.476 378.769 437.995L383.586 439.084H474.732C476.919 439.084 479.017 438.215 480.564 436.668C482.111 435.121 482.98 433.023 482.98 430.836V420.376C482.954 418.206 482.073 416.133 480.529 414.608C478.985 413.082 476.902 412.227 474.732 412.227V412.227Z" fill="black"/>
</g>
</g>
<path id="ellyqcr0zr1r" d="M479.952 412.227H377.492C375.874 412.227 374.562 413.539 374.562 415.157V436.154C374.562 437.772 375.874 439.084 377.492 439.084H479.952C481.57 439.084 482.881 437.772 482.881 436.154V415.157C482.881 413.539 481.57 412.227 479.952 412.227Z" stroke="#263238" stroke-linecap="round" stroke-linejoin="round"/>
<g id="eld93p83ld8wm">
<path d="M291.352 443.736C289.307 437.022 280.844 423.594 321.426 395.565C342.872 380.718 389.459 369.286 389.459 369.286L393.831 364.334C393.831 364.334 406.387 377.531 430.916 376.608C455.445 375.684 470.625 364.928 473.544 365.802C476.464 366.676 476.745 374.265 475.59 388.568C474.435 402.871 472.95 410.179 461.568 413.676C450.185 417.174 425.078 418.345 406.98 418.064C398.003 418.038 389.034 417.548 380.107 416.596C380.107 416.596 341.29 441.127 317.056 442.876" fill="#263238"/>
<path d="M291.352 443.736C289.307 437.022 280.844 423.594 321.426 395.565C342.872 380.718 389.459 369.286 389.459 369.286L393.831 364.334C393.831 364.334 406.387 377.531 430.916 376.608C455.445 375.684 470.625 364.928 473.544 365.802C476.464 366.676 476.745 374.265 475.59 388.568C474.435 402.871 472.95 410.179 461.568 413.676C450.185 417.174 425.078 418.345 406.98 418.064C398.003 418.038 389.034 417.548 380.107 416.596C380.107 416.596 341.29 441.127 317.056 442.876" stroke="#263238" stroke-linecap="round" stroke-linejoin="round"/>
</g>
<path id="el464x8f4a2yw" d="M381.277 282.892C379.512 283.436 326.095 293.978 321.426 293.103C316.757 292.229 304.5 281.72 300.112 282.001C295.725 282.281 286.915 283.766 286.106 286.092C285.298 288.418 288.152 296.32 288.152 296.32C288.152 296.32 285.232 300.692 286.683 302.738C288.135 304.783 296.582 299.818 296.582 299.818C296.582 299.818 306.216 306.829 310.587 305.359C314.959 303.889 319.644 302.162 319.644 302.162C319.644 302.162 388.254 306.237 389.129 306.534C390.003 306.831 398.466 308.579 399.341 296.322C400.215 284.065 391.505 279.675 381.277 282.892Z" fill="white" stroke="#263238" stroke-linecap="round" stroke-linejoin="round"/>
<path id="el49i392w5gcr" d="M288.151 296.32L300.112 286.388" stroke="#263238" stroke-linecap="round" stroke-linejoin="round"/>
<path id="eludnpsxxbbgp" d="M292.523 291.931L298.94 271.789L301.58 272.366L298.363 286.966L292.523 291.931Z" fill="#263238"/>
<path id="elqxiwvltuo3" d="M339.457 304.205C339.457 304.205 268.522 323.754 257.137 322.35C245.753 320.946 242.29 315.916 239.618 315.916C236.945 315.916 229.719 319.43 226.42 319.133C223.121 318.836 219.425 317.962 219.425 320.007C219.425 322.053 222.345 325.27 224.094 325.27C225.843 325.27 232.854 324.975 232.854 324.975C232.854 324.975 219.129 329.066 218.534 331.689C218.409 332.304 218.408 332.939 218.533 333.554C218.658 334.169 218.906 334.753 219.261 335.27C219.617 335.787 220.074 336.228 220.603 336.564C221.133 336.901 221.725 337.128 222.345 337.231C223.74 337.483 225.047 338.091 226.139 338.996C226.731 341.289 227.72 343.461 229.059 345.413C230.808 347.459 236.054 348.333 241.894 347.162C247.733 345.99 257.961 340.745 260.286 339.276C262.61 337.808 333.565 331.39 338.828 330.236C344.09 329.081 350.507 329.064 352.553 325.55C354.598 322.036 339.457 304.205 339.457 304.205Z" fill="white"/>
<g id="elxxn0tmki5z">
<path id="eltxy7shedst" d="M253.672 336.506C241.48 336.506 244.186 324.315 240.128 326.36C236.581 328.125 222.738 329.891 218.814 334.362C219.13 335.099 219.622 335.749 220.245 336.255C220.869 336.761 221.606 337.107 222.394 337.265C223.789 337.517 225.096 338.125 226.188 339.03C226.78 341.323 227.769 343.494 229.108 345.447C230.857 347.492 236.103 348.367 241.943 347.195C247.782 346.024 258.011 340.778 260.335 339.31C262.659 337.841 333.614 331.424 338.877 330.269C343.116 329.312 348.132 329.131 350.969 327.25L352.62 325.6L345.082 318.244C345.082 318.244 265.914 336.506 253.672 336.506Z" fill="#92E3A9"/>
<g id="elxhwhv04tmx">
<path id="Path 196" d="M253.672 336.506C241.48 336.506 244.186 324.315 240.128 326.36C236.581 328.125 222.738 329.891 218.814 334.362C219.13 335.099 219.622 335.749 220.245 336.255C220.869 336.761 221.606 337.107 222.394 337.265C223.789 337.517 225.096 338.125 226.188 339.03C226.78 341.323 227.769 343.494 229.108 345.447C230.857 347.492 236.103 348.367 241.943 347.195C247.782 346.024 258.011 340.778 260.335 339.31C262.659 337.841 333.614 331.424 338.877 330.269C343.116 329.312 348.132 329.131 350.969 327.25L352.62 325.6L345.082 318.244C345.082 318.244 265.914 336.506 253.672 336.506Z" fill="#F1F1F1"/>
</g>
</g>
<path id="el6buigx1bgep" d="M339.457 304.205C339.457 304.205 268.522 323.754 257.137 322.35C245.753 320.946 242.29 315.916 239.618 315.916C236.945 315.916 229.719 319.43 226.42 319.133C223.121 318.836 219.425 317.962 219.425 320.007C219.425 322.053 222.345 325.27 224.094 325.27C225.843 325.27 232.854 324.975 232.854 324.975C232.854 324.975 219.129 329.066 218.534 331.689C218.409 332.304 218.408 332.939 218.533 333.554C218.658 334.169 218.906 334.753 219.261 335.27C219.617 335.787 220.074 336.228 220.603 336.564C221.133 336.901 221.725 337.128 222.345 337.231C223.74 337.483 225.047 338.091 226.139 338.996C226.731 341.289 227.72 343.461 229.059 345.413C230.808 347.459 236.054 348.333 241.894 347.162C247.733 345.99 257.961 340.745 260.286 339.276C262.61 337.808 333.565 331.39 338.828 330.236C344.09 329.081 350.507 329.064 352.553 325.55C354.598 322.036 339.457 304.205 339.457 304.205Z" stroke="#263238" stroke-linecap="round" stroke-linejoin="round"/>
<path id="elp8fys9u182s" d="M399.374 232.675C399.374 232.675 392.956 250.178 384.79 261.858C376.624 273.538 373.11 285.811 378.356 298.943C379.753 302.701 381.973 306.099 384.853 308.888C387.733 311.677 391.201 313.786 395.002 315.06C395.002 315.06 390.911 353.597 392.082 363.825C393.253 374.053 409.008 386.014 432.665 386.921C456.322 387.828 476.744 379.332 476.744 371.147C476.744 362.962 460.115 319.479 460.115 310.422C460.115 301.366 461.567 273.056 453.681 247.734C445.796 222.411 418.064 213.984 399.374 232.675Z" fill="black"/>
<g id="ely07vyo3qi4g">
<g id="elgu6nioovemj">
<path id="Path 198" opacity="0.2" d="M453.681 247.554C449.442 233.878 439.428 225.201 428.177 223.024C422.749 224.228 407.919 227.693 404.223 228.565C402.495 229.797 400.873 231.171 399.373 232.673C399.373 232.673 392.956 250.176 384.79 261.856C379.296 269.692 375.931 277.791 375.881 286.222C397.426 291.319 430.321 299.617 427.022 300.541C422.287 301.894 401.979 291.056 408.066 297.836C414.153 304.616 446.669 335.779 437.183 333.04C427.698 330.302 406.713 307.982 412.141 318.82C417.568 329.659 432.448 347.261 427.714 347.261C422.98 347.261 397.921 322.202 406.713 337.099C415.506 351.995 455.465 375.702 442.594 379.083C435.171 381.028 419.416 380.518 410.277 382.052C417.373 384.998 424.95 386.614 432.63 386.82C456.269 387.694 476.71 379.231 476.71 371.049C476.71 362.866 460.081 319.38 460.081 310.324C460.081 301.267 461.534 272.96 453.681 247.554Z" fill="black"/>
</g>
</g>
<path id="elbp7n9j6x2og" d="M399.374 232.675C399.374 232.675 392.956 250.178 384.79 261.858C376.624 273.538 373.11 285.811 378.356 298.943C379.753 302.701 381.973 306.099 384.853 308.888C387.733 311.677 391.201 313.786 395.002 315.06C395.002 315.06 390.911 353.597 392.082 363.825C393.253 374.053 409.008 386.014 432.665 386.921C456.322 387.828 476.744 379.332 476.744 371.147C476.744 362.962 460.115 319.479 460.115 310.422C460.115 301.366 461.567 273.056 453.681 247.734C445.796 222.411 418.064 213.984 399.374 232.675Z" stroke="#263238" stroke-linecap="round" stroke-linejoin="round"/>
<path id="el79oex52rjqr" d="M402.97 303.512C402.97 303.512 424.416 338.155 455.76 348.054" stroke="#263238" stroke-linecap="round" stroke-linejoin="round"/>
<path id="el6ysxvc6l0s" d="M400.495 309.286C400.495 309.286 408.744 336.506 430.19 349.704" stroke="#263238" stroke-linecap="round" stroke-linejoin="round"/>
<path id="el1zb3n5b3xqo" d="M404.917 287.477C404.917 287.477 424.3 279.031 432.252 273.57" stroke="#263238" stroke-linecap="round" stroke-linejoin="round"/>
<path id="elm8xra2hwi6" d="M396.965 289.473C396.965 289.473 403.927 290.958 421.809 289.473" stroke="#263238" stroke-linecap="round" stroke-linejoin="round"/>
<path id="elqd2rq5ntsi" d="M397.625 237.046C393.123 239.916 389.004 243.348 385.368 247.258C378.653 254.269 346.237 303.347 346.237 303.347C346.237 303.347 355.871 323.508 358.793 324.084C361.715 324.66 412.524 281.191 417.192 275.913C421.86 270.634 424.781 261.066 423.329 256.924" fill="#FFC100"/>
<g id="elllis9u4voj">
<g id="elddze0yi5y1">
<path id="Path 200" opacity="0.2" d="M417.191 275.881C421.86 270.618 424.78 261.034 423.328 256.893L411.78 247.984L408.084 251.795C408.084 251.795 407.836 266.741 394.54 274.808C381.244 282.875 375.585 282.943 373.554 293.086C371.524 303.23 378.289 305.954 370.172 307.307C362.056 308.66 356.628 309.336 356.628 314.763C356.681 317.451 356.885 320.133 357.239 322.797C357.624 323.349 358.155 323.783 358.772 324.051C361.711 324.629 412.522 281.127 417.191 275.881Z" fill="black"/>
</g>
</g>
<path id="elaf21wuik4cc" d="M397.625 237.046C393.123 239.916 389.004 243.348 385.368 247.258C378.653 254.269 346.237 303.347 346.237 303.347C346.237 303.347 355.871 323.508 358.793 324.084C361.715 324.66 412.524 281.191 417.192 275.913C421.86 270.634 424.781 261.066 423.329 256.924" stroke="#263238" stroke-linecap="round" stroke-linejoin="round"/>
<path id="el2lkce1v251j" d="M335.151 306.234C335.151 306.234 344.208 327.845 346.237 330.188C348.266 332.531 359.088 331.062 362.586 328.423C366.083 325.784 365.505 320.554 365.505 320.554C365.505 320.554 352.077 296.897 350.658 295.809C349.24 294.72 348.613 297.277 342.41 299.323C336.208 301.368 333.98 302.159 335.151 306.234Z" fill="white" stroke="#263238" stroke-linecap="round" stroke-linejoin="round"/>
<path id="el52aorkeiqjw" d="M349.751 177.494C349.751 177.494 349.158 185.956 350.625 188.58C352.093 191.203 356.167 193.842 356.167 197.339C356.167 200.837 353.247 205.588 354.121 208.145C354.995 210.702 359.681 211.065 359.681 211.065C359.681 211.065 368.424 221.87 371.064 225.665C373.703 229.459 374.858 227.991 378.949 226.836C383.041 225.681 391.784 218.076 396.752 212.236C401.72 206.396 393.451 188.58 382.746 176.619C372.042 164.659 355.873 164.94 352.376 168.371C348.878 171.803 349.751 177.494 349.751 177.494Z" fill="white"/>
<g id="elshx70m0vvy">
<path id="elettyto2zr64" d="M372.896 169.31C371.543 175.909 370.19 187.243 374.249 194.914C380.352 206.461 385.087 212.516 381.705 222.002C381.095 223.652 380.467 225.169 379.858 226.489C384.213 224.625 392.132 217.663 396.751 212.235C401.703 206.395 393.45 188.579 382.745 176.619C379.982 173.55 376.634 171.065 372.896 169.31V169.31Z" fill="#92E3A9"/>
<g id="els85i81pry7b">
<path id="Path 202" opacity="0.5" d="M372.896 169.31C371.543 175.909 370.19 187.243 374.249 194.914C380.352 206.461 385.087 212.516 381.705 222.002C381.095 223.652 380.467 225.169 379.858 226.489C384.213 224.625 392.132 217.663 396.751 212.235C401.703 206.395 393.45 188.579 382.745 176.619C379.982 173.55 376.634 171.065 372.896 169.31V169.31Z" fill="white"/>
</g>
<path id="el8obrgj0r73n" d="M356.168 190.046C356.168 190.046 356.168 185.658 361.431 188.578" stroke="#263238" stroke-linecap="round" stroke-linejoin="round"/>
<path id="elcfdovtkeah7" d="M359.913 194.105L360.606 198.146C360.606 198.146 363.806 199.252 366.165 195.078" stroke="#263238" stroke-linecap="round" stroke-linejoin="round"/>
</g>
<path id="el31gqan1k0eu" d="M349.751 177.494C349.751 177.494 349.158 185.956 350.625 188.58C352.093 191.203 356.167 193.842 356.167 197.339C356.167 200.837 353.247 205.588 354.121 208.145C354.995 210.702 359.681 211.065 359.681 211.065C359.681 211.065 368.424 221.87 371.064 225.665C373.703 229.459 374.858 227.991 378.949 226.836C383.041 225.681 391.784 218.076 396.752 212.236C401.72 206.396 393.451 188.58 382.746 176.619C372.042 164.659 355.873 164.94 352.376 168.371C348.878 171.803 349.751 177.494 349.751 177.494Z" stroke="#263238" stroke-linecap="round" stroke-linejoin="round"/>
<path id="el9bzebtqebml" d="M340.694 164.641V165.813L340.164 180.116L355.918 182.161L359.432 176.025V182.739C364.293 182.332 369.183 183.031 373.735 184.784C381.324 187.704 390.958 208.441 390.381 216.904C389.804 225.366 382.495 227.115 383.369 239.999C384.244 252.883 403.792 265.652 418.64 257.486C433.488 249.32 435.879 238.795 442 240.841C448.121 242.886 457.474 255.441 463.314 237.624C469.154 219.807 466.531 208.441 452.806 193.841C439.081 179.241 428.292 180.412 426.526 168.732C424.761 157.053 420.985 141.281 408.38 132.439C395.775 123.597 377.726 123.102 362.188 129.816C346.65 136.53 340.694 157.053 340.694 164.641Z" fill="#263238"/>
<g id="el0clja5o7gco">
<path id="elzndni01edu" d="M349.471 171.339C349.367 171.355 349.261 171.355 349.157 171.339C347.506 170.96 347.243 168.038 347.078 160.946C347.078 159.099 346.996 157.201 346.88 155.684V155.304C345.478 156.955 342.509 163.965 340.282 170.151L338.731 169.59C344.703 152.961 346.649 153.209 347.278 153.308C348.417 153.456 348.532 154.958 348.582 155.518C348.7 157.069 348.747 158.996 348.78 160.847C348.78 163.783 348.961 168.6 349.571 169.607C350.369 168.786 350.997 167.817 351.419 166.753C353.069 163.322 354.72 161.801 356.236 161.801C358.182 161.801 359.205 164.473 359.932 166.371C360.107 166.839 360.311 167.297 360.542 167.74C361.268 167.938 363.843 165.315 365.211 163.896L366.415 162.675C366.692 162.315 367.046 162.021 367.451 161.815C367.857 161.609 368.303 161.498 368.758 161.488C369.681 161.636 370.127 162.494 370.605 163.385C371.042 164.348 371.677 165.208 372.469 165.909C373 166.321 373.261 166.255 373.376 166.239C374.564 165.944 376 162.741 377.666 159.047C378.045 158.173 378.457 157.266 378.903 156.309C379.35 155.352 380.19 153.752 381.411 153.867C382.944 153.985 383.655 156.391 384.712 160.037C385.357 162.947 386.472 165.733 388.014 168.285C388.393 168.747 388.904 169.275 389.383 169.228C390.67 169.014 392.089 165.203 392.946 162.927C393.326 161.788 393.801 160.684 394.365 159.625C394.491 159.359 394.689 159.134 394.937 158.976C395.186 158.819 395.474 158.735 395.768 158.735C396.989 158.735 397.831 160.385 398.968 162.625C399.826 164.276 400.997 166.601 401.97 166.981C402.019 167.004 402.073 167.016 402.127 167.016C402.181 167.016 402.235 167.004 402.284 166.981C402.927 166.65 403.472 164.522 403.935 162.823C404.324 160.912 405.003 159.07 405.947 157.363C406.191 156.963 406.517 156.619 406.904 156.355C407.291 156.091 407.729 155.912 408.191 155.83C410.352 155.484 412.76 157.348 414.36 158.601C414.278 157.76 414.096 156.605 413.948 155.599C413.122 150.105 412.892 147.449 414.261 146.69C414.904 146.344 415.664 146.542 416.521 147.3C418.006 148.704 419.416 150.186 420.745 151.738C423.763 155.136 428.349 160.25 430.197 159.755C430.709 159.623 430.989 158.831 431.121 158.204L432.771 158.534C432.425 160.185 431.716 161.075 430.66 161.355C428.004 162.048 424.391 158.27 419.541 152.843C418.226 151.299 416.827 149.828 415.351 148.438C415.231 148.324 415.098 148.225 414.955 148.143C414.841 150.527 415.024 152.915 415.499 155.254C416.093 159.13 416.207 160.205 415.499 160.648C415.335 160.756 415.143 160.814 414.947 160.814C414.75 160.814 414.558 160.756 414.394 160.648C414.113 160.45 413.751 160.186 413.355 159.856C412.051 158.85 409.877 157.184 408.403 157.398C408.166 157.442 407.941 157.536 407.744 157.676C407.547 157.816 407.384 157.997 407.265 158.206C406.433 159.762 405.833 161.43 405.483 163.158C404.84 165.6 404.295 167.711 402.992 168.371C402.734 168.492 402.452 168.555 402.167 168.555C401.881 168.555 401.6 168.492 401.341 168.371C399.79 167.761 398.62 165.451 397.481 163.243C397.031 162.216 396.478 161.238 395.831 160.323C395.319 161.314 394.888 162.346 394.544 163.408C393.323 166.709 391.937 170.403 389.677 170.749C389.097 170.787 388.517 170.662 388.004 170.387C387.491 170.113 387.065 169.701 386.774 169.198C385.093 166.502 383.882 163.539 383.194 160.438C382.831 158.699 382.196 157.028 381.313 155.486C380.984 155.951 380.702 156.449 380.472 156.971C380.026 157.914 379.614 158.835 379.234 159.693C377.171 164.295 375.803 167.331 373.823 167.809C373.412 167.892 372.987 167.877 372.583 167.765C372.179 167.654 371.807 167.448 371.497 167.166C370.53 166.329 369.754 165.294 369.22 164.131C369.051 163.755 368.829 163.405 368.561 163.092C368.561 163.092 368.297 163.092 367.654 163.799L366.466 165.02C363.728 167.824 361.978 169.507 360.477 169.392C360.227 169.368 359.985 169.287 359.77 169.156C359.556 169.024 359.374 168.845 359.239 168.633C358.928 168.109 358.669 167.556 358.464 166.982C358.002 165.761 357.111 163.504 356.22 163.468C355.956 163.468 354.851 163.716 352.919 167.493C351.5 170.184 350.493 171.339 349.471 171.339Z" fill="#575757"/>
<path id="elczp4di0lae" d="M382.349 237.624C382.349 237.624 386.44 222.397 390.597 227.23C394.754 232.064 397.642 233.549 398.021 229.457C398.4 225.366 398.021 219.427 402.112 225.003C406.203 230.579 416.217 236.139 416.959 227.594C417.701 219.048 418.823 207.533 423.657 213.489C428.49 219.444 432.565 223.881 432.944 220.533C433.323 217.185 436.658 214.594 438.141 218.306C439.623 222.018 440.747 225.746 441.854 217.201C442.961 208.655 437.761 199.367 443.338 201.594C448.915 203.822 451.586 211.245 451.586 207.17C451.586 203.096 444.888 198.246 450.844 199.73C456.8 201.215 457.525 204.943 458.268 202.716C459.01 200.489 454.966 195.276 460.132 195.276" stroke="#575757" stroke-miterlimit="10"/>
</g>
<path id="el6jtl7wpwjm9" d="M340.694 164.641V165.813L340.164 180.116L355.918 182.161L359.432 176.025V182.739C364.293 182.332 369.183 183.031 373.735 184.784C381.324 187.704 390.958 208.441 390.381 216.904C389.804 225.366 382.495 227.115 383.369 239.999C384.244 252.883 403.792 265.652 418.64 257.486C433.488 249.32 435.879 238.795 442 240.841C448.121 242.886 457.474 255.441 463.314 237.624C469.154 219.807 466.531 208.441 452.806 193.841C439.081 179.241 428.292 180.412 426.526 168.732C424.761 157.053 420.985 141.281 408.38 132.439C395.775 123.597 377.726 123.102 362.188 129.816C346.65 136.53 340.694 157.053 340.694 164.641Z" stroke="#263238" stroke-linecap="round" stroke-linejoin="round"/>
</g>
<g id="mawahib  Floor  inject 91">
<path id="elrlkkoa2338m" d="M0 606H603.688" stroke="#263238" stroke-miterlimit="10"/>
</g>
</g>
</g>
</svg>
