<svg width="945" height="949" viewBox="0 0 945 949" fill="none" xmlns="http://www.w3.org/2000/svg">
<g id="Web 1920 &#226;&#128;&#147; 13">
<g id="01">
<g id="mawahib  background simple  inject 91">
<path id="els9e9chjssin" d="M30.46 369.009C30.46 369.009 -8.25197 534.181 99.497 678.217C207.246 822.253 394.975 878.127 545.979 927.472C696.983 976.817 838.257 919.859 891.267 793.011C944.277 666.163 837.199 597.875 813.584 432.211C789.969 266.547 808.805 218.857 698.66 92.706C588.515 -33.445 362.431 -30.399 209.595 99.081C56.759 228.561 30.46 369.009 30.46 369.009Z" fill="#92E3A9"/>
<g id="elgqvocc40umt">
<path id="Path 191" d="M30.46 369.009C30.46 369.009 -8.25197 534.181 99.497 678.217C207.246 822.253 394.975 878.127 545.979 927.472C696.983 976.817 838.257 919.859 891.267 793.011C944.277 666.163 837.199 597.875 813.584 432.211C789.969 266.547 808.805 218.857 698.66 92.706C588.515 -33.445 362.431 -30.399 209.595 99.081C56.759 228.561 30.46 369.009 30.46 369.009Z" fill="#FFECB3"/>
</g>
</g>
<g id="mawahib  Plants  inject 91">
<path id="el07csi0hap5hq" d="M882.36 494.256C882.36 494.256 882.36 483.468 867.236 468.448C852.112 453.428 842.436 444.704 842.436 444.704C842.436 444.704 834.874 469.504 848.888 484.629C859.242 495.258 870.464 505.004 882.439 513.766L882.36 494.256Z" fill="#92E3A9"/>
<path id="el8rjjp03uyod" d="M860.426 561.665C860.426 561.665 860.426 550.877 845.326 535.857C830.226 520.837 820.499 512.113 820.499 512.113C820.499 512.113 812.937 536.76 826.977 551.961C837.326 562.595 848.548 572.342 860.526 581.1L860.426 561.665Z" fill="#92E3A9"/>
<path id="elhbd5n6t9ej7" d="M881.409 512.657C881.409 512.657 882.545 501.921 899.165 488.475C915.785 475.029 926.496 467.493 926.496 467.493C926.496 467.493 931.374 492.993 915.837 506.515C904.458 516 892.303 524.512 879.499 531.962L881.409 512.657Z" fill="#92E3A9"/>
<path id="elawoxtezaz2c" d="M854.925 592.249C854.925 592.249 857.17 581.693 875.107 570.08C893.044 558.467 904.373 552.014 904.373 552.014C904.373 552.014 906.541 577.822 889.662 589.72C877.377 597.94 864.428 605.122 850.95 611.192L854.925 592.249Z" fill="#92E3A9"/>
<path id="elzzqh651ptc" d="M859.91 679.043C859.91 679.043 859.91 668.255 875.01 653.235C890.11 638.215 899.838 629.491 899.838 629.491C899.838 629.491 907.4 654.318 893.36 669.442C883.004 680.068 871.782 689.814 859.809 698.579L859.91 679.043Z" fill="#92E3A9"/>
<path id="elutxwprtxwan" d="M859.653 700.231C859.653 700.231 861.176 689.546 848.375 672.431C835.574 655.316 827.186 645.414 827.186 645.414C827.186 645.414 816.166 668.899 827.909 685.855C836.617 697.828 846.312 709.051 856.893 719.406L859.653 700.231Z" fill="#92E3A9"/>
<path id="elb0aj5lal5gu" d="M844.761 762.997C844.761 762.997 844.761 752.209 859.861 737.189C874.961 722.169 884.689 713.445 884.689 713.445C884.689 713.445 892.251 738.272 878.211 753.37C867.863 764.004 856.64 773.751 844.66 782.507L844.761 762.997Z" fill="#92E3A9"/>
<path id="elxi9kq9hj97" d="M854.826 819.929C854.826 819.929 852.116 809.477 862.904 791.05C873.692 772.623 880.97 761.783 880.97 761.783C880.97 761.783 894.57 783.875 884.815 802.07C877.533 814.967 869.176 827.226 859.833 838.718L854.826 819.929Z" fill="#92E3A9"/>
<path id="el1luupdwx2cm" d="M883.731 491.494C882.969 502.745 881.591 513.945 879.602 525.045C873.614 555.886 858.702 575.81 852.71 603.683C846.718 631.556 863.885 667.455 859.291 703.277C854.697 739.099 840.761 758.971 844.761 782.869C848.761 806.767 869.718 871.443 869.718 871.443" stroke="#263238" stroke-width="0.5" stroke-linecap="round" stroke-linejoin="round"/>
<path id="elbz5zdvfrdf8" d="M881.254 519.832L897.539 507.315" stroke="#263238" stroke-width="0.5" stroke-linecap="round" stroke-linejoin="round"/>
<path id="elzpago930j1c" d="M882.028 505.431L875.215 493.301" stroke="#263238" stroke-width="0.5" stroke-linecap="round" stroke-linejoin="round"/>
<path id="el8gtjoj9teme" d="M853.613 602.366C853.613 602.366 867.24 592.043 881.254 581.926" stroke="#263238" stroke-width="0.5" stroke-linecap="round" stroke-linejoin="round"/>
<path id="el662fdv3f7zu" d="M860.427 581.1C860.427 581.1 849.071 558.828 836.193 544.065" stroke="#263238" stroke-width="0.5" stroke-linecap="round" stroke-linejoin="round"/>
<path id="elgyxs42ak1nc" d="M860.427 694.398C868.216 680.084 878.04 666.975 889.59 655.479" stroke="#263238" stroke-width="0.5" stroke-linecap="round" stroke-linejoin="round"/>
<path id="el7spveuqjpkw" d="M857.791 709.677C853.642 699.943 848.695 690.569 843.003 681.649C835.057 669.907 833.921 668.384 833.921 668.384" stroke="#263238" stroke-width="0.5" stroke-linecap="round" stroke-linejoin="round"/>
<path id="el9tc235j22m4" d="M844.761 782.843C848.202 774.264 852.301 765.963 857.02 758.015C861.738 750.64 867.064 743.674 872.944 737.188" stroke="#263238" stroke-width="0.5" stroke-linecap="round" stroke-linejoin="round"/>
<path id="eltkzv26w4ff" d="M859.755 838.717C858.963 830.529 860.371 822.279 863.833 814.817C869.511 803.823 875.963 789.448 878.621 783.847" stroke="#263238" stroke-width="0.5" stroke-linecap="round" stroke-linejoin="round"/>
<path id="eluxbl8fc6zd" d="M783.418 638.446C783.418 638.446 782.257 631.684 790.077 620.561C797.897 609.438 802.977 602.986 802.977 602.986C802.977 602.986 810.41 617.722 803.261 628.794C797.954 636.587 791.997 643.917 785.453 650.705L783.418 638.446Z" fill="#92E3A9"/>
<path id="elzq7r39wd6xi" d="M804.474 678.349C804.474 678.349 803.313 671.561 811.158 660.464C819.003 649.367 824.058 642.864 824.058 642.864C824.058 642.864 831.491 657.626 824.316 668.672C819.004 676.457 813.05 683.785 806.517 690.578L804.474 678.349Z" fill="#92E3A9"/>
<path id="ele66rt2fj4q" d="M785.996 649.879C785.996 649.879 784.138 643.272 772.24 636.639C760.342 630.006 752.91 626.445 752.91 626.445C752.91 626.445 752.626 642.962 763.827 649.672C772.002 654.386 780.556 658.408 789.402 661.695L785.996 649.879Z" fill="#92E3A9"/>
<path id="elt1dlxankksh" d="M811.262 696.927C811.262 696.927 808.681 690.552 796.19 685.21C783.699 679.868 775.879 677.08 775.879 677.08C775.879 677.08 777.324 693.546 789.196 699.12C797.815 702.952 806.742 706.052 815.881 708.385L811.262 696.927Z" fill="#92E3A9"/>
<path id="elexknc4r0hr" d="M817.559 751.873C817.559 751.873 816.398 745.111 805.274 737.266C794.15 729.421 787.208 725.085 787.208 725.085C787.208 725.085 785.169 741.473 795.596 749.422C803.227 754.963 811.307 759.858 819.752 764.055L817.559 751.873Z" fill="#92E3A9"/>
<path id="el58phxvopsej" d="M820.011 765.138C820.011 765.138 817.895 758.608 824.063 746.479C830.231 734.35 834.386 727.226 834.386 727.226C834.386 727.226 843.832 740.775 838.309 752.673C834.154 761.144 829.293 769.251 823.779 776.907L820.011 765.138Z" fill="#92E3A9"/>
<path id="el6ufnbj6r9jl" d="M838.98 819.722C838.98 819.722 839.754 812.909 850.413 804.444C861.072 795.979 867.833 791.23 867.833 791.23C867.833 791.23 870.801 807.489 860.839 816.006C853.559 821.981 845.789 827.334 837.612 832.006L838.98 819.722Z" fill="#92E3A9"/>
<path id="el348ogvqu6a9" d="M836.167 802.896C836.167 802.896 835.006 796.134 823.882 788.289C812.758 780.444 805.816 776.082 805.816 776.082C805.816 776.082 803.777 792.47 814.23 800.445C821.85 805.989 829.922 810.884 838.361 815.078L836.167 802.896Z" fill="#92E3A9"/>
<path id="elk6whv6te82" d="M836.167 839.672C836.167 839.672 836.735 832.833 827.96 822.432C819.185 812.031 813.507 806.044 813.507 806.044C813.507 806.044 807.39 821.374 815.468 831.852C821.441 839.146 828.011 845.931 835.108 852.137L836.167 839.672Z" fill="#92E3A9"/>
<path id="eli43fltn14b" d="M782.253 636.872C783.951 643.865 786.036 650.758 788.499 657.519C795.599 676.204 807.107 687.069 813.899 703.974C820.691 720.879 813.899 745.267 820.557 767.152C827.215 789.037 838.236 800.057 838.339 815.491C838.442 830.925 832.352 873.74 832.352 873.74" stroke="#263238" stroke-width="0.5" stroke-linecap="round" stroke-linejoin="round"/>
<path id="elxwl0yli2zbm" d="M786.873 654.344L775.311 648.279" stroke="#263238" stroke-width="0.5" stroke-linecap="round" stroke-linejoin="round"/>
<path id="elbupfyikd6ps" d="M784.834 645.414L787.802 637.078" stroke="#263238" stroke-width="0.5" stroke-linecap="round" stroke-linejoin="round"/>
<path id="elsfgdaso1clj" d="M813.172 703.121C813.172 703.121 803.52 698.192 793.609 693.288" stroke="#263238" stroke-width="0.5" stroke-linecap="round" stroke-linejoin="round"/>
<path id="elp539ty96t1h" d="M806.591 690.527C809.426 681.565 813.17 672.918 817.766 664.719" stroke="#263238" stroke-width="0.5" stroke-linecap="round" stroke-linejoin="round"/>
<path id="elo62dyrj7za" d="M818.902 761.577C812.461 753.428 804.872 746.256 796.372 740.285" stroke="#263238" stroke-width="0.5" stroke-linecap="round" stroke-linejoin="round"/>
<path id="elt9k164wmz7" d="M822.205 770.79C823.738 764.236 825.819 757.821 828.425 751.615C832.141 743.382 832.683 742.298 832.683 742.298" stroke="#263238" stroke-width="0.5" stroke-linecap="round" stroke-linejoin="round"/>
<path id="elfsq84vsu777" d="M837.793 827.027C841.561 822.378 845.723 818.062 850.233 814.127C853.112 812.01 855.814 809.663 858.311 807.107" stroke="#263238" stroke-width="0.5" stroke-linecap="round" stroke-linejoin="round"/>
<path id="elyqew8e0rjn" d="M838.334 815.335C835.263 810.329 831.812 805.566 828.011 801.089C824.25 796.984 820.159 793.195 815.778 789.759" stroke="#263238" stroke-width="0.5" stroke-linecap="round" stroke-linejoin="round"/>
<path id="elptg5n1lwv3" d="M834.98 852.009C834.594 846.782 832.811 841.755 829.818 837.453C825.07 831.182 819.495 822.845 817.198 819.594" stroke="#263238" stroke-width="0.5" stroke-linecap="round" stroke-linejoin="round"/>
<path id="eleq37og8m1uq" d="M801.481 866.126H900.326V940.196C900.326 942.249 899.51 944.219 898.058 945.67C896.607 947.122 894.637 947.938 892.584 947.938H809.327C808.31 947.938 807.304 947.738 806.364 947.349C805.425 946.96 804.572 946.389 803.853 945.67C803.134 944.951 802.563 944.098 802.174 943.159C801.785 942.219 801.585 941.213 801.585 940.196V866.126H801.481Z" fill="#263238"/>
<path id="elh8wuj8yizf" d="M899.449 879.004H801.377C800.36 879.004 799.353 878.804 798.414 878.415C797.475 878.025 796.621 877.455 795.902 876.736C795.183 876.017 794.613 875.163 794.224 874.224C793.835 873.285 793.635 872.278 793.635 871.261C793.635 869.208 794.451 867.238 795.903 865.787C797.355 864.335 799.324 863.519 801.377 863.519H899.448C900.465 863.519 901.472 863.719 902.411 864.108C903.351 864.497 904.204 865.067 904.923 865.786C905.642 866.505 906.212 867.359 906.602 868.298C906.991 869.237 907.191 870.244 907.191 871.261C907.191 872.278 906.991 873.285 906.602 874.224C906.213 875.163 905.643 876.017 904.924 876.736C904.205 877.455 903.351 878.025 902.412 878.415C901.473 878.804 900.466 879.004 899.449 879.004V879.004Z" fill="#263238"/>
</g>
<g id="mawahib  Clock  inject 91">
<path id="el9fb28l0j9vr" d="M711.436 190.081C759.898 190.081 799.184 150.795 799.184 102.333C799.184 53.8711 759.898 14.585 711.436 14.585C662.974 14.585 623.688 53.8711 623.688 102.333C623.688 150.795 662.974 190.081 711.436 190.081Z" fill="#263238"/>
<g id="elccv2jzpdlac">
<path id="Ellipse 35" d="M711.435 178.44C753.468 178.44 787.543 144.365 787.543 102.332C787.543 60.2987 753.468 26.2239 711.435 26.2239C669.402 26.2239 635.327 60.2987 635.327 102.332C635.327 144.365 669.402 178.44 711.435 178.44Z" fill="white"/>
</g>
<path id="watchLine" d="M662.065 116.321L711.436 102.333V33.27" stroke="#263238" stroke-width="2" stroke-miterlimit="10"/>
</g>
<g id="mawahib  Graphics  inject 91">
<path id="el9tqjgq709ln" d="M285.678 494.617H189.336L63.211 156.117H159.553L285.678 494.617Z" fill="#263238"/>
<g id="el22r5zzxf7jh">
<path id="Path 192" opacity="0.2" d="M285.678 494.617H189.336L63.211 156.117H159.553L285.678 494.617Z" fill="white"/>
</g>
<path id="elybt5yul4k0g" d="M133.823 238.806H109.047C107.358 238.705 105.732 238.125 104.361 237.133C102.99 236.141 101.929 234.779 101.305 233.206L91.73 207.527C91.3976 206.939 91.2305 206.272 91.2465 205.597C91.2625 204.922 91.461 204.263 91.8208 203.692C92.1807 203.12 92.6885 202.657 93.2905 202.35C93.8925 202.044 94.5661 201.906 95.24 201.952H120.016C121.701 202.057 123.321 202.636 124.691 203.623C126.061 204.609 127.124 205.962 127.758 207.527L137.333 233.206C138.468 236.303 136.92 238.806 133.823 238.806Z" fill="#263238"/>
<path id="elnc38uvystwn" d="M165.928 173.228H69.586L63.211 156.117H159.553L165.928 173.228Z" fill="#263238"/>
<path id="eldz2bdsezrqq" d="M102.517 176.041L105.278 183.474" stroke="#263238" stroke-linecap="round" stroke-linejoin="round"/>
<path id="elc9vcepydubc" d="M106.233 176.041L108.994 183.474" stroke="#263238" stroke-linecap="round" stroke-linejoin="round"/>
<path id="elx3bmkcaaamc" d="M109.924 176.041L112.711 183.474" stroke="#263238" stroke-linecap="round" stroke-linejoin="round"/>
<path id="elmnmvnrr790q" d="M113.64 176.041L116.401 183.474" stroke="#263238" stroke-linecap="round" stroke-linejoin="round"/>
<path id="elwupn4r8e9en" d="M117.357 176.041L120.118 183.474" stroke="#263238" stroke-linecap="round" stroke-linejoin="round"/>
<path id="elte3n6crtis" d="M121.073 176.041L123.834 183.474" stroke="#263238" stroke-linecap="round" stroke-linejoin="round"/>
<path id="elegvp256ut6l" d="M124.789 176.041L127.55 183.474" stroke="#263238" stroke-linecap="round" stroke-linejoin="round"/>
<path id="ele15cr7rux8" d="M128.506 176.041L131.267 183.474" stroke="#263238" stroke-linecap="round" stroke-linejoin="round"/>
<path id="elqwrrfc32tqa" d="M132.196 176.041L134.983 183.474" stroke="#263238" stroke-linecap="round" stroke-linejoin="round"/>
<path id="elmtkm7qyvmfp" d="M135.913 176.041L138.674 183.474" stroke="#263238" stroke-linecap="round" stroke-linejoin="round"/>
<path id="ely88crwa3mmi" d="M125.796 222.702L102.568 207.914C102.352 207.743 102.091 207.638 101.817 207.61C101.542 207.583 101.266 207.634 101.02 207.759C100.822 207.908 100.688 208.127 100.645 208.371C100.602 208.616 100.653 208.867 100.788 209.075L111.473 232.122C111.613 232.413 111.815 232.67 112.064 232.875C112.314 233.08 112.605 233.228 112.918 233.309H113.279C113.471 233.323 113.662 233.273 113.821 233.165C113.98 233.057 114.098 232.898 114.156 232.715L116.737 225.127H126.031C126.151 225.138 126.273 225.123 126.387 225.084C126.501 225.044 126.605 224.981 126.693 224.898C126.781 224.815 126.85 224.714 126.896 224.603C126.942 224.491 126.964 224.371 126.96 224.25C126.91 223.916 126.777 223.599 126.574 223.329C126.37 223.059 126.103 222.843 125.796 222.702V222.702Z" fill="white"/>
<path id="eltsn5q9sx228" d="M125.332 223.735L102.001 208.947L112.686 231.994L115.344 223.839L125.332 223.735Z" fill="#263238"/>
<path id="el85518d6bq7f" d="M168.922 223.735L145.591 208.947L156.301 231.994L158.933 223.839L168.922 223.735Z" fill="white"/>
<path id="eljdap4xjh33" d="M180.871 236.846L178.781 232.097L176.02 236.097L180.871 236.846Z" fill="white"/>
<path id="el5x559zt6nng" d="M237.234 388.133L235.144 383.384L232.383 387.384L237.234 388.133Z" fill="white"/>
<path id="elxi1nrt5mzep" d="M254.553 434.562L252.441 429.813L249.705 433.788L254.553 434.562Z" fill="white"/>
<path id="el1plqejswlj6" d="M272.283 482.152L270.167 477.403L267.431 481.403L272.283 482.152Z" fill="white"/>
<path id="el1lbbk6bekra" d="M172.947 334.529L170.831 329.78L168.095 333.754L172.947 334.529Z" fill="white"/>
<path id="elul3d9u2hzv7" d="M192.923 388.133L190.807 383.384L188.071 387.384L192.923 388.133Z" fill="white"/>
<path id="elmi25z6e3pdc" d="M210.215 434.562L208.125 429.813L205.364 433.788L210.215 434.562Z" fill="white"/>
<path id="el0jj2fxz9zt1b" d="M227.971 482.152L225.859 477.403L223.123 481.403L227.971 482.152Z" fill="white"/>
<path id="eljj44e7gmeah" d="M125.796 287.791L129.846 290.402L140.995 267.149L136.946 264.512L125.796 287.791Z" fill="white"/>
<path id="ellbbf8ek1k3" d="M130.802 265.002C124.892 260.408 124.479 259.479 125.924 254.266C122.879 258.447 121.975 258.524 115.601 255.118C121.511 259.738 121.924 260.667 120.479 265.88C123.422 261.699 124.325 261.626 130.802 265.002Z" fill="white"/>
<path id="eltb0pb8n6o1" d="M150.262 267.506C146.623 264.667 146.362 264.099 147.242 260.873C145.358 263.454 144.816 263.454 140.816 261.415C144.455 264.254 144.716 264.822 143.81 268.048C145.694 265.467 146.262 265.415 150.262 267.506Z" fill="white"/>
<path id="el80p8p9lo5ir" d="M149.152 278.445C146.571 276.406 146.365 276.019 147.01 273.722C145.668 275.554 145.255 275.58 142.416 274.083C144.997 276.122 145.177 276.535 144.558 278.832C145.9 276.977 146.287 276.951 149.152 278.445Z" fill="white"/>
<path id="elyb2aqya5t1" d="M207.634 381.603L210.134 383.384L221.283 360.105L218.783 358.324L207.634 381.603Z" fill="white"/>
<path id="elaf78jjdnlxi" d="M198.291 281.777L177.722 268.744L187.142 289.081L189.49 281.881L198.291 281.777Z" fill="white"/>
<path id="eli0v0wkoo93r" d="M182.806 282.99C175.27 282.99 167.476 278.525 165.437 273.054C163.398 267.583 167.889 263.195 175.476 263.195C183.063 263.195 190.806 267.66 192.845 273.105C194.884 278.55 190.368 282.99 182.806 282.99ZM175.864 264.331C168.973 264.331 164.844 268.254 166.625 273.054C168.406 277.854 175.477 281.777 182.368 281.777C189.259 281.777 193.414 277.877 191.607 273.054C189.8 268.231 182.754 264.331 175.864 264.331Z" fill="white"/>
<path id="el3fmsoklw2mh" d="M173.747 281.003C172.737 280.93 171.768 280.574 170.951 279.976C170.134 279.378 169.502 278.562 169.127 277.622C168.927 277.266 168.826 276.863 168.836 276.455C168.845 276.047 168.964 275.649 169.181 275.303C169.397 274.957 169.703 274.676 170.066 274.489C170.429 274.302 170.836 274.216 171.243 274.241C172.253 274.314 173.222 274.67 174.039 275.268C174.856 275.866 175.488 276.682 175.863 277.622C176.063 277.978 176.164 278.381 176.154 278.789C176.145 279.197 176.026 279.595 175.809 279.941C175.593 280.287 175.287 280.568 174.924 280.755C174.561 280.942 174.154 281.028 173.747 281.003ZM171.682 275.454C171.419 275.432 171.154 275.483 170.918 275.601C170.681 275.719 170.481 275.899 170.34 276.123C170.199 276.346 170.122 276.604 170.117 276.869C170.113 277.133 170.181 277.394 170.314 277.622C170.553 278.234 170.961 278.766 171.492 279.155C172.022 279.543 172.652 279.773 173.308 279.816C174.495 279.816 175.115 278.835 174.676 277.622C174.427 277.019 174.016 276.497 173.487 276.115C172.958 275.733 172.334 275.506 171.683 275.459L171.682 275.454Z" fill="white"/>
<path id="elle8nhday4p" d="M174.083 284.539L173.257 283.403C173.863 283.249 174.411 282.924 174.837 282.466C175.263 282.008 175.547 281.437 175.657 280.822C175.691 279.788 175.383 278.772 174.78 277.931L175.761 277.518C176.556 278.63 176.963 279.972 176.922 281.338C176.803 282.087 176.473 282.786 175.97 283.353C175.467 283.92 174.812 284.332 174.083 284.539V284.539Z" fill="white"/>
<path id="elzm1yww9h0yk" d="M161.179 318.089L146.803 307.637L143.758 312.489L158.133 322.941L161.179 318.089Z" fill="white"/>
<path id="el1qne9ccswms" d="M138.158 331.639L140.507 333.339L145.669 324.977C145.391 324.738 145.196 324.417 145.112 324.059C145.028 323.702 145.061 323.328 145.204 322.99C145.591 322.345 146.649 322.345 147.527 322.99C147.922 323.213 148.227 323.568 148.387 323.992C148.547 324.417 148.553 324.884 148.404 325.313C148.175 325.576 147.859 325.749 147.514 325.801C147.169 325.853 146.817 325.781 146.52 325.597L141.358 333.959L143.552 335.559L156.452 331.92L157.252 324.178L143.087 313.857L136.764 317.393L138.158 331.639Z" fill="white"/>
<path id="elypa1415ghf" d="M124.583 298.785H207.505" stroke="#263238" stroke-linecap="round" stroke-linejoin="round"/>
<path id="el2ypwkyo6x4w" d="M196.691 307.637L193.646 312.489L208.021 322.941L211.066 318.089L196.691 307.637Z" fill="white"/>
<path id="eleur4rtjq3u5" d="M186.523 317.393L188.043 331.611L190.392 333.311L195.554 324.949C195.276 324.71 195.081 324.389 194.997 324.031C194.914 323.674 194.946 323.3 195.089 322.962C195.476 322.317 196.534 322.317 197.412 322.962C197.807 323.185 198.112 323.54 198.272 323.964C198.432 324.389 198.438 324.856 198.289 325.285C198.06 325.548 197.744 325.721 197.399 325.773C197.054 325.825 196.702 325.753 196.405 325.569L191.243 333.936L193.437 335.536L206.337 331.897L207.137 324.155L192.975 313.831L186.523 317.393Z" fill="white"/>
<path id="el15hrjk0x348h" d="M182.961 321.599C183.116 320.592 183.245 319.509 183.348 318.299C183.465 317.137 183.344 315.964 182.993 314.851C182.643 313.737 182.07 312.706 181.309 311.821C179.628 309.942 177.44 308.588 175.009 307.921C174.622 307.921 174.309 307.921 174.364 308.385C174.402 308.582 174.494 308.764 174.631 308.91C174.768 309.056 174.944 309.161 175.138 309.211C177.112 309.787 178.895 310.883 180.3 312.385C180.914 313.122 181.375 313.974 181.654 314.891C181.933 315.809 182.026 316.773 181.926 317.727C181.873 318.819 181.744 319.905 181.539 320.979C180.839 326.141 180.429 329.238 188.998 334.373C189.134 334.471 189.296 334.525 189.463 334.528C189.553 334.532 189.643 334.51 189.721 334.464C189.799 334.419 189.862 334.351 189.902 334.27C189.934 334.079 189.903 333.883 189.815 333.711C189.727 333.539 189.585 333.4 189.412 333.315C182.006 328.851 182.293 326.735 182.961 321.599Z" fill="white"/>
<path id="elchqx1xoix7o" d="M146.262 356.105L146.778 357.447C147.512 359.52 148.374 361.546 149.359 363.512L151.759 362.918C151.088 361.576 150.493 360.198 149.978 358.789H160.302L168.87 381.81H165.025L166.032 384.391H176.355L175.348 381.81H171.528L162.908 358.686H172.896L174.677 363.538H177.387L175.087 357.344L174.571 356.002L146.262 356.105Z" fill="white"/>
<g id="eli4gao5rzftn">
<path id="Path 193" opacity="0.44" d="M200.149 419.902C202.369 425.838 197.568 430.638 189.31 430.638C181.052 430.638 172.69 425.838 170.496 419.902C168.302 413.966 173.077 409.192 181.335 409.192C189.593 409.192 197.955 413.992 200.149 419.902Z" fill="white"/>
</g>
<path id="elkw28yyfwx8" d="M200.15 419.902C202.37 425.838 197.569 430.638 189.311 430.638C181.053 430.638 172.691 425.838 170.497 419.902C168.303 413.966 173.078 409.192 181.336 409.192C189.594 409.192 197.956 413.992 200.15 419.902Z" stroke="white" stroke-miterlimit="10"/>
<path id="ele8766n9yaz" d="M230.68 420.213L240.41 402.534C240.553 402.337 240.734 402.17 240.942 402.045C241.151 401.92 241.383 401.837 241.624 401.804C241.865 401.77 242.11 401.785 242.345 401.849C242.58 401.912 242.8 402.023 242.991 402.173V402.173C243.556 402.41 244.032 402.819 244.352 403.342C244.671 403.865 244.818 404.475 244.771 405.086L239.61 424.626L230.68 420.213Z" fill="white"/>
<path id="elw3rw8uy0nb" d="M229.08 421.71C232.9 421.194 240.38 424.471 240.59 429.452C240.557 429.997 240.38 430.524 240.076 430.977C239.772 431.431 239.353 431.795 238.861 432.033C235.449 433.572 231.699 434.212 227.97 433.891C228.452 433.517 228.81 433.007 228.999 432.428C229.187 431.848 229.198 431.225 229.028 430.639C228.513 429.213 227.918 427.817 227.247 426.458C226.547 424.471 226.912 421.812 229.079 421.658" fill="white"/>
<path id="elusljjhkx72" d="M208.821 460.499C208.018 458.653 206.82 457.005 205.311 455.673L202.369 460.344C204.109 461.844 205.493 463.713 206.421 465.815C207.268 467.683 208.252 469.485 209.363 471.209L212.228 466.615C210.918 464.678 209.778 462.631 208.821 460.498V460.499Z" fill="white"/>
<path id="el7uxks0crjtf" d="M205.44 465.897C204.616 464.057 203.41 462.412 201.904 461.071L198.962 465.771C200.706 467.274 202.098 469.142 203.04 471.242C203.876 473.11 204.851 474.913 205.956 476.636L208.846 472.042C207.518 470.108 206.377 468.051 205.439 465.9L205.44 465.897Z" fill="white"/>
<path id="elzm5r6k7k38" d="M209.828 460.421C210.664 462.289 211.639 464.092 212.744 465.815L216.977 459.053L207.505 452.136L205.75 454.927C207.487 456.447 208.878 458.323 209.828 460.427V460.421Z" fill="white"/>
<path id="elfde98uouzl" d="M202.033 471.316C201.23 469.47 200.032 467.822 198.523 466.49L195.942 470.413L196.381 479.313C196.399 479.471 196.45 479.624 196.53 479.762C196.61 479.9 196.718 480.02 196.846 480.114C196.974 480.208 197.121 480.275 197.276 480.311C197.431 480.346 197.592 480.349 197.749 480.32L205.285 477.352C204.03 475.436 202.942 473.415 202.033 471.313V471.316ZM198.704 477.407L198.472 472.658L202.782 475.807L198.704 477.407Z" fill="white"/>
<path id="elu7mzor3r1kn" d="M239.223 464.705L235.997 469.867L252.669 482.023L255.895 476.861L256.902 477.609L264.644 465.453L245.933 451.827L238.32 463.983L239.223 464.705ZM251.559 479.08L238.939 469.866L241.239 466.175L253.885 475.389L251.559 479.08Z" fill="white"/>
<path id="elhtxha4r3fpo" d="M81.819 160.659L82.438 162.285L80.115 165.124L84.554 167.963L85.148 169.615L78.18 165.124L81.819 160.659Z" fill="white"/>
<path id="ele68cs3uhcxd" d="M75.986 160.659L76.607 162.289L74.284 165.128L78.723 167.967L79.342 169.619L72.348 165.128L75.986 160.659Z" fill="white"/>
<path id="elutc13gml9x9" d="M472.27 359.124H273.008L212.098 189.203H411.363L472.27 359.124Z" fill="#263238"/>
<path id="elcdaz3gjq8l" d="M458.128 349.864H280.49L226.241 198.494H403.879L458.128 349.864Z" fill="#FFC100"/>
<path id="elcpf16ri07o4" d="M424.345 255.633L394.975 234.006L371.775 294.242L311.616 277.26L280.491 349.86H458.128L424.345 255.633Z" fill="white"/>
<path id="elg9cjpw2h94f" d="M301.937 230.909C297.808 219.399 285.137 210.056 273.548 210.056C261.959 210.056 256.048 219.399 260.179 230.909C264.31 242.419 276.979 251.762 288.568 251.762C300.157 251.762 306.092 242.546 301.937 230.909Z" fill="white"/>
<path id="elgbi4n6jqws8" d="M492.917 329.884H293.655L232.745 159.963H432.01L492.917 329.884Z" fill="#263238"/>
<path id="el4oc8apb1yd6" d="M478.775 320.619H301.137L246.888 169.228H424.526L478.775 320.619Z" fill="#FFC100"/>
<path id="elg5lfkcsnyi" d="M444.992 226.393L415.622 204.766L392.422 265.002L332.263 248.02L301.138 320.62H478.775L444.992 226.393Z" fill="white"/>
<path id="elc9sol9iyzwu" d="M322.583 201.669C318.454 190.159 305.783 180.816 294.194 180.816C282.605 180.816 276.694 190.159 280.825 201.669C284.956 213.179 297.625 222.522 309.214 222.522C320.803 222.522 326.738 213.179 322.583 201.669Z" fill="white"/>
<path id="elb8j2snjmc7r" d="M493.82 133.303L498.594 144.917H497.226C496.496 143.354 495.587 141.882 494.516 140.53C493.362 139.213 491.947 138.15 490.361 137.407C488.68 136.699 486.868 136.356 485.045 136.4H478.051L491.91 174.261C492.486 176.37 493.536 178.32 494.981 179.961C496.362 181.021 498.068 181.568 499.807 181.509H501.536L502.026 182.851H481.019L480.529 181.509H482.283C484.373 181.509 485.612 180.864 486.025 179.599C486.093 177.752 485.703 175.917 484.889 174.257L471.032 136.4H465.096C463.495 136.313 461.891 136.487 460.347 136.916C459.8 137.15 459.313 137.504 458.92 137.95C458.527 138.397 458.239 138.925 458.076 139.497C457.665 141.264 457.781 143.112 458.411 144.813H457.017L453.353 133.2L493.82 133.303Z" fill="black"/>
<path id="el6e2r5g9yrrg" d="M523.99 156.659H539.139" stroke="#263238" stroke-width="0.5" stroke-miterlimit="10"/>
<path id="el508ux6e4wu" d="M538.649 196.817H462.36L434.1 119.547H510.39L538.649 196.817Z" stroke="#263238" stroke-width="0.5" stroke-miterlimit="10"/>
<path id="el1zgpgmjk2qg" d="M451.495 159.498H445.765L443.675 153.798H449.404L451.495 159.498Z" fill="white" stroke="#263238" stroke-width="0.5" stroke-miterlimit="10"/>
<path id="elmogora9e6oa" d="M527.887 159.498H522.157L520.067 153.798H525.796L527.887 159.498Z" fill="white" stroke="#263238" stroke-width="0.5" stroke-miterlimit="10"/>
<path id="eln2rpyvr5ink" d="M438.075 122.821H432.375L430.285 117.121H435.985L438.075 122.821Z" fill="white" stroke="#263238" stroke-width="0.5" stroke-miterlimit="10"/>
<path id="elvo5u6owougg" d="M514.467 122.821H508.767L506.676 117.121H512.376L514.467 122.821Z" fill="white" stroke="#263238" stroke-width="0.5" stroke-miterlimit="10"/>
<path id="el7xxan4lixes" d="M476.297 122.821H470.597L468.506 117.121H474.206L476.297 122.821Z" fill="white" stroke="#263238" stroke-width="0.5" stroke-miterlimit="10"/>
<path id="el9nrj270vmjr" d="M466.025 199.213H460.295L458.205 193.513H463.934L466.025 199.213Z" fill="white" stroke="#263238" stroke-width="0.5" stroke-miterlimit="10"/>
<path id="el8ue5gewcmpt" d="M542.418 199.213H536.688L534.598 193.513H540.327L542.418 199.213Z" fill="white" stroke="#263238" stroke-width="0.5" stroke-miterlimit="10"/>
<path id="el61tu9q8bzin" d="M500.944 198.185L506.493 213.36" stroke="#263238" stroke-width="0.5" stroke-miterlimit="10"/>
<path id="el5m4n3hby9bo" d="M504.247 199.213H498.518L496.427 193.513H502.156L504.247 199.213Z" fill="white" stroke="#263238" stroke-width="0.5" stroke-miterlimit="10"/>
<path id="elmcgl7tne4m" d="M510.467 216.224H504.737L502.647 210.495H508.377L510.467 216.224Z" fill="#263238"/>
<path id="elu583zp573lh" d="M457.792 182.338H521.874" stroke="#263238" stroke-width="0.5" stroke-miterlimit="10"/>
<path id="elly9gbcqv3um" d="M542.16 156.659C541.831 155.82 541.272 155.091 540.546 154.557C539.821 154.022 538.959 153.704 538.06 153.639C537.696 153.617 537.332 153.693 537.007 153.859C536.682 154.025 536.407 154.276 536.212 154.584C536.017 154.893 535.908 155.248 535.897 155.613C535.886 155.978 535.974 156.339 536.15 156.659C536.48 157.495 537.04 158.22 537.766 158.75C538.492 159.28 539.353 159.593 540.25 159.653C540.614 159.681 540.978 159.61 541.304 159.447C541.631 159.284 541.907 159.036 542.103 158.729C542.299 158.421 542.408 158.066 542.418 157.702C542.428 157.337 542.339 156.977 542.16 156.659V156.659Z" fill="#263238"/>
</g>
<g id="mawahib  Table  inject 91">
<g id="el2kb9eld9ezo">
<path id="Path 194" opacity="0.2" d="M188.459 566.416L257.599 625.672L191.711 948.042H196.176L269.476 631.582L336.629 687.896L241.805 947.654L247.741 946.673L347.489 693.831L625.029 946.673H793.919L596.383 559.499L188.459 566.416Z" fill="black"/>
</g>
<path id="el0dt4alwkjoxb" d="M196.175 948.042H191.71L185.026 560.892H202.859L196.175 948.042Z" fill="#263238" stroke="#263238" stroke-linecap="round" stroke-linejoin="round"/>
<path id="eluahok395tzl" d="M580.356 948.042H575.891L569.207 560.892H587.04L580.356 948.042Z" fill="#263238" stroke="#263238" stroke-linecap="round" stroke-linejoin="round"/>
<path id="elethfr8pfubj" d="M607.558 554.905H178.213V564.944H607.558V554.905Z" fill="white" stroke="#263238" stroke-linecap="round" stroke-linejoin="round"/>
</g>
<g id="mawahib  paper bin  inject 91">
<path id="elp1bfok2675" d="M81.277 762.764L73.535 779.23C73.535 779.23 83.084 789.553 87.42 789.553C91.756 789.553 93.485 785.217 98.698 783.462C103.911 781.707 112.557 765.267 112.557 765.267C112.557 765.267 107.395 756.596 102.234 755.718C97.073 754.84 89.334 752.26 84.891 751.382C80.448 750.504 81.277 762.764 81.277 762.764Z" fill="white" stroke="#263238" stroke-linecap="round" stroke-linejoin="round"/>
<path id="elhv6prlz2fni" d="M81.277 762.765L86.439 771.437V779.179C86.439 779.179 91.601 781.76 93.381 779.179C95.161 776.598 102.93 767.901 102.93 767.901L99.446 760.159" stroke="#263238" stroke-linecap="round" stroke-linejoin="round"/>
<path id="eljm3a62hyo2p" d="M86.464 779.23L76.941 777.501" stroke="#263238" stroke-linecap="round" stroke-linejoin="round"/>
<path id="elvhmqp1ndzbe" d="M230.706 918.724L213.182 923.886C213.182 923.886 211.659 937.926 214.524 941.178C217.389 944.43 221.802 942.878 226.524 945.643C231.246 948.408 249.364 944.017 249.364 944.017C249.364 944.017 252.464 934.391 249.674 929.926C246.884 925.461 243.686 917.848 241.467 914.026C239.248 910.204 230.706 918.724 230.706 918.724Z" fill="white" stroke="#263238" stroke-linecap="round" stroke-linejoin="round"/>
<path id="elmokw7l8tbo" d="M230.707 918.723L227.636 928.375L221.778 933.537C221.778 933.537 223.249 939.163 226.346 938.699C229.443 938.235 241.134 938.415 241.134 938.415L244.696 930.673" stroke="#263238" stroke-linecap="round" stroke-linejoin="round"/>
<path id="el9pg88yeumcq" d="M221.777 933.563L216.77 925.253" stroke="#263238" stroke-linecap="round" stroke-linejoin="round"/>
<path id="el8bb32xh0fb6" d="M53.507 759.28C53.507 759.28 38.771 768.829 41.377 774.042C43.983 779.255 45.713 782.713 48.319 784.365C50.925 786.017 58.642 788.701 61.219 786.946C63.796 785.191 69.891 780.881 70.742 774.046C71.593 767.211 74.226 766.304 71.619 762.768C69.012 759.232 53.507 759.28 53.507 759.28Z" fill="white" stroke="#263238" stroke-linecap="round" stroke-linejoin="round"/>
<path id="elt56xdf2xtyl" d="M41.275 774.043L51.598 780.985L60.27 780.108L63.728 770.559C63.728 769.19 63.1842 767.877 62.2161 766.909C61.248 765.941 59.9351 765.397 58.566 765.397C55.7564 765.28 53.0017 766.199 50.824 767.978L52.579 773.14" stroke="#263238" stroke-linecap="round" stroke-linejoin="round"/>
<path id="elvtjk39h3xm" d="M117.688 747.15C117.688 747.15 104.788 759.28 106.41 767.95C108.032 776.62 124.631 783.564 124.631 783.564L144.581 772.312L138.494 756.83L125.594 749.888L117.688 747.15Z" fill="white" stroke="#263238" stroke-linecap="round" stroke-linejoin="round"/>
<path id="elpxzfciam99" d="M106.414 767.952L120.299 773.165L135.913 767.952L129.822 754.093" stroke="#263238" stroke-linecap="round" stroke-linejoin="round"/>
<path id="el6t4yeog605b" d="M117.693 747.15L116.816 765.371L127.245 768.83" stroke="#263238" stroke-linecap="round" stroke-linejoin="round"/>
<path id="elp80d3z7jqg" d="M156.715 910.18C156.715 910.18 143.815 922.336 145.437 931.007C147.059 939.678 163.658 946.621 163.658 946.621L183.608 935.343L177.543 919.729L164.509 912.79L156.715 910.18Z" fill="white" stroke="#263238" stroke-linecap="round" stroke-linejoin="round"/>
<path id="elrdyggb69k2n" d="M145.436 931.008L159.321 936.195L174.935 931.008L168.87 917.123" stroke="#263238" stroke-linecap="round" stroke-linejoin="round"/>
<path id="elkvksdqpnh2e" d="M156.715 910.18L155.837 928.401L166.263 931.885" stroke="#263238" stroke-linecap="round" stroke-linejoin="round"/>
<path id="ellvoxybgtr9" d="M69.999 734.143C69.999 734.143 57.099 746.273 58.721 754.943C60.343 763.613 76.942 770.428 76.942 770.428L96.866 759.15L90.8 743.663L77.9 736.721L69.999 734.143Z" fill="white" stroke="#263238" stroke-linecap="round" stroke-linejoin="round"/>
<path id="elnrld6bpa1v" d="M58.721 754.944L72.606 760.157L88.194 754.944L82.129 741.085" stroke="#263238" stroke-linecap="round" stroke-linejoin="round"/>
<path id="elkfrder0gjob" d="M69.999 734.143L69.122 752.363L79.522 755.821" stroke="#263238" stroke-linecap="round" stroke-linejoin="round"/>
<path id="el2w816if65dd" d="M142.752 948.041H39.829L24.396 777.423H158.186L142.752 948.041Z" fill="#263238" stroke="#263238" stroke-linecap="round" stroke-linejoin="round"/>
<path id="ely9ba27spxcc" d="M74.335 919.73C74.335 919.73 59.573 929.279 62.179 934.466C64.785 939.653 66.515 943.138 69.121 944.789C71.727 946.44 79.444 949.125 82.021 947.37C84.598 945.615 90.693 941.305 91.57 934.47C92.447 927.635 95.028 926.728 92.422 923.192C89.816 919.656 74.335 919.73 74.335 919.73Z" fill="white" stroke="#263238" stroke-linecap="round" stroke-linejoin="round"/>
<path id="elg3g2pkh4aj" d="M62.179 934.466L72.502 941.408L81.174 940.556L84.632 931.007C84.632 930.329 84.4985 929.658 84.2391 929.032C83.9797 928.405 83.5994 927.836 83.1201 927.357C82.6408 926.878 82.0717 926.497 81.4454 926.238C80.8191 925.979 80.1479 925.845 79.47 925.845C76.659 925.719 73.9009 926.638 71.728 928.426L73.457 933.588" stroke="#263238" stroke-linecap="round" stroke-linejoin="round"/>
</g>
<g id="mawahib  Character  inject 91">
<path id="el7echva4e0rg" d="M347.205 436.935C347.39 438.103 347.212 439.299 346.695 440.363C346.179 441.427 345.349 442.306 344.317 442.884C343.285 443.461 342.1 443.708 340.924 443.591C339.747 443.474 338.635 442.999 337.736 442.23C336.838 441.461 336.197 440.436 335.9 439.291C335.602 438.147 335.663 436.938 336.074 435.83C336.485 434.721 337.226 433.765 338.197 433.09C339.168 432.416 340.323 432.055 341.505 432.057C342.905 431.958 344.289 432.414 345.355 433.327C346.422 434.24 347.087 435.536 347.205 436.935V436.935Z" fill="#808080" stroke="#263238" stroke-linecap="round" stroke-linejoin="round"/>
<path id="el0uk1il5f0e6k" d="M352.702 451.801C352.887 452.969 352.709 454.165 352.192 455.229C351.676 456.293 350.846 457.172 349.814 457.75C348.782 458.327 347.597 458.574 346.421 458.457C345.244 458.34 344.132 457.865 343.233 457.096C342.335 456.327 341.694 455.302 341.397 454.157C341.099 453.013 341.16 451.804 341.571 450.696C341.982 449.587 342.723 448.631 343.694 447.956C344.665 447.282 345.82 446.921 347.002 446.923C348.402 446.824 349.786 447.28 350.852 448.193C351.919 449.106 352.584 450.402 352.702 451.801V451.801Z" fill="#808080" stroke="#263238" stroke-linecap="round" stroke-linejoin="round"/>
<path id="ellrb2ppwero" d="M358.174 466.666C358.359 467.834 358.181 469.03 357.664 470.094C357.148 471.158 356.318 472.037 355.286 472.615C354.254 473.192 353.069 473.439 351.893 473.322C350.716 473.205 349.604 472.73 348.705 471.961C347.807 471.192 347.166 470.167 346.869 469.022C346.571 467.878 346.632 466.669 347.043 465.561C347.454 464.452 348.195 463.496 349.166 462.821C350.137 462.147 351.292 461.786 352.474 461.788C353.874 461.689 355.258 462.145 356.324 463.058C357.391 463.971 358.056 465.267 358.174 466.666V466.666Z" fill="#808080" stroke="#263238" stroke-linecap="round" stroke-linejoin="round"/>
<path id="el5ph032p62x9" d="M363.671 481.536C363.856 482.703 363.678 483.898 363.163 484.961C362.648 486.024 361.819 486.903 360.789 487.481C359.759 488.059 358.576 488.307 357.401 488.193C356.225 488.078 355.113 487.606 354.213 486.841C353.314 486.075 352.671 485.052 352.37 483.91C352.07 482.767 352.126 481.56 352.532 480.451C352.939 479.342 353.675 478.384 354.642 477.706C355.609 477.028 356.761 476.662 357.942 476.658C359.346 476.558 360.733 477.013 361.804 477.925C362.876 478.838 363.546 480.134 363.671 481.536V481.536Z" fill="#808080" stroke="#263238" stroke-linecap="round" stroke-linejoin="round"/>
<path id="elwrlyxvntfkq" d="M286.351 553.949H247.275L241.391 489.149H292.233L286.351 553.949Z" fill="#263238" stroke="#263238" stroke-linecap="round" stroke-linejoin="round"/>
<path id="elljcrfdeha8f" d="M290.302 510.463L245.392 533.329L247.276 553.95H268.176L288.461 530.65L290.302 510.463Z" fill="black" stroke="#263238" stroke-linecap="round" stroke-linejoin="round"/>
<path id="el6oll5z9yd58" d="M296.75 481.403H236.875V495.494H296.75V481.403Z" fill="black" stroke="#263238" stroke-linecap="round" stroke-linejoin="round"/>
<path id="el5z5zu4ttfuc" d="M402.022 554.827H331.695C330.483 554.894 329.27 554.713 328.13 554.295C326.99 553.877 325.947 553.231 325.066 552.396C324.184 551.562 323.482 550.556 323.002 549.441C322.522 548.326 322.274 547.125 322.274 545.911C322.274 544.696 322.522 543.495 323.002 542.38C323.482 541.265 324.184 540.259 325.066 539.425C325.947 538.59 326.99 537.944 328.13 537.526C329.27 537.108 330.483 536.927 331.695 536.994H402.022C403.234 536.927 404.447 537.108 405.587 537.526C406.727 537.944 407.77 538.59 408.651 539.425C409.533 540.259 410.235 541.265 410.715 542.38C411.195 543.495 411.443 544.696 411.443 545.911C411.443 547.125 411.195 548.326 410.715 549.441C410.235 550.556 409.533 551.562 408.651 552.396C407.77 553.231 406.727 553.877 405.587 554.295C404.447 554.713 403.234 554.894 402.022 554.827V554.827Z" fill="#263238" stroke="#263238" stroke-linecap="round" stroke-linejoin="round"/>
<path id="elgbkxz1enonq" d="M589.079 554.904H372.572L320.932 414.353H537.432L589.079 554.904Z" fill="#263238" stroke="#263238" stroke-linecap="round" stroke-linejoin="round"/>
<path id="elcz5qgn2fq8e" d="M575.349 540.297H390.459L346.379 420.289H531.243L575.349 540.297Z" fill="#808080" stroke="#263238" stroke-linecap="round" stroke-linejoin="round"/>
<path id="elv6leiqh2o0n" d="M611.636 605.101C606.615 612.486 600.931 619.397 594.654 625.748C574.839 643.651 557.799 664.405 544.096 687.326C524.688 720.231 511.165 753.859 498.312 782.971C485.459 812.083 462.18 865.816 450.541 882.178C444.473 890.878 437.961 899.259 431.03 907.289C431.03 907.289 411.803 907.728 389.04 905.715C366.277 903.702 356.857 899.598 356.573 905.534C356.289 911.47 372.058 927.755 383.259 930.594C394.46 933.433 409.067 937.769 412.474 941.15C415.881 944.531 420.216 948.402 425.946 945.924C431.676 943.446 448.735 919.574 467.807 903.134C486.879 886.694 509.642 870.409 530.237 832.084C550.832 793.759 551.916 771.848 566.369 757.447C580.822 743.046 596.048 720.464 614.475 708.566C632.902 696.668 687.899 674.628 705.475 651.788C723.051 628.948 713.888 600.998 696.984 591.01C680.08 581.022 624.901 577.409 611.636 605.101Z" fill="#263238" stroke="#263238" stroke-linecap="round" stroke-linejoin="round"/>
<path id="elkfuwu6pmu8g" d="M464.168 858.022C460.195 866.385 455.651 874.465 450.568 882.204C438.8 898.541 431.057 907.315 431.057 907.315C431.057 907.315 411.83 907.754 389.067 905.741C366.304 903.728 356.884 899.624 356.6 905.56C356.316 911.496 372.085 927.781 383.286 930.62C394.487 933.459 409.094 937.795 412.501 941.176C415.908 944.557 420.243 948.428 425.973 945.95C431.703 943.472 448.762 919.6 467.834 903.16C476.712 895.418 486.39 887.86 496.223 878.049C483.713 874.876 472.506 867.874 464.169 858.022H464.168Z" fill="white" stroke="#263238" stroke-linecap="round" stroke-linejoin="round"/>
<path id="eld8gh2e3zmfi" d="M425.971 945.95C429.051 943.89 431.794 941.366 434.101 938.466C418.616 935.395 410.719 927.627 403.647 925.566C397.191 923.662 391.02 920.902 385.297 917.359L393.04 905.977L389.117 905.641C366.354 903.628 356.934 899.525 356.65 905.46C356.366 911.395 372.135 927.681 383.336 930.52C394.537 933.359 409.144 937.695 412.551 941.076C415.958 944.457 420.371 948.428 425.971 945.95Z" fill="#FFC100" stroke="#263238" stroke-linecap="round" stroke-linejoin="round"/>
<g id="el6z4tw084x7e">
<path d="M452.735 677.778C455.742 690.714 460.183 703.275 465.975 715.226C475.111 733.498 495.216 752.674 509.849 763.642C524.482 774.61 571.505 816.626 594.809 849.971C597.725 854.152 586.576 868.243 572.872 880.579C559.168 892.915 553.232 897.479 560.536 899.754C567.84 902.029 585.209 901.122 602.578 886.514C619.947 871.906 631.354 862.306 636.825 850.383C639.561 844.447 624.489 837.117 615.353 829.375C606.217 821.633 572.405 770.455 561.905 746.785C551.405 723.115 524.922 689.233 505.282 677.361" fill="#263238"/>
<path d="M452.735 677.778C455.742 690.714 460.183 703.275 465.975 715.226C475.111 733.498 495.216 752.674 509.849 763.642C524.482 774.61 571.505 816.626 594.809 849.971C597.725 854.152 586.576 868.243 572.872 880.579C559.168 892.915 553.232 897.479 560.536 899.754C567.84 902.029 585.209 901.122 602.578 886.514C619.947 871.906 631.354 862.306 636.825 850.383C639.561 844.447 624.489 837.117 615.353 829.375C606.217 821.633 572.405 770.455 561.905 746.785C551.405 723.115 524.922 689.233 505.282 677.361" stroke="#263238" stroke-linecap="round" stroke-linejoin="round"/>
</g>
<path id="el9r7n0dfazya" d="M636.799 850.439C639.535 844.503 624.463 837.174 615.327 829.431C607.585 822.901 582.527 785.686 568.485 759.904L537.515 787.364C556.845 805.249 580.46 829.276 594.915 849.975C597.831 854.156 586.682 868.247 572.978 880.584C559.274 892.921 553.338 897.484 560.642 899.759C567.946 902.034 585.315 901.127 602.684 886.519C620.053 871.911 631.328 862.306 636.799 850.439Z" fill="white" stroke="#263238" stroke-linecap="round" stroke-linejoin="round"/>
<path id="el0uu4yr30eua9" d="M627.405 838.304C624.953 841.969 621.753 846.95 618.062 853.17C609.391 867.778 585.647 886.514 582.447 883.314C580.521 881.139 578.906 878.707 577.647 876.088C576.098 877.588 574.498 879.108 572.847 880.579C559.147 892.915 553.207 897.479 560.511 899.754C567.815 902.029 585.184 901.122 602.553 886.514C619.922 871.906 631.329 862.306 636.8 850.382C638.451 846.821 633.547 842.717 627.405 838.304Z" fill="#FFC100" stroke="#263238" stroke-linecap="round" stroke-linejoin="round"/>
<path id="elv3ohsivr02" d="M751.439 880.114H596.151V887.418H751.439V880.114Z" fill="white" stroke="#263238" stroke-linecap="round" stroke-linejoin="round"/>
<path id="elbpr2e5nmikp" d="M610.293 684.178L583.246 943.963C583.217 944.255 583.249 944.549 583.341 944.827C583.432 945.106 583.582 945.362 583.779 945.579C583.976 945.795 584.216 945.968 584.485 946.086C584.753 946.204 585.043 946.264 585.336 946.263V946.263C585.836 946.263 586.32 946.083 586.699 945.756C587.078 945.429 587.327 944.977 587.401 944.482L627.791 684.182L610.293 684.178Z" fill="white" stroke="#263238" stroke-linecap="round" stroke-linejoin="round"/>
<path id="elal3q0uph9ch" d="M734.534 684.178L761.71 943.963C761.743 944.253 761.715 944.547 761.626 944.826C761.537 945.104 761.39 945.36 761.195 945.578C761 945.795 760.761 945.968 760.494 946.087C760.226 946.205 759.937 946.265 759.645 946.263V946.263C759.143 946.268 758.657 946.09 758.277 945.762C757.897 945.434 757.649 944.979 757.58 944.482L717.191 684.178H734.534Z" fill="white" stroke="#263238" stroke-linecap="round" stroke-linejoin="round"/>
<path id="elos9vslnw0zl" d="M685.215 684.178L686.48 944.17C686.473 944.722 686.251 945.25 685.86 945.641C685.469 946.031 684.941 946.254 684.389 946.26C683.855 946.261 683.341 946.054 682.955 945.683C682.57 945.313 682.344 944.807 682.324 944.273L667.794 684.178H685.215Z" fill="white" stroke="#263238" stroke-linecap="round" stroke-linejoin="round"/>
<path id="elhb2pv7xn66l" d="M751.037 644.898H591.52C588.775 644.898 586.55 647.123 586.55 649.868V681.944C586.55 684.689 588.775 686.914 591.52 686.914H751.037C753.782 686.914 756.007 684.689 756.007 681.944V649.868C756.007 647.123 753.782 644.898 751.037 644.898Z" fill="black"/>
<g id="elx3yy5utm3wh">
<g id="elw69a5drau5a">
<path id="Path 195" opacity="0.2" d="M743.258 644.898H602.655L598.474 653.673C598.474 653.673 728.238 655.944 728.238 663.428C728.238 670.912 730.483 680.694 705.011 680.694C684.364 680.694 615.069 681.675 589.416 682.036C590.441 683.321 591.702 684.398 593.132 685.21L600.668 686.91H743.258C746.679 686.91 749.96 685.551 752.38 683.132C754.799 680.712 756.158 677.431 756.158 674.01V657.647C756.118 654.252 754.742 651.009 752.327 648.623C749.912 646.236 746.653 644.898 743.258 644.898V644.898Z" fill="black"/>
</g>
</g>
<path id="ellyqcr0zr1r" d="M751.037 644.898H591.52C588.775 644.898 586.55 647.123 586.55 649.868V681.944C586.55 684.689 588.775 686.914 591.52 686.914H751.037C753.782 686.914 756.007 684.689 756.007 681.944V649.868C756.007 647.123 753.782 644.898 751.037 644.898Z" stroke="#263238" stroke-linecap="round" stroke-linejoin="round"/>
<g id="eld93p83ld8wm">
<path d="M456.373 694.192C453.173 683.692 439.933 662.68 503.421 618.832C536.972 595.605 609.854 577.72 609.854 577.72L616.693 569.978C616.693 569.978 636.333 590.625 674.71 589.178C713.087 587.731 736.83 570.906 741.398 572.278C745.966 573.65 746.405 585.518 744.598 607.893C742.791 630.268 740.469 641.702 722.661 647.173C704.853 652.644 665.573 654.473 637.261 654.038C623.217 653.996 609.184 653.229 595.219 651.738C595.219 651.738 534.49 690.114 496.582 692.85" fill="#263238"/>
<path d="M456.373 694.192C453.173 683.692 439.933 662.68 503.421 618.832C536.972 595.605 609.854 577.72 609.854 577.72L616.693 569.978C616.693 569.978 636.333 590.625 674.71 589.178C713.087 587.731 736.83 570.906 741.398 572.278C745.966 573.65 746.405 585.518 744.598 607.893C742.791 630.268 740.469 641.702 722.661 647.173C704.853 652.644 665.573 654.473 637.261 654.038C623.217 653.996 609.184 653.229 595.219 651.738C595.219 651.738 534.49 690.114 496.582 692.85" stroke="#263238" stroke-linecap="round" stroke-linejoin="round"/>
</g>
<path id="el464x8f4a2yw" d="M597.054 442.562C594.293 443.414 510.726 459.905 503.422 458.537C496.118 457.169 476.943 440.729 470.078 441.168C463.213 441.607 449.431 443.929 448.167 447.568C446.903 451.207 451.367 463.568 451.367 463.568C451.367 463.568 446.799 470.407 449.067 473.607C451.335 476.807 464.552 469.039 464.552 469.039C464.552 469.039 479.624 480.007 486.463 477.711C493.302 475.415 500.632 472.704 500.632 472.704C500.632 472.704 607.968 479.079 609.332 479.543C610.696 480.007 623.939 482.743 625.307 463.568C626.675 444.393 613.055 437.529 597.054 442.562Z" fill="white" stroke="#263238" stroke-linecap="round" stroke-linejoin="round"/>
<path id="el49i392w5gcr" d="M451.367 463.57L470.078 448.033" stroke="#263238" stroke-linecap="round" stroke-linejoin="round"/>
<path id="eludnpsxxbbgp" d="M458.206 456.705L468.245 425.193L472.374 426.093L467.341 448.933L458.206 456.705Z" fill="#263238"/>
<path id="elqxiwvltuo3" d="M531.63 475.906C531.63 475.906 420.655 506.486 402.847 504.295C385.039 502.104 379.62 494.23 375.439 494.23C371.258 494.23 359.954 499.73 354.792 499.263C349.63 498.796 343.849 497.431 343.849 500.631C343.849 503.831 348.417 508.864 351.149 508.864C353.881 508.864 364.849 508.399 364.849 508.399C364.849 508.399 343.377 514.799 342.449 518.899C342.251 519.861 342.25 520.854 342.445 521.817C342.64 522.78 343.028 523.694 343.584 524.503C344.141 525.313 344.856 526.002 345.685 526.529C346.514 527.056 347.442 527.41 348.411 527.57C350.594 527.965 352.639 528.916 354.347 530.332C355.273 533.919 356.819 537.316 358.915 540.371C361.651 543.571 369.858 544.939 378.994 543.107C388.13 541.275 404.131 533.068 407.77 530.771C411.409 528.474 522.41 518.435 530.643 516.628C538.876 514.821 548.915 514.796 552.115 509.299C555.315 503.802 531.63 475.906 531.63 475.906Z" fill="white"/>
<g id="elxxn0tmki5z">
<path id="eltxy7shedst" d="M397.425 526.439C378.353 526.439 382.585 507.367 376.236 510.567C370.687 513.328 349.036 516.09 342.892 523.084C343.387 524.238 344.155 525.255 345.131 526.047C346.107 526.838 347.26 527.38 348.492 527.626C350.675 528.021 352.72 528.972 354.428 530.387C355.354 533.974 356.9 537.371 358.996 540.426C361.732 543.626 369.939 544.994 379.075 543.162C388.211 541.33 404.212 533.123 407.851 530.826C411.49 528.529 522.491 518.49 530.724 516.683C537.357 515.183 545.202 514.902 549.641 511.96L552.222 509.379L540.428 497.869C540.428 497.869 416.577 526.439 397.425 526.439Z" fill="#92E3A9"/>
<g id="elxhwhv04tmx">
<path id="Path 196" d="M397.425 526.439C378.353 526.439 382.585 507.367 376.236 510.567C370.687 513.328 349.036 516.09 342.892 523.084C343.387 524.238 344.155 525.255 345.131 526.047C346.107 526.838 347.26 527.38 348.492 527.626C350.675 528.021 352.72 528.972 354.428 530.387C355.354 533.974 356.9 537.371 358.996 540.426C361.732 543.626 369.939 544.994 379.075 543.162C388.211 541.33 404.212 533.123 407.851 530.826C411.49 528.529 522.491 518.49 530.724 516.683C537.357 515.183 545.202 514.902 549.641 511.96L552.222 509.379L540.428 497.869C540.428 497.869 416.577 526.439 397.425 526.439Z" fill="#F1F1F1"/>
</g>
</g>
<path id="el6buigx1bgep" d="M531.63 475.906C531.63 475.906 420.655 506.486 402.847 504.295C385.039 502.104 379.62 494.23 375.439 494.23C371.258 494.23 359.954 499.73 354.792 499.263C349.63 498.796 343.849 497.431 343.849 500.631C343.849 503.831 348.417 508.864 351.149 508.864C353.881 508.864 364.849 508.399 364.849 508.399C364.849 508.399 343.377 514.799 342.449 518.899C342.251 519.861 342.25 520.854 342.445 521.817C342.64 522.78 343.028 523.694 343.584 524.503C344.141 525.313 344.856 526.002 345.685 526.529C346.514 527.056 347.442 527.41 348.411 527.57C350.594 527.965 352.639 528.916 354.347 530.332C355.273 533.919 356.819 537.316 358.915 540.371C361.651 543.571 369.858 544.939 378.994 543.107C388.13 541.275 404.131 533.068 407.77 530.771C411.409 528.474 522.41 518.435 530.643 516.628C538.876 514.821 548.915 514.796 552.115 509.299C555.315 503.802 531.63 475.906 531.63 475.906Z" stroke="#263238" stroke-linecap="round" stroke-linejoin="round"/>
<path id="elp8fys9u182s" d="M625.365 364.002C625.365 364.002 615.326 391.385 602.551 409.657C589.776 427.929 584.279 447.13 592.486 467.674C594.671 473.553 598.144 478.869 602.65 483.232C607.157 487.595 612.582 490.894 618.529 492.888C618.529 492.888 612.129 553.176 613.961 569.177C615.793 585.178 640.44 603.889 677.449 605.308C714.458 606.727 746.406 593.438 746.406 580.638C746.406 567.838 720.391 499.807 720.391 485.638C720.391 471.469 722.662 427.182 710.326 387.567C697.99 347.952 654.606 334.761 625.365 364.002Z" fill="black"/>
<g id="ely07vyo3qi4g">
<g id="elgu6nioovemj">
<path id="Path 198" opacity="0.2" d="M710.326 387.28C703.693 365.885 688.026 352.31 670.426 348.903C661.935 350.787 638.734 356.203 632.953 357.575C630.249 359.502 627.711 361.652 625.365 364.001C625.365 364.001 615.326 391.383 602.551 409.656C593.957 421.915 588.692 434.587 588.615 447.775C622.321 455.75 673.782 468.731 668.62 470.175C661.213 472.291 629.443 455.335 638.966 465.942C648.489 476.549 699.357 525.301 684.517 521.017C669.677 516.733 636.849 481.817 645.34 498.77C653.831 515.723 677.11 543.263 669.703 543.263C662.296 543.263 623.093 504.063 636.849 527.363C650.605 550.663 713.112 587.754 692.982 593.045C681.37 596.093 656.723 595.293 642.425 597.693C653.526 602.301 665.38 604.83 677.395 605.152C714.378 606.52 746.355 593.28 746.355 580.479C746.355 567.678 720.34 499.648 720.34 485.479C720.34 471.31 722.611 427.024 710.326 387.28Z" fill="black"/>
</g>
</g>
<path id="elbp7n9j6x2og" d="M625.365 364.002C625.365 364.002 615.326 391.385 602.551 409.657C589.776 427.929 584.279 447.13 592.486 467.674C594.671 473.553 598.144 478.869 602.65 483.232C607.157 487.595 612.582 490.894 618.529 492.888C618.529 492.888 612.129 553.176 613.961 569.177C615.793 585.178 640.44 603.889 677.449 605.308C714.458 606.727 746.406 593.438 746.406 580.638C746.406 567.838 720.391 499.807 720.391 485.638C720.391 471.469 722.662 427.182 710.326 387.567C697.99 347.952 654.606 334.761 625.365 364.002Z" stroke="#263238" stroke-linecap="round" stroke-linejoin="round"/>
<path id="el79oex52rjqr" d="M630.992 474.822C630.992 474.822 664.543 529.022 713.578 544.504" stroke="#263238" stroke-linecap="round" stroke-linejoin="round"/>
<path id="el6ysxvc6l0s" d="M627.121 483.855C627.121 483.855 640.021 526.439 673.576 547.085" stroke="#263238" stroke-linecap="round" stroke-linejoin="round"/>
<path id="el1zb3n5b3xqo" d="M634.037 449.736C634.037 449.736 664.357 436.523 676.801 427.98" stroke="#263238" stroke-linecap="round" stroke-linejoin="round"/>
<path id="elm8xra2hwi6" d="M621.598 452.859C621.598 452.859 632.489 455.182 660.465 452.859" stroke="#263238" stroke-linecap="round" stroke-linejoin="round"/>
<path id="elqd2rq5ntsi" d="M622.627 370.841C615.584 375.331 609.14 380.699 603.452 386.816C592.952 397.784 542.235 474.564 542.235 474.564C542.235 474.564 557.307 506.102 561.875 507.005C566.443 507.908 645.932 439.905 653.236 431.645C660.54 423.385 665.108 408.418 662.836 401.94" fill="#FFC100"/>
<g id="elllis9u4voj">
<g id="elddze0yi5y1">
<path id="Path 200" opacity="0.2" d="M653.239 431.594C660.539 423.361 665.111 408.367 662.839 401.889L644.774 387.952L638.993 393.914C638.993 393.914 638.606 417.296 617.805 429.914C597.004 442.532 588.151 442.637 584.977 458.514C581.803 474.391 592.384 478.644 579.686 480.761C566.988 482.878 558.497 483.935 558.497 492.426C558.58 496.63 558.899 500.826 559.452 504.995C560.056 505.858 560.886 506.537 561.852 506.956C566.446 507.857 645.935 439.801 653.239 431.594Z" fill="black"/>
</g>
</g>
<path id="elaf21wuik4cc" d="M622.627 370.841C615.584 375.331 609.14 380.699 603.452 386.816C592.952 397.784 542.235 474.564 542.235 474.564C542.235 474.564 557.307 506.102 561.875 507.005C566.443 507.908 645.932 439.905 653.236 431.645C660.54 423.385 665.108 408.418 662.836 401.94" stroke="#263238" stroke-linecap="round" stroke-linejoin="round"/>
<path id="el2lkce1v251j" d="M524.894 479.08C524.894 479.08 539.063 512.889 542.237 516.553C545.411 520.217 562.337 517.921 567.813 513.792C573.289 509.663 572.381 501.481 572.381 501.481C572.381 501.481 551.373 464.472 549.154 462.769C546.935 461.066 545.954 465.069 536.254 468.269C526.554 471.469 523.062 472.705 524.894 479.08Z" fill="white" stroke="#263238" stroke-linecap="round" stroke-linejoin="round"/>
<path id="el52aorkeiqjw" d="M547.735 277.673C547.735 277.673 546.806 290.913 549.103 295.016C551.4 299.119 557.774 303.249 557.774 308.716C557.774 314.183 553.206 321.616 554.574 325.616C555.942 329.616 563.274 330.184 563.274 330.184C563.274 330.184 576.952 347.084 581.082 353.024C585.212 358.964 587.018 356.663 593.418 354.856C599.818 353.049 613.497 341.156 621.265 332.016C629.033 322.876 616.103 295.007 599.354 276.296C582.605 257.585 557.312 258.024 551.841 263.396C546.37 268.768 547.735 277.673 547.735 277.673Z" fill="white"/>
<g id="elshx70m0vvy">
<path id="elettyto2zr64" d="M583.943 264.873C581.827 275.196 579.71 292.926 586.059 304.927C595.608 322.993 603.015 332.464 597.724 347.304C596.769 349.885 595.788 352.259 594.833 354.324C601.646 351.408 614.033 340.517 621.261 332.024C629.003 322.888 616.099 295.015 599.35 276.304C595.028 271.504 589.79 267.618 583.943 264.873V264.873Z" fill="#92E3A9"/>
<g id="els85i81pry7b">
<path id="Path 202" opacity="0.5" d="M583.943 264.873C581.827 275.196 579.71 292.926 586.059 304.927C595.608 322.993 603.015 332.464 597.724 347.304C596.769 349.885 595.788 352.259 594.833 354.324C601.646 351.408 614.033 340.517 621.261 332.024C629.003 322.888 616.099 295.015 599.35 276.304C595.028 271.504 589.79 267.618 583.943 264.873V264.873Z" fill="white"/>
</g>
<path id="el8obrgj0r73n" d="M557.774 297.314C557.774 297.314 557.774 290.449 566.007 295.014" stroke="#263238" stroke-linecap="round" stroke-linejoin="round"/>
<path id="elcfdovtkeah7" d="M563.633 303.662L564.717 309.982C564.717 309.982 569.724 311.711 573.417 305.182" stroke="#263238" stroke-linecap="round" stroke-linejoin="round"/>
</g>
<path id="el31gqan1k0eu" d="M547.735 277.673C547.735 277.673 546.806 290.913 549.103 295.016C551.4 299.119 557.774 303.249 557.774 308.716C557.774 314.183 553.206 321.616 554.574 325.616C555.942 329.616 563.274 330.184 563.274 330.184C563.274 330.184 576.952 347.084 581.082 353.024C585.212 358.964 587.018 356.663 593.418 354.856C599.818 353.049 613.497 341.156 621.265 332.016C629.033 322.876 616.103 295.007 599.354 276.296C582.605 257.585 557.312 258.024 551.841 263.396C546.37 268.768 547.735 277.673 547.735 277.673Z" stroke="#263238" stroke-linecap="round" stroke-linejoin="round"/>
<path id="el9bzebtqebml" d="M533.566 257.569V259.401L532.74 281.777L557.387 284.977L562.887 275.377V285.877C570.492 285.24 578.142 286.334 585.263 289.077C597.135 293.645 612.207 326.086 611.303 339.325C610.399 352.564 598.967 355.3 600.335 375.457C601.703 395.614 632.282 415.588 655.51 402.817C678.738 390.046 682.479 373.576 692.054 376.777C701.629 379.978 716.262 399.617 725.398 371.744C734.534 343.871 730.431 326.089 708.958 303.249C687.485 280.409 670.607 282.241 667.846 263.969C665.085 245.697 659.175 221.024 639.457 207.191C619.739 193.358 591.51 192.588 567.194 203.088C542.878 213.588 533.566 245.697 533.566 257.569Z" fill="#263238"/>
<g id="el0clja5o7gco">
<path id="elzndni01edu" d="M547.296 268.046C547.134 268.07 546.968 268.07 546.806 268.046C544.225 267.452 543.812 262.884 543.554 251.787C543.554 248.896 543.425 245.928 543.244 243.554V242.96C541.05 245.541 536.405 256.509 532.921 266.187L530.495 265.309C539.838 239.294 542.883 239.681 543.864 239.836C545.645 240.068 545.825 242.417 545.903 243.294C546.084 245.72 546.161 248.74 546.213 251.63C546.213 256.224 546.497 263.76 547.452 265.33C548.7 264.046 549.683 262.529 550.343 260.865C552.924 255.497 555.505 253.123 557.879 253.123C560.924 253.123 562.524 257.304 563.66 260.272C563.935 261.005 564.254 261.72 564.615 262.414C565.751 262.724 569.777 258.62 571.915 256.401L573.799 254.491C574.232 253.927 574.786 253.467 575.42 253.145C576.054 252.824 576.753 252.649 577.464 252.633C578.909 252.865 579.606 254.207 580.354 255.601C581.038 257.108 582.031 258.453 583.27 259.55C584.096 260.195 584.509 260.092 584.689 260.066C586.547 259.601 588.789 254.595 591.399 248.814C591.993 247.446 592.638 246.027 593.335 244.53C594.032 243.033 595.348 240.53 597.258 240.71C599.658 240.891 600.768 244.659 602.42 250.362C603.428 254.914 605.172 259.271 607.582 263.262C608.176 263.985 608.976 264.81 609.724 264.733C611.737 264.398 613.957 258.433 615.299 254.874C615.893 253.094 616.635 251.368 617.518 249.712C617.714 249.295 618.024 248.943 618.413 248.696C618.801 248.45 619.252 248.318 619.712 248.318C621.622 248.318 622.938 250.899 624.719 254.409C626.061 256.99 627.893 260.629 629.419 261.222C629.496 261.258 629.579 261.277 629.664 261.277C629.749 261.277 629.832 261.258 629.909 261.222C630.916 260.706 631.767 257.377 632.49 254.722C633.099 251.735 634.16 248.858 635.635 246.191C636.016 245.565 636.526 245.027 637.131 244.613C637.737 244.199 638.423 243.919 639.145 243.791C642.526 243.249 646.294 246.165 648.797 248.127C648.668 246.811 648.384 245.004 648.152 243.427C646.862 234.833 646.5 230.678 648.642 229.491C649.649 228.949 650.836 229.259 652.178 230.446C654.501 232.644 656.707 234.962 658.787 237.391C663.51 242.708 670.687 250.708 673.575 249.934C674.375 249.728 674.814 248.489 675.02 247.508L677.601 248.024C677.059 250.605 675.949 251.998 674.301 252.437C670.146 253.521 664.494 247.611 656.906 239.12C654.849 236.705 652.66 234.404 650.351 232.229C650.165 232.049 649.957 231.893 649.732 231.764C649.554 235.493 649.84 239.229 650.584 242.887C651.513 248.952 651.694 250.629 650.584 251.326C650.327 251.495 650.027 251.585 649.719 251.585C649.412 251.585 649.112 251.495 648.855 251.326C648.416 251.016 647.848 250.603 647.229 250.087C645.19 248.513 641.783 245.906 639.487 246.242C639.116 246.31 638.764 246.458 638.456 246.677C638.148 246.895 637.892 247.179 637.706 247.507C636.406 249.939 635.467 252.547 634.919 255.249C633.912 259.069 633.061 262.372 631.019 263.404C630.615 263.593 630.174 263.691 629.728 263.691C629.282 263.691 628.842 263.593 628.438 263.404C626.012 262.449 624.18 258.836 622.399 255.378C621.695 253.772 620.83 252.242 619.818 250.81V250.81C619.017 252.361 618.344 253.975 617.805 255.636C615.895 260.798 613.727 266.579 610.192 267.121C609.284 267.181 608.377 266.985 607.575 266.556C606.772 266.127 606.105 265.483 605.65 264.695C603.021 260.478 601.127 255.846 600.05 250.995C599.482 248.276 598.489 245.663 597.108 243.252C596.592 243.98 596.151 244.758 595.792 245.575C595.092 247.046 594.45 248.491 593.856 249.833C590.63 257.033 588.488 261.782 585.391 262.533C584.748 262.662 584.084 262.639 583.451 262.464C582.819 262.289 582.237 261.968 581.752 261.526C580.239 260.215 579.025 258.596 578.19 256.777C577.924 256.189 577.577 255.642 577.158 255.151C577.158 255.151 576.745 255.151 575.739 256.261L573.881 258.171C569.597 262.558 566.861 265.191 564.513 265.01C564.121 264.973 563.743 264.847 563.407 264.641C563.072 264.435 562.788 264.155 562.577 263.823C562.091 263.004 561.684 262.139 561.364 261.242C560.641 259.332 559.248 255.797 557.854 255.742C557.441 255.742 555.712 256.129 552.692 262.042C550.471 266.24 548.896 268.046 547.296 268.046Z" fill="#575757"/>
<path id="elczp4di0lae" d="M598.732 371.744C598.732 371.744 605.132 347.923 611.632 355.485C618.132 363.047 622.652 365.37 623.246 358.969C623.84 352.568 623.246 343.278 629.646 352.001C636.046 360.724 651.712 369.422 652.873 356.053C654.034 342.684 655.789 324.67 663.351 333.987C670.913 343.304 677.287 350.246 677.881 345.007C678.475 339.768 683.688 335.716 686.011 341.523C688.334 347.33 690.089 353.163 691.818 339.794C693.547 326.425 685.418 311.894 694.141 315.379C702.864 318.864 707.041 330.479 707.041 324.102C707.041 317.725 696.563 310.14 705.88 312.463C715.197 314.786 716.332 320.618 717.494 317.134C718.656 313.65 712.332 305.495 720.41 305.495" stroke="#575757" stroke-miterlimit="10"/>
</g>
<path id="el6jtl7wpwjm9" d="M533.566 257.569V259.401L532.74 281.777L557.387 284.977L562.887 275.377V285.877C570.492 285.24 578.142 286.334 585.263 289.077C597.135 293.645 612.207 326.086 611.303 339.325C610.399 352.564 598.967 355.3 600.335 375.457C601.703 395.614 632.282 415.588 655.51 402.817C678.738 390.046 682.479 373.576 692.054 376.777C701.629 379.978 716.262 399.617 725.398 371.744C734.534 343.871 730.431 326.089 708.958 303.249C687.485 280.409 670.607 282.241 667.846 263.969C665.085 245.697 659.175 221.024 639.457 207.191C619.739 193.358 591.51 192.588 567.194 203.088C542.878 213.588 533.566 245.697 533.566 257.569Z" stroke="#263238" stroke-linecap="round" stroke-linejoin="round"/>
</g>
<g id="mawahib  Floor  inject 91">
<path id="elrlkkoa2338m" d="M0.575012 948.041H945" stroke="#263238" stroke-miterlimit="10"/>
</g>
</g>
</g>
</svg>
