<svg xmlns="http://www.w3.org/2000/svg" xmlns:xlink="http://www.w3.org/1999/xlink" width="1024.078" height="1028.5" viewBox="0 0 1024.078 1028.5">
  <defs>
    <clipPath id="clip-path">
      <rect id="Rectangle_900" data-name="Rectangle 900" width="183.749" height="45.559" rx="4.97" fill="#92e3a9" stroke="#263238" stroke-linecap="round" stroke-linejoin="round" stroke-width="1"/>
    </clipPath>
    <clipPath id="clip-path-2">
      <path id="Path_197" data-name="Path 197" d="M404.933,251.42S284.6,284.582,265.288,282.2s-25.186-10.914-29.72-10.914-16.791,5.961-22.388,5.457-11.866-1.987-11.866,1.483,4.953,8.927,7.92,8.927,14.86-.5,14.86-.5-23.283,6.94-24.291,11.39a7.92,7.92,0,0,0,6.464,9.4,13.993,13.993,0,0,1,6.437,2.995,34.477,34.477,0,0,0,4.953,10.886c2.966,3.47,11.866,4.953,21.772,2.966s27.257-10.886,31.2-13.377,124.309-13.377,133.236-15.336,19.813-1.987,23.283-7.948S404.933,251.42,404.933,251.42Z" transform="translate(-199.642 -251.42)" fill="#fff" stroke="#263238" stroke-linecap="round" stroke-linejoin="round" stroke-width="1"/>
    </clipPath>
    <clipPath id="clip-path-3">
      <path id="Path_199" data-name="Path 199" d="M334.937,219.1s-10.886,29.692-24.739,49.505-19.813,40.634-10.914,62.91a45.587,45.587,0,0,0,28.237,27.341s-6.94,65.373-4.953,82.723,28.712,37.64,68.843,39.179S466.186,467.885,466.186,454s-28.209-87.649-28.209-103.012,2.463-63.386-10.914-106.343S366.643,187.393,334.937,219.1Z" transform="translate(-295.077 -201.922)" fill="#92e3a9" stroke="#263238" stroke-linecap="round" stroke-linejoin="round" stroke-width="1"/>
    </clipPath>
    <clipPath id="clip-path-4">
      <path id="Path_201" data-name="Path 201" d="M364.283,210.71a106.785,106.785,0,0,0-20.793,17.323c-11.39,11.894-66.38,95.148-66.38,95.148s16.343,34.2,21.3,35.177,91.147-72.761,99.066-81.716,12.873-25.186,10.41-32.211" transform="translate(-277.11 -210.71)" fill="#92e3a9" stroke="#263238" stroke-linecap="round" stroke-linejoin="round" stroke-width="1"/>
    </clipPath>
    <clipPath id="clip-path-5">
      <path id="Path_203" data-name="Path 203" d="M279.37,186.8s-1.007,14.356,1.483,18.806,9.4,8.927,9.4,14.86-4.953,13.992-3.47,18.33,9.431,4.953,9.431,4.953,14.832,18.33,19.31,24.767,6.436,3.946,13.377,1.987,21.772-14.86,30.2-24.767-5.6-40.13-23.759-60.419-45.587-19.813-51.52-13.992S279.37,186.8,279.37,186.8Z" transform="translate(-279.168 -167.833)" fill="#fff" stroke="#263238" stroke-linecap="round" stroke-linejoin="round" stroke-width="1"/>
    </clipPath>
    <clipPath id="clip-path-6">
      <path id="Path_204" data-name="Path 204" d="M274.326,209.78v1.987l-.9,24.263,26.726,3.47,5.961-10.41v11.39a54.794,54.794,0,0,1,24.263,3.47c12.873,4.953,29.216,40.13,28.237,54.486s-13.377,17.323-11.894,39.179,34.645,43.516,59.832,29.664,29.244-31.707,39.627-28.237,26.25,24.767,36.157-5.457,5.457-49.505-17.826-74.272-41.585-22.78-44.58-42.593-9.4-46.567-30.783-61.567-52-15.839-78.358-4.45S274.326,196.907,274.326,209.78Z" transform="translate(-273.43 -142.933)" fill="#263238" stroke="#263238" stroke-linecap="round" stroke-linejoin="round" stroke-width="1"/>
    </clipPath>
  </defs>
  <g id="_01" data-name="01" transform="translate(-67.23 -67.019)">
    <g id="mawahib--background-simple--inject-91" transform="translate(92.298 67.019)">
      <path id="els9e9chjssin" d="M83.526,467.15s-41.977,179.1,74.86,335.287,320.4,216.77,484.138,270.278,316.929-8.255,374.41-145.8S958.305,715.32,932.7,535.685s-5.177-231.351-124.617-368.141S443.5,34.056,277.769,174.456,83.526,467.15,83.526,467.15Z" transform="translate(-76.188 -67.019)" fill="#92e3a9"/>
      <g id="elgqvocc40umt">
        <path id="Path_191" data-name="Path 191" d="M83.526,467.15s-41.977,179.1,74.86,335.287,320.4,216.77,484.138,270.278,316.929-8.255,374.41-145.8S958.305,715.32,932.7,535.685s-5.177-231.351-124.617-368.141S443.5,34.056,277.769,174.456,83.526,467.15,83.526,467.15Z" transform="translate(-76.188 -67.019)" fill="#ffecb3"/>
      </g>
    </g>
    <g id="mawahib--Plants--inject-91" transform="translate(883.016 549.23)">
      <path id="el07csi0hap5hq" d="M438.142,293.061s0-11.7-16.4-27.985S394.85,239.33,394.85,239.33s-8.2,26.893,7,43.293a289.229,289.229,0,0,0,36.38,31.6Z" transform="translate(-297.77 -239.33)" fill="#92e3a9"/>
      <path id="el8rjjp03uyod" d="M429.64,319.181s0-11.7-16.371-27.985-26.921-25.746-26.921-25.746-8.2,26.725,7.024,43.209a287.807,287.807,0,0,0,36.38,31.6Z" transform="translate(-313.054 -192.354)" fill="#92e3a9"/>
      <path id="elhbd5n6t9ej7" d="M409.861,297.134s1.231-11.642,19.254-26.222S458.75,248.16,458.75,248.16s5.289,27.649-11.558,42.313a286.828,286.828,0,0,1-39.4,27.593Z" transform="translate(-270.524 -223.449)" fill="#92e3a9"/>
      <path id="elawoxtezaz2c" d="M401.04,324.539s2.435-11.446,21.884-24.039,31.735-19.589,31.735-19.589,2.351,27.985-15.951,40.886a288.607,288.607,0,0,1-41.977,23.283Z" transform="translate(-290.415 -164.549)" fill="#92e3a9"/>
      <path id="elzzqh651ptc" d="M400.272,364.661s0-11.7,16.371-27.985,26.921-25.746,26.921-25.746,8.2,26.921-7.024,43.321a290.032,290.032,0,0,1-36.38,31.595Z" transform="translate(-284.246 -110.558)" fill="#92e3a9"/>
      <path id="elutxwprtxwan" d="M425.994,376.54s1.651-11.586-12.229-30.14-22.975-29.3-22.975-29.3-11.95,25.466.784,43.852A287.484,287.484,0,0,0,423,397.333Z" transform="translate(-310.248 -99.462)" fill="#92e3a9"/>
      <path id="elb0aj5lal5gu" d="M394.4,397.191s0-11.7,16.371-27.985,26.921-25.746,26.921-25.746,8.2,26.921-7.024,43.293a287.365,287.365,0,0,1-36.381,31.595Z" transform="translate(-294.803 -52.054)" fill="#92e3a9"/>
      <path id="elxi9kq9hj97" d="M398.441,425.24s-2.938-11.334,8.759-31.315S426.79,362.19,426.79,362.19s14.748,23.955,4.17,43.684a285.654,285.654,0,0,1-27.089,39.739Z" transform="translate(-287.928 -18.368)" fill="#92e3a9"/>
      <path id="el1luupdwx2cm" d="M437.084,257.46a334.332,334.332,0,0,1-4.478,36.38c-6.493,33.442-22.668,55.046-29.16,85.27s12.117,69.151,7.136,107.994-20.093,60.391-15.756,86.305,27.061,96.044,27.061,96.044" transform="translate(-295.228 -206.724)" fill="none" stroke="#263238" stroke-linecap="round" stroke-linejoin="round" stroke-width="0.5"/>
      <line id="elbz5zdvfrdf8" y1="13.573" x2="17.658" transform="translate(139.169 67.891)" fill="none" stroke="#263238" stroke-linecap="round" stroke-linejoin="round" stroke-width="0.5"/>
      <line id="elzpago930j1c" x1="7.388" y1="13.153" transform="translate(132.621 52.696)" fill="none" stroke="#263238" stroke-linecap="round" stroke-linejoin="round" stroke-width="0.5"/>
      <path id="el8gtjoj9teme" d="M397.76,314.664s14.776-11.194,29.972-22.164" transform="translate(-288.563 -143.704)" fill="none" stroke="#263238" stroke-linecap="round" stroke-linejoin="round" stroke-width="0.5"/>
      <path id="el662fdv3f7zu" d="M417.288,317.988s-12.313-24.151-26.278-40.158" transform="translate(-300.702 -170.088)" fill="none" stroke="#263238" stroke-linecap="round" stroke-linejoin="round" stroke-width="0.5"/>
      <path id="elgyxs42ak1nc" d="M400.4,363.2A182.857,182.857,0,0,1,432.023,321" transform="translate(-283.814 -92.448)" fill="none" stroke="#263238" stroke-linecap="round" stroke-linejoin="round" stroke-width="0.5"/>
      <path id="el7spveuqjpkw" d="M416.016,370.776a208.419,208.419,0,0,0-16.035-30.391C391.361,327.651,390.13,326,390.13,326" transform="translate(-302.285 -83.455)" fill="none" stroke="#263238" stroke-linecap="round" stroke-linejoin="round" stroke-width="0.5"/>
      <path id="el9tc235j22m4" d="M394.33,402.165a194.7,194.7,0,0,1,13.293-26.922A170.094,170.094,0,0,1,424.89,352.66" transform="translate(-294.731 -35.508)" fill="none" stroke="#263238" stroke-linecap="round" stroke-linejoin="round" stroke-width="0.5"/>
      <path id="eltkzv26w4ff" d="M400.29,430.236a50.12,50.12,0,0,1,4.422-25.914c6.157-11.922,13.153-27.509,16.035-33.582" transform="translate(-284.432 -2.991)" fill="none" stroke="#263238" stroke-linecap="round" stroke-linejoin="round" stroke-width="0.5"/>
      <path id="eluxbl8fc6zd" d="M370.6,339.111s-1.259-7.332,7.22-19.393,13.992-19.058,13.992-19.058,8.06,15.979.308,27.985a181.1,181.1,0,0,1-19.31,23.759Z" transform="translate(-337.524 -129.029)" fill="#92e3a9"/>
      <path id="elzq7r39wd6xi" d="M378.762,354.589s-1.259-7.36,7.248-19.394S400,316.11,400,316.11s8.06,16.007.28,27.985a183.274,183.274,0,0,1-19.31,23.759Z" transform="translate(-322.848 -101.242)" fill="#92e3a9"/>
      <path id="ele66rt2fj4q" d="M394.617,335.16S392.6,328,379.7,320.8s-20.961-11.054-20.961-11.054-.308,17.91,11.838,25.186a183.341,183.341,0,0,0,27.733,13.041Z" transform="translate(-358.74 -112.681)" fill="#92e3a9"/>
      <path id="elt1dlxankksh" d="M406.007,350.89s-2.8-6.912-16.343-12.705-22.024-8.815-22.024-8.815,1.567,17.854,14.44,23.9a182.061,182.061,0,0,0,28.936,10.047Z" transform="translate(-342.733 -77.394)" fill="#92e3a9"/>
      <path id="elexknc4r0hr" d="M405.053,377.018s-1.259-7.332-13.321-15.839-19.589-13.209-19.589-13.209-2.211,17.77,9.095,26.39a183.737,183.737,0,0,0,26.194,15.867Z" transform="translate(-334.95 -43.942)" fill="#92e3a9"/>
      <path id="el58phxvopsej" d="M384.984,389.91s-2.295-7.08,4.394-20.233S400.572,348.8,400.572,348.8s10.242,14.692,4.254,27.593a182.409,182.409,0,0,1-15.756,26.278Z" transform="translate(-312.223 -42.45)" fill="#92e3a9"/>
      <path id="el6ufnbj6r9jl" d="M393.043,404.5s.84-7.388,12.4-16.567S424.33,373.6,424.33,373.6s3.218,17.63-7.584,26.865a182.031,182.031,0,0,1-25.186,17.351Z" transform="translate(-299.713 2.153)" fill="#92e3a9"/>
      <path id="el348ogvqu6a9" d="M412.262,396.806s-1.259-7.332-13.321-15.84-19.589-13.237-19.589-13.237-2.211,17.77,9.123,26.418a182.544,182.544,0,0,0,26.166,15.867Z" transform="translate(-321.983 -8.405)" fill="#92e3a9"/>
      <path id="elk6whv6te82" d="M408.337,415.8s.616-7.416-8.9-18.694-15.672-17.77-15.672-17.77-6.632,16.623,2.127,27.985a184.52,184.52,0,0,0,21.3,22Z" transform="translate(-318.057 12.476)" fill="#92e3a9"/>
      <path id="eli43fltn14b" d="M370.11,313.79a210.4,210.4,0,0,0,6.772,22.388c7.7,20.261,20.177,32.043,27.537,50.373s0,44.776,7.22,68.507,19.17,35.681,19.282,52.416-6.492,63.162-6.492,63.162" transform="translate(-338.291 -105.415)" fill="none" stroke="#263238" stroke-linecap="round" stroke-linejoin="round" stroke-width="0.5"/>
      <line id="elxwl0yli2zbm" x1="12.537" y1="6.576" transform="translate(24.292 220.745)" fill="none" stroke="#263238" stroke-linecap="round" stroke-linejoin="round" stroke-width="0.5"/>
      <line id="elbupfyikd6ps" y1="9.039" x2="3.218" transform="translate(34.618 208.599)" fill="none" stroke="#263238" stroke-linecap="round" stroke-linejoin="round" stroke-width="0.5"/>
      <path id="elsfgdaso1clj" d="M395.723,346.312s-10.466-5.345-21.212-10.662" transform="translate(-330.377 -66.1)" fill="none" stroke="#263238" stroke-linecap="round" stroke-linejoin="round" stroke-width="0.5"/>
      <path id="elp539ty96t1h" d="M379.54,352.565a149.318,149.318,0,0,1,12.117-27.985" transform="translate(-321.331 -86.009)" fill="none" stroke="#263238" stroke-linecap="round" stroke-linejoin="round" stroke-width="0.5"/>
      <path id="elo62dyrj7za" d="M400.011,376.948A116.477,116.477,0,0,0,375.58,353.86" transform="translate(-328.453 -33.349)" fill="none" stroke="#263238" stroke-linecap="round" stroke-linejoin="round" stroke-width="0.5"/>
      <path id="elt9k164wmz7" d="M385.59,385.535a130.468,130.468,0,0,1,6.744-20.793c4.03-8.927,4.617-10.1,4.617-10.1" transform="translate(-310.45 -31.947)" fill="none" stroke="#263238" stroke-linecap="round" stroke-linejoin="round" stroke-width="0.5"/>
      <path id="elfsq84vsu777" d="M391.63,401.354a112.937,112.937,0,0,1,13.489-13.992,71.26,71.26,0,0,0,8.759-7.612" transform="translate(-299.587 13.213)" fill="none" stroke="#263238" stroke-linecap="round" stroke-linejoin="round" stroke-width="0.5"/>
      <path id="elyqew8e0rjn" d="M407.559,400.763a124.191,124.191,0,0,0-11.194-15.447A110.35,110.35,0,0,0,383.1,373.03" transform="translate(-314.928 1.128)" fill="none" stroke="#263238" stroke-linecap="round" stroke-linejoin="round" stroke-width="0.5"/>
      <path id="elptg5n1lwv3" d="M402.932,419.739a31.735,31.735,0,0,0-5.6-15.783c-5.149-6.8-11.194-15.84-13.684-19.366" transform="translate(-313.939 21.918)" fill="none" stroke="#263238" stroke-linecap="round" stroke-linejoin="round" stroke-width="0.5"/>
      <path id="eleq37og8m1uq" d="M377.56,402.62H484.742v80.317a8.4,8.4,0,0,1-8.4,8.4H386.067a8.4,8.4,0,0,1-8.4-8.4V402.62Z" transform="translate(-324.892 54.345)" fill="#263238"/>
      <path id="elh8wuj8yizf" d="M489.258,418.4H382.915a8.4,8.4,0,0,1-8.4-8.4h0a8.4,8.4,0,0,1,8.4-8.4H489.258a8.4,8.4,0,0,1,8.4,8.4h0a8.4,8.4,0,0,1-8.4,8.4Z" transform="translate(-330.359 52.528)" fill="#263238"/>
    </g>
    <g id="mawahib--Clock--inject-91" transform="translate(742.897 82.834)">
      <circle id="el9fb28l0j9vr" cx="95.149" cy="95.149" r="95.149" fill="#263238"/>
      <g id="elccv2jzpdlac" transform="translate(12.621 12.621)">
        <circle id="Ellipse_35" data-name="Ellipse 35" cx="82.527" cy="82.527" r="82.527" fill="#fff"/>
      </g>
      <path id="elxgyab4m1t1l" d="M323.54,169.965,377.075,154.8V79.91" transform="translate(-281.927 -59.649)" fill="none" stroke="#263238" stroke-miterlimit="10" stroke-width="2"/>
    </g>
    <g id="mawahib--Graphics--inject-91" transform="translate(135.149 194.018)">
      <path id="el9tqjgq709ln" d="M332.73,494.56H228.262L91.5,127.51H195.968Z" transform="translate(-91.5 -85.225)" fill="#263238"/>
      <g id="el22r5zzxf7jh" transform="translate(0 42.285)">
        <path id="Path_192" data-name="Path 192" d="M332.73,494.56H228.262L91.5,127.51H195.968Z" transform="translate(-91.5 -127.51)" fill="#fff" opacity="0.2"/>
      </g>
      <path id="elybt5yul4k0g" d="M148.531,185.238H121.665a9.655,9.655,0,0,1-8.4-6.073l-10.382-27.845a4.058,4.058,0,0,1,3.806-6.045h26.865a9.711,9.711,0,0,1,8.4,6.045l10.382,27.845C153.568,182.524,151.889,185.238,148.531,185.238Z" transform="translate(-71.964 -53.29)" fill="#263238"/>
      <path id="elnc38uvystwn" d="M202.88,146.064H98.412L91.5,127.51H195.968Z" transform="translate(-91.5 -85.225)" fill="#263238"/>
      <line id="eldz2bdsezrqq" x2="2.994" y2="8.06" transform="translate(42.621 63.889)" fill="none" stroke="#263238" stroke-linecap="round" stroke-linejoin="round" stroke-width="1"/>
      <line id="elc9vcepydubc" x2="2.994" y2="8.06" transform="translate(46.651 63.889)" fill="none" stroke="#263238" stroke-linecap="round" stroke-linejoin="round" stroke-width="1"/>
      <line id="elx3bmkcaaamc" x2="3.022" y2="8.06" transform="translate(50.653 63.889)" fill="none" stroke="#263238" stroke-linecap="round" stroke-linejoin="round" stroke-width="1"/>
      <line id="elmnmvnrr790q" x2="2.994" y2="8.06" transform="translate(54.682 63.889)" fill="none" stroke="#263238" stroke-linecap="round" stroke-linejoin="round" stroke-width="1"/>
      <line id="elwupn4r8e9en" x2="2.994" y2="8.06" transform="translate(58.712 63.889)" fill="none" stroke="#263238" stroke-linecap="round" stroke-linejoin="round" stroke-width="1"/>
      <line id="elte3n6crtis" x2="2.994" y2="8.06" transform="translate(62.742 63.889)" fill="none" stroke="#263238" stroke-linecap="round" stroke-linejoin="round" stroke-width="1"/>
      <line id="elegvp256ut6l" x2="2.994" y2="8.06" transform="translate(66.772 63.889)" fill="none" stroke="#263238" stroke-linecap="round" stroke-linejoin="round" stroke-width="1"/>
      <line id="ele15cr7rux8" x2="2.994" y2="8.06" transform="translate(70.802 63.889)" fill="none" stroke="#263238" stroke-linecap="round" stroke-linejoin="round" stroke-width="1"/>
      <line id="elqwrrfc32tqa" x2="3.022" y2="8.06" transform="translate(74.804 63.889)" fill="none" stroke="#263238" stroke-linecap="round" stroke-linejoin="round" stroke-width="1"/>
      <line id="elmtkm7qyvmfp" x2="2.994" y2="8.06" transform="translate(78.833 63.889)" fill="none" stroke="#263238" stroke-linecap="round" stroke-linejoin="round" stroke-width="1"/>
      <path id="ely88crwa3mmi" d="M133.287,163.832,108.1,147.8a1.567,1.567,0,0,0-1.679-.168,1.063,1.063,0,0,0-.252,1.427l11.586,24.991a2.407,2.407,0,0,0,1.567,1.287h.392a.923.923,0,0,0,.951-.644l2.8-8.228h10.075a.923.923,0,0,0,1.007-.951A2.211,2.211,0,0,0,133.287,163.832Z" transform="translate(-65.424 -49.346)" fill="#fff"/>
      <path id="eltsn5q9sx228" d="M131.828,164.015l-25.3-16.035,11.586,24.991L121,164.127Z" transform="translate(-64.469 -48.41)" fill="#263238"/>
      <path id="el85518d6bq7f" d="M148.718,164.015l-25.3-16.035,11.614,24.991,2.854-8.843Z" transform="translate(-34.092 -48.41)" fill="#fff"/>
      <path id="eljdap4xjh33" d="M140.471,162.1,138.2,156.95l-2.994,4.338Z" transform="translate(-12.888 -32.277)" fill="#fff"/>
      <path id="el5x559zt6nng" d="M162.311,220.719l-2.267-5.149-2.994,4.338Z" transform="translate(26.391 73.15)" fill="#fff"/>
      <path id="elxi1nrt5mzep" d="M169.021,238.709l-2.295-5.149-2.966,4.31Z" transform="translate(38.459 105.505)" fill="#fff"/>
      <path id="el1plqejswlj6" d="M175.891,257.149,173.6,252l-2.966,4.338Z" transform="translate(50.814 138.669)" fill="#fff"/>
      <path id="el1lbbk6bekra" d="M137.4,199.949l-2.295-5.149-2.966,4.31Z" transform="translate(-18.41 35.795)" fill="#fff"/>
      <path id="elul3d9u2hzv7" d="M145.141,220.719l-2.295-5.149-2.966,4.338Z" transform="translate(-4.489 73.15)" fill="#fff"/>
      <path id="elmi25z6e3pdc" d="M151.841,238.709l-2.267-5.149-2.994,4.31Z" transform="translate(7.561 105.505)" fill="#fff"/>
      <path id="el0jj2fxz9zt1b" d="M158.721,257.149,156.426,252l-2.966,4.338Z" transform="translate(19.934 138.669)" fill="#fff"/>
      <path id="eljj44e7gmeah" d="M115.75,194.752l4.394,2.826,12.089-25.214-4.394-2.854Z" transform="translate(-47.887 -9.688)" fill="#fff"/>
      <path id="ellbbf8ek1k3" d="M128.283,177.182c-6.408-4.981-6.856-5.989-5.289-11.642-3.3,4.534-4.282,4.617-11.194.923,6.409,5.009,6.856,6.017,5.289,11.67C120.279,173.6,121.259,173.516,128.283,177.182Z" transform="translate(-54.991 -16.828)" fill="#fff"/>
      <path id="eltb0pb8n6o1" d="M131.813,175.292c-3.946-3.078-4.226-3.694-3.274-7.192-2.043,2.8-2.631,2.8-6.968.588,3.946,3.078,4.226,3.694,3.246,7.192C126.859,173.081,127.475,173.025,131.813,175.292Z" transform="translate(-37.419 -12.224)" fill="#fff"/>
      <path id="el80p8p9lo5ir" d="M129.494,178.2c-2.8-2.211-3.022-2.631-2.323-5.121-1.455,1.987-1.9,2.015-4.981.392,2.8,2.211,2.994,2.659,2.323,5.149C125.968,176.606,126.388,176.578,129.494,178.2Z" transform="translate(-36.304 -3.268)" fill="#fff"/>
      <path id="elyb2aqya5t1" d="M147.46,231.1l2.715,1.931,12.089-25.242-2.715-1.931Z" transform="translate(9.143 55.686)" fill="#fff"/>
      <path id="elaf78jjdnlxi" d="M158.174,185.282l-22.3-14.132L146.085,193.2l2.547-7.808Z" transform="translate(-11.701 -6.739)" fill="#fff"/>
      <path id="eli0v0wkoo93r" d="M150.286,190.464c-8.172,0-16.623-4.841-18.834-10.774S134.111,169,142.339,169s16.623,4.841,18.834,10.746S158.486,190.464,150.286,190.464Zm-7.528-20.233c-7.472,0-11.95,4.254-10.019,9.459s9.6,9.459,17.071,9.459,11.977-4.226,10.019-9.459S150.23,170.231,142.758,170.231Z" transform="translate(-20.604 -10.606)" fill="#fff"/>
      <path id="el3fmsoklw2mh" d="M137.753,180.615a5.849,5.849,0,0,1-5.009-3.666,2.463,2.463,0,0,1,2.295-3.666,5.849,5.849,0,0,1,5.009,3.666,2.463,2.463,0,0,1-2.295,3.666Zm-2.239-6.017a1.567,1.567,0,0,0-1.483,2.351,3.75,3.75,0,0,0,3.246,2.379c1.287,0,1.959-1.063,1.483-2.379A3.806,3.806,0,0,0,135.514,174.6Z" transform="translate(-17.894 -2.911)" fill="#fff"/>
      <path id="elle8nhday4p" d="M135.036,182.162l-.9-1.231a3.526,3.526,0,0,0,2.6-2.8,5.094,5.094,0,0,0-.951-3.134l1.063-.448a6.773,6.773,0,0,1,1.259,4.142A4.31,4.31,0,0,1,135.036,182.162Z" transform="translate(-14.813 -0.624)" fill="#fff"/>
      <path id="elzm1yww9h0yk" d="M141.6,197.554,126.012,186.22l-3.3,5.261L138.3,202.815Z" transform="translate(-35.369 20.364)" fill="#fff"/>
      <path id="el1qne9ccswms" d="M121.511,207.912l2.547,1.847,5.6-9.067a1.875,1.875,0,0,1-.5-2.155c.42-.7,1.567-.7,2.519,0a2.1,2.1,0,0,1,.951,2.519,1.6,1.6,0,0,1-2.043.308l-5.6,9.067,2.379,1.735,13.992-3.946.868-8.4L126.856,188.63,120,192.464Z" transform="translate(-40.243 24.699)" fill="#fff"/>
      <line id="elypa1415ghf" x2="89.915" transform="translate(66.548 196.985)" fill="none" stroke="#263238" stroke-linecap="round" stroke-linejoin="round" stroke-width="1"/>
      <path id="el2ypwkyo6x4w" d="M145.342,186.22l-3.3,5.261,15.588,11.334,3.3-5.261Z" transform="translate(-0.605 20.364)" fill="#fff"/>
      <path id="eleur4rtjq3u5" d="M139.28,192.482l1.651,15.42,2.547,1.847,5.6-9.067a1.875,1.875,0,0,1-.5-2.155c.42-.7,1.567-.7,2.519,0a2.1,2.1,0,0,1,.951,2.519,1.6,1.6,0,0,1-2.043.308l-5.6,9.067,2.379,1.735,13.992-3.946.868-8.4L146.276,188.62Z" transform="translate(-5.568 24.681)" fill="#fff"/>
      <path id="el15hrjk0x348h" d="M143.893,201.162c.168-1.091.308-2.267.42-3.582a9.347,9.347,0,0,0-2.211-7.024,14.217,14.217,0,0,0-6.828-4.226c-.42,0-.756,0-.7.5a1.147,1.147,0,0,0,.84.9,12.426,12.426,0,0,1,5.6,3.442,7.78,7.78,0,0,1,1.763,5.793,25.4,25.4,0,0,1-.42,3.526c-.756,5.6-1.2,8.955,8.088,14.524a.9.9,0,0,0,.5.168.5.5,0,0,0,.476-.28.979.979,0,0,0-.532-1.035C142.857,209.026,143.165,206.731,143.893,201.162Z" transform="translate(-14.043 20.562)" fill="#fff"/>
      <path id="elchqx1xoix7o" d="M123.68,205.072l.56,1.455a57.785,57.785,0,0,0,2.8,6.576l2.6-.644a43.186,43.186,0,0,1-1.931-4.478H138.9l9.291,24.962h-4.17l1.091,2.8H156.31l-1.091-2.8h-4.142L141.73,207.87h10.83l1.931,5.261h2.938l-2.491-6.716-.56-1.455Z" transform="translate(-33.625 54.068)" fill="#fff"/>
      <g id="eli4gao5rzftn" transform="translate(115.756 316.705)">
        <path id="Path_193" data-name="Path 193" d="M165.6,237.184c2.407,6.436-2.8,11.642-11.754,11.642s-18.022-5.205-20.4-11.642,2.8-11.614,11.754-11.614S163.217,230.775,165.6,237.184Z" transform="translate(-132.864 -225.57)" fill="#fff" opacity="0.44"/>
      </g>
      <path id="elkw28yyfwx8" d="M165.6,237.184c2.407,6.436-2.8,11.642-11.754,11.642s-18.022-5.205-20.4-11.642,2.8-11.614,11.754-11.614S163.217,230.775,165.6,237.184Z" transform="translate(-17.108 91.135)" fill="none" stroke="#fff" stroke-miterlimit="10" stroke-width="1"/>
      <path id="ele8766n9yaz" d="M156.39,242.681l10.55-19.17a1.959,1.959,0,0,1,2.8-.392h0a3.162,3.162,0,0,1,1.931,3.162l-5.6,21.185Z" transform="translate(25.204 85.973)" fill="#fff"/>
      <path id="elw3rw8uy0nb" d="M157.271,230.457c4.142-.56,12.257,2.994,12.481,8.4a3.33,3.33,0,0,1-1.875,2.8,23.758,23.758,0,0,1-11.81,2.015,3.3,3.3,0,0,0,1.147-3.526,43.986,43.986,0,0,0-1.931-4.534c-.756-2.155-.364-5.037,1.987-5.205" transform="translate(22.588 99.82)" fill="#fff"/>
      <path id="elusljjhkx72" d="M152.416,248.813a14.915,14.915,0,0,0-3.806-5.233l-3.19,5.065a16.791,16.791,0,0,1,4.394,5.933,45.363,45.363,0,0,0,3.19,5.849l3.106-4.981a43.991,43.991,0,0,1-3.694-6.632Z" transform="translate(5.474 123.525)" fill="#fff"/>
      <path id="el7uxks0crjtf" d="M151.124,250.9a15.476,15.476,0,0,0-3.834-5.233l-3.19,5.093a17.043,17.043,0,0,1,4.422,5.933,44.444,44.444,0,0,0,3.162,5.849l3.134-4.981a40.019,40.019,0,0,1-3.694-6.66Z" transform="translate(3.1 127.284)" fill="#fff"/>
      <path id="elzm5r6k7k38" d="M151.152,251.193a44.442,44.442,0,0,0,3.162,5.849l4.59-7.332-10.27-7.5-1.9,3.022a17.49,17.49,0,0,1,4.422,5.961Z" transform="translate(7.83 121.062)" fill="#fff"/>
      <path id="elfde98uouzl" d="M149.534,253a14.916,14.916,0,0,0-3.806-5.233l-2.8,4.254.476,9.655a1.259,1.259,0,0,0,1.483,1.091l8.172-3.218A43.323,43.323,0,0,1,149.534,253Zm-3.61,6.6-.252-5.149,4.673,3.414Z" transform="translate(0.996 131.061)" fill="#fff"/>
      <path id="elu7mzor3r1kn" d="M161.948,256.055l-3.5,5.6,18.078,13.181,3.5-5.6,1.091.812,8.4-13.181L169.224,242.09l-8.256,13.181Zm13.377,15.588-13.685-9.991,2.491-4,13.713,9.991Z" transform="translate(28.909 120.846)" fill="#fff"/>
      <path id="elhtxha4r3fpo" d="M101.246,129.27l.672,1.763L99.4,134.111l4.813,3.078.644,1.791L97.3,134.111Z" transform="translate(-81.069 -82.06)" fill="#fff"/>
      <path id="ele68cs3uhcxd" d="M98.986,129.27l.672,1.763-2.519,3.078,4.813,3.078.672,1.791-7.584-4.869Z" transform="translate(-85.133 -82.06)" fill="#fff"/>
      <path id="elutc13gml9x9" d="M431.305,324.582H215.234L149.19,140.33H365.261Z" transform="translate(12.255 -62.168)" fill="#263238"/>
      <path id="elcdaz3gjq8l" d="M406.114,308.061H213.494L154.67,143.93H347.29Z" transform="translate(22.11 -55.694)" fill="#ffc100"/>
      <path id="elcpf16ri07o4" d="M331.678,181.141,299.831,157.69l-25.158,65.317L209.44,204.593l-33.75,78.721H368.31Z" transform="translate(59.915 -30.947)" fill="#fff"/>
      <path id="elg9cjpw2h94f" d="M214.016,171.022c-4.478-12.481-18.218-22.612-30.783-22.612s-18.974,10.131-14.5,22.612,18.218,22.612,30.783,22.612S218.521,183.643,214.016,171.022Z" transform="translate(44.844 -47.637)" fill="#fff"/>
      <path id="elgbi4n6jqws8" d="M439.305,313.252H223.234L157.19,129H373.261Z" transform="translate(26.643 -82.545)" fill="#263238"/>
      <path id="el4oc8apb1yd6" d="M414.114,296.749H221.494L162.67,132.59H355.29Z" transform="translate(36.498 -76.089)" fill="#ffc100"/>
      <path id="elg5lfkcsnyi" d="M339.678,169.811,307.831,146.36l-25.158,65.317L217.44,193.263l-33.75,78.721H376.31Z" transform="translate(74.302 -51.323)" fill="#fff"/>
      <path id="elc9sol9iyzwu" d="M222.016,159.692c-4.478-12.481-18.218-22.612-30.783-22.612s-18.974,10.131-14.5,22.612S194.954,182.3,207.519,182.3,226.521,172.173,222.016,159.692Z" transform="translate(59.232 -68.013)" fill="#fff"/>
      <path id="elb8j2snjmc7r" d="M286.55,118.742l5.177,12.593h-1.483a24.038,24.038,0,0,0-2.938-4.757,13.738,13.738,0,0,0-4.505-3.386,13.993,13.993,0,0,0-5.765-1.091h-7.584l15.028,41.054a15.559,15.559,0,0,0,3.33,6.185,8.143,8.143,0,0,0,5.233,1.679h1.875l.532,1.455H272.67l-.532-1.455h1.9c2.267,0,3.61-.7,4.058-2.071a12.146,12.146,0,0,0-1.231-5.793L261.84,122.1H255.4a16.006,16.006,0,0,0-5.149.56,4.338,4.338,0,0,0-2.463,2.8,10.047,10.047,0,0,0,.364,5.765h-1.511L242.67,118.63Z" transform="translate(180.377 -101.195)"/>
      <line id="el6e2r5g9yrrg" x2="16.427" transform="translate(499.642 42.873)" fill="none" stroke="#263238" stroke-miterlimit="10" stroke-width="0.5"/>
      <path id="el508ux6e4wu" d="M348.577,197.127H265.853L235.21,113.34h82.723Z" transform="translate(166.96 -110.709)" fill="none" stroke="#263238" stroke-miterlimit="10" stroke-width="0.5"/>
      <path id="el1zgpgmjk2qg" d="M247.4,132.795h-6.213l-2.267-6.185h6.213Z" transform="translate(173.633 -86.844)" fill="#fff" stroke="#263238" stroke-miterlimit="10" stroke-width="0.5"/>
      <path id="elmogora9e6oa" d="M277,132.795h-6.213l-2.267-6.185h6.213Z" transform="translate(226.868 -86.844)" fill="#fff" stroke="#263238" stroke-miterlimit="10" stroke-width="0.5"/>
      <path id="eln2rpyvr5ink" d="M242.181,118.585H236L233.73,112.4h6.185Z" transform="translate(164.299 -112.4)" fill="#fff" stroke="#263238" stroke-miterlimit="10" stroke-width="0.5"/>
      <path id="elvo5u6owougg" d="M271.781,118.585H265.6L263.33,112.4h6.185Z" transform="translate(217.534 -112.4)" fill="#fff" stroke="#263238" stroke-miterlimit="10" stroke-width="0.5"/>
      <path id="el7xxan4lixes" d="M256.991,118.585h-6.185L248.54,112.4h6.185Z" transform="translate(190.934 -112.4)" fill="#fff" stroke="#263238" stroke-miterlimit="10" stroke-width="0.5"/>
      <path id="el9nrj270vmjr" d="M253.029,148.185h-6.213L244.55,142h6.213Z" transform="translate(183.758 -59.165)" fill="#fff" stroke="#263238" stroke-miterlimit="10" stroke-width="0.5"/>
      <path id="el8ue5gewcmpt" d="M282.629,148.185h-6.213L274.15,142h6.213Z" transform="translate(236.994 -59.165)" fill="#fff" stroke="#263238" stroke-miterlimit="10" stroke-width="0.5"/>
      <line id="el61tu9q8bzin" x2="6.017" y2="16.455" transform="translate(474.651 87.9)" fill="none" stroke="#263238" stroke-miterlimit="10" stroke-width="0.5"/>
      <path id="el5m4n3hby9bo" d="M267.839,148.185h-6.213L259.36,142h6.213Z" transform="translate(210.394 -59.165)" fill="#fff" stroke="#263238" stroke-miterlimit="10" stroke-width="0.5"/>
      <path id="elmcgl7tne4m" d="M270.249,154.793h-6.213l-2.267-6.213h6.213Z" transform="translate(214.728 -47.331)" fill="#263238"/>
      <line id="elu583zp573lh" x2="69.486" transform="translate(427.861 70.718)" fill="none" stroke="#263238" stroke-miterlimit="10" stroke-width="0.5"/>
      <path id="elly9gbcqv3um" d="M281.447,129.827a5.177,5.177,0,0,0-4.45-3.274,2.211,2.211,0,0,0-2.071,3.274,5.149,5.149,0,0,0,4.45,3.246,2.183,2.183,0,0,0,2.071-3.246Z" transform="translate(237.896 -86.954)" fill="#263238"/>
    </g>
    <g id="mawahib--Table--inject-91" transform="translate(259.85 668.725)">
      <g id="el2kb9eld9ezo" transform="translate(11.11 4.981)">
        <path id="Path_194" data-name="Path 194" d="M140.03,291.31,215,355.563,143.556,705.122H148.4l79.477-343.15,72.817,61.063L197.875,704.7l6.436-1.063L312.473,429.471,613.422,703.639H796.555L582.359,283.81Z" transform="translate(-140.03 -283.81)" opacity="0.2"/>
      </g>
      <path id="el0dt4alwkjoxb" d="M150.789,704.151h-4.841L138.7,284.35h19.338Z" transform="translate(-131.312 -277.858)" fill="#263238" stroke="#263238" stroke-linecap="round" stroke-linejoin="round" stroke-width="1"/>
      <path id="eluahok395tzl" d="M299.65,704.151h-4.841l-7.248-419.8H306.9Z" transform="translate(136.411 -277.858)" fill="#263238" stroke="#263238" stroke-linecap="round" stroke-linejoin="round" stroke-width="1"/>
      <rect id="elethfr8pfubj" width="465.556" height="10.886" transform="translate(0)" fill="#fff" stroke="#263238" stroke-linecap="round" stroke-linejoin="round" stroke-width="1"/>
    </g>
    <g id="mawahib--paper-bin--inject-91" transform="translate(93.06 863.08)">
      <path id="elp1bfok2675" d="M103.9,370.533l-8.4,17.854s10.354,11.194,15.056,11.194,6.576-4.7,12.229-6.6,15.028-19.729,15.028-19.729-5.6-9.4-11.194-10.354-13.992-3.75-18.806-4.7S103.9,370.533,103.9,370.533Z" transform="translate(-42.217 -339.498)" fill="#fff" stroke="#263238" stroke-linecap="round" stroke-linejoin="round" stroke-width="1"/>
      <path id="elhv6prlz2fni" d="M98.5,364.387l5.6,9.4v8.4s5.6,2.8,7.528,0,10.354-12.229,10.354-12.229l-3.778-8.4" transform="translate(-36.821 -333.351)" fill="none" stroke="#263238" stroke-linecap="round" stroke-linejoin="round" stroke-width="1"/>
      <line id="eljm3a62hyo2p" x1="10.326" y1="1.875" transform="translate(56.977 47.015)" fill="none" stroke="#263238" stroke-linecap="round" stroke-linejoin="round" stroke-width="1"/>
      <path id="elvhmqp1ndzbe" d="M168.893,426.96l-19,5.6s-1.651,15.224,1.455,18.75,7.892,1.847,13.013,4.841,24.767-1.763,24.767-1.763,3.358-10.438.336-15.28-6.493-13.1-8.9-17.239S168.893,426.96,168.893,426.96Z" transform="translate(54.818 -226.812)" fill="#fff" stroke="#263238" stroke-linecap="round" stroke-linejoin="round" stroke-width="1"/>
      <path id="elmokw7l8tbo" d="M162.623,423l-3.33,10.466-6.353,5.6s1.6,6.1,4.953,5.6,16.035-.308,16.035-.308l3.862-8.4" transform="translate(61.088 -222.852)" fill="none" stroke="#263238" stroke-linecap="round" stroke-linejoin="round" stroke-width="1"/>
      <line id="el9pg88yeumcq" x1="5.429" y1="9.011" transform="translate(208.599 207.228)" fill="none" stroke="#263238" stroke-linecap="round" stroke-linejoin="round" stroke-width="1"/>
      <path id="el8bb32xh0fb6" d="M96.408,361.22s-15.979,10.354-13.153,16.007,4.7,9.4,7.528,11.194,11.194,4.7,13.992,2.8,9.4-6.576,10.326-13.992,3.778-8.4.951-12.229S96.408,361.22,96.408,361.22Z" transform="translate(-64.841 -333.963)" fill="#fff" stroke="#263238" stroke-linecap="round" stroke-linejoin="round" stroke-width="1"/>
      <path id="elt56xdf2xtyl" d="M83,372.972,94.194,380.5l9.4-.951,3.75-10.354a5.6,5.6,0,0,0-5.6-5.6,12.453,12.453,0,0,0-8.4,2.8l1.9,5.6" transform="translate(-64.698 -329.708)" fill="none" stroke="#263238" stroke-linecap="round" stroke-linejoin="round" stroke-width="1"/>
      <path id="elvtjk39h3xm" d="M120.568,356.52s-13.992,13.153-12.229,22.556S128.1,396.007,128.1,396.007l21.632-12.2-6.6-16.791-13.992-7.528Z" transform="translate(-19.403 -342.416)" fill="#fff" stroke="#263238" stroke-linecap="round" stroke-linejoin="round" stroke-width="1"/>
      <path id="elpxzfciam99" d="M108.24,374.238l15.056,5.653,16.931-5.653-6.6-15.028" transform="translate(-19.304 -337.578)" fill="none" stroke="#263238" stroke-linecap="round" stroke-linejoin="round" stroke-width="1"/>
      <path id="el6t4yeog605b" d="M113.222,356.52l-.952,19.757,11.306,3.75" transform="translate(-12.056 -342.416)" fill="none" stroke="#263238" stroke-linecap="round" stroke-linejoin="round" stroke-width="1"/>
      <path id="elp80d3z7jqg" d="M135.688,419.69s-13.992,13.181-12.229,22.584S143.216,459.2,143.216,459.2l21.632-12.23-6.576-16.931-14.132-7.528Z" transform="translate(7.79 -228.805)" fill="#fff" stroke="#263238" stroke-linecap="round" stroke-linejoin="round" stroke-width="1"/>
      <path id="elrdyggb69k2n" d="M123.36,437.436l15.056,5.625,16.931-5.625L148.77,422.38" transform="translate(7.889 -223.967)" fill="none" stroke="#263238" stroke-linecap="round" stroke-linejoin="round" stroke-width="1"/>
      <path id="elkvksdqpnh2e" d="M128.342,419.69l-.952,19.757,11.306,3.778" transform="translate(15.137 -228.805)" fill="none" stroke="#263238" stroke-linecap="round" stroke-linejoin="round" stroke-width="1"/>
      <path id="ellvoxybgtr9" d="M102.088,351.48S88.1,364.633,89.859,374.036s19.757,16.791,19.757,16.791l21.6-12.229-6.576-16.791-13.992-7.528Z" transform="translate(-52.639 -351.48)" fill="#fff" stroke="#263238" stroke-linecap="round" stroke-linejoin="round" stroke-width="1"/>
      <path id="elnrld6bpa1v" d="M89.76,369.2l15.056,5.653,16.9-5.653-6.576-15.028" transform="translate(-52.54 -346.642)" fill="none" stroke="#263238" stroke-linecap="round" stroke-linejoin="round" stroke-width="1"/>
      <path id="elkfrder0gjob" d="M94.742,351.48l-.951,19.757,11.278,3.75" transform="translate(-45.292 -351.48)" fill="none" stroke="#263238" stroke-linecap="round" stroke-linejoin="round" stroke-width="1"/>
      <path id="el2w816if65dd" d="M204.8,553.258H93.195L76.46,368.25H221.534Z" transform="translate(-76.46 -321.319)" fill="#263238" stroke="#263238" stroke-linecap="round" stroke-linejoin="round" stroke-width="1"/>
      <path id="ely9ba27spxcc" d="M104.5,423.39S88.489,433.745,91.315,439.37s4.7,9.4,7.528,11.194,11.194,4.7,13.992,2.8,9.4-6.577,10.354-13.993,3.75-8.4.923-12.229S104.5,423.39,104.5,423.39Z" transform="translate(-50.345 -222.151)" fill="#fff" stroke="#263238" stroke-linecap="round" stroke-linejoin="round" stroke-width="1"/>
      <path id="elg3g2pkh4aj" d="M91.1,435.115l11.194,7.528,9.4-.923,3.75-10.354a5.6,5.6,0,0,0-5.6-5.6,12.341,12.341,0,0,0-8.4,2.8l1.875,5.6" transform="translate(-50.13 -217.897)" fill="none" stroke="#263238" stroke-linecap="round" stroke-linejoin="round" stroke-width="1"/>
    </g>
    <g id="mawahib--Character--inject-91" transform="translate(323.459 279.464)">
      <path id="el7echva4e0rg" d="M209.548,239.729a6.269,6.269,0,1,1-6.185-5.289A5.793,5.793,0,0,1,209.548,239.729Z" transform="translate(-89.913 21.613)" fill="gray" stroke="#263238" stroke-linecap="round" stroke-linejoin="round" stroke-width="1"/>
      <path id="el0uk1il5f0e6k" d="M211.678,245.489a6.269,6.269,0,1,1-6.185-5.289A5.793,5.793,0,0,1,211.678,245.489Z" transform="translate(-86.082 31.972)" fill="gray" stroke="#263238" stroke-linecap="round" stroke-linejoin="round" stroke-width="1"/>
      <path id="ellrb2ppwero" d="M213.8,251.249a6.269,6.269,0,1,1-6.185-5.289A5.793,5.793,0,0,1,213.8,251.249Z" transform="translate(-82.269 42.332)" fill="gray" stroke="#263238" stroke-linecap="round" stroke-linejoin="round" stroke-width="1"/>
      <path id="el5ph032p62x9" d="M215.928,257.009a6.269,6.269,0,1,1-6.213-5.289A5.821,5.821,0,0,1,215.928,257.009Z" transform="translate(-78.438 52.691)" fill="gray" stroke="#263238" stroke-linecap="round" stroke-linejoin="round" stroke-width="1"/>
      <path id="elwrlyxvntfkq" d="M209.29,326.82H166.921l-6.381-70.27h55.13Z" transform="translate(-155.643 61.405)" fill="#263238" stroke="#263238" stroke-linecap="round" stroke-linejoin="round" stroke-width="1"/>
      <path id="elljcrfdeha8f" d="M210.784,264.81,162.09,289.6l2.043,22.36H186.8l22-25.27Z" transform="translate(-152.855 76.261)" stroke="#263238" stroke-linecap="round" stroke-linejoin="round" stroke-width="1"/>
      <rect id="el6oll5z9yd58" width="64.925" height="15.28" transform="translate(0 309.56)" stroke="#263238" stroke-linecap="round" stroke-linejoin="round" stroke-width="1"/>
      <path id="el5z5zu4ttfuc" d="M278.346,294.437H202.087a9.683,9.683,0,1,1,0-19.338h76.259a9.683,9.683,0,1,1,0,19.337Z" transform="translate(-99.271 94.74)" fill="#263238" stroke="#263238" stroke-linecap="round" stroke-linejoin="round" stroke-width="1"/>
      <path id="elgbkxz1enonq" d="M482.123,379.976H247.358l-56-152.406H426.125Z" transform="translate(-100.213 9.285)" fill="#263238" stroke="#263238" stroke-linecap="round" stroke-linejoin="round" stroke-width="1"/>
      <path id="elcz5qgn2fq8e" d="M449.5,360H249.018l-47.8-130.13H401.676Z" transform="translate(-82.48 13.422)" fill="gray" stroke="#263238" stroke-linecap="round" stroke-linejoin="round" stroke-width="1"/>
      <path id="elv6leiqh2o0n" d="M481.747,316.433a159.107,159.107,0,0,1-18.414,22.388,291.744,291.744,0,0,0-54.822,66.772C387.466,441.274,372.8,477.738,358.866,509.3s-39.179,89.831-51.8,107.574a334.81,334.81,0,0,1-21.157,27.229s-20.849.476-45.531-1.707-34.9-6.632-35.2-.2,16.791,24.095,28.936,27.173,27.985,7.78,31.679,11.446,8.4,7.864,14.608,5.177,24.711-28.572,45.391-46.4,45.363-35.485,67.7-77.042,23.507-65.317,39.179-80.932,32.183-40.1,52.164-53,79.617-36.8,98.675-61.567,9.123-55.074-9.207-65.9S496.131,286.406,481.747,316.433Z" transform="translate(-75.379 127.258)" fill="#263238" stroke="#263238" stroke-linecap="round" stroke-linejoin="round" stroke-width="1"/>
      <path id="elkfuwu6pmu8g" d="M321.824,399.48A218.608,218.608,0,0,1,307.076,425.7c-12.761,17.714-21.157,27.229-21.157,27.229s-20.849.476-45.531-1.707-34.9-6.632-35.205-.2,16.791,24.095,28.936,27.173,27.985,7.78,31.679,11.446,8.4,7.864,14.608,5.177,24.711-28.572,45.391-46.4c9.627-8.4,20.121-16.595,30.783-27.229a67.163,67.163,0,0,1-34.757-21.716Z" transform="translate(-75.361 318.463)" fill="#fff" stroke="#263238" stroke-linecap="round" stroke-linejoin="round" stroke-width="1"/>
      <path id="eld8gh2e3zmfi" d="M280.37,463.917a38.9,38.9,0,0,0,8.815-8.116c-16.791-3.33-25.354-11.754-33.022-13.992a81.743,81.743,0,0,1-19.9-8.9l8.4-12.341-4.254-.364c-24.683-2.183-34.9-6.632-35.2-.2s16.791,24.095,28.936,27.173,27.985,7.78,31.679,11.446S274.3,466.6,280.37,463.917Z" transform="translate(-75.325 349.37)" fill="#ffc100" stroke="#263238" stroke-linecap="round" stroke-linejoin="round" stroke-width="1"/>
      <path id="el6z4tw084x7e" d="M242.43,329.928a193.6,193.6,0,0,0,14.356,40.606c9.907,19.813,31.707,40.606,47.574,52.5s66.856,57.453,92.126,93.61c3.162,4.533-8.927,19.813-23.787,33.19s-21.3,18.33-13.377,20.793,26.753,1.483,45.587-14.356,31.2-26.25,37.136-39.179c2.966-6.437-13.377-14.384-23.283-22.78s-46.567-63.889-57.957-89.551-40.1-62.406-61.4-75.279" transform="translate(-8.365 192.569)" fill="#263238" stroke="#263238" stroke-linecap="round" stroke-linejoin="round" stroke-width="1"/>
      <path id="el9r7n0dfazya" d="M382.938,459.631c2.966-6.437-13.377-14.384-23.283-22.78-8.4-7.08-35.569-47.434-50.793-75.391L275.28,391.236c20.961,19.393,46.567,45.447,62.238,67.891,3.162,4.534-8.927,19.813-23.787,33.19s-21.3,18.33-13.377,20.793,26.754,1.483,45.587-14.356S377.005,472.5,382.938,459.631Z" transform="translate(50.716 250.084)" fill="#fff" stroke="#263238" stroke-linecap="round" stroke-linejoin="round" stroke-width="1"/>
      <path id="el0uu4yr30eua9" d="M358.92,391.84c-2.659,3.974-6.129,9.375-10.13,16.119-9.4,15.84-35.149,36.157-38.619,32.686a34.122,34.122,0,0,1-5.205-7.836c-1.679,1.623-3.414,3.274-5.205,4.869-14.86,13.377-21.3,18.33-13.377,20.793s26.753,1.483,45.587-14.356,31.2-26.25,37.136-39.179C370.9,401.075,365.581,396.625,358.92,391.84Z" transform="translate(64.547 304.722)" fill="#ffc100" stroke="#263238" stroke-linecap="round" stroke-linejoin="round" stroke-width="1"/>
      <rect id="elv3ohsivr02" width="168.385" height="7.92" transform="translate(389.577 741.898)" fill="#fff" stroke="#263238" stroke-linecap="round" stroke-linejoin="round" stroke-width="1"/>
      <path id="elbpr2e5nmikp" d="M322.335,332.12l-29.328,281.7a2.267,2.267,0,0,0,2.267,2.491h0a2.267,2.267,0,0,0,2.239-1.931l43.8-282.255Z" transform="translate(82.578 197.317)" fill="#fff" stroke="#263238" stroke-linecap="round" stroke-linejoin="round" stroke-width="1"/>
      <path id="elal3q0uph9ch" d="M363.706,332.12l29.468,281.7a2.239,2.239,0,0,1-2.239,2.491h0a2.239,2.239,0,0,1-2.239-1.931L344.9,332.12Z" transform="translate(175.926 197.317)" fill="#fff" stroke="#263238" stroke-linecap="round" stroke-linejoin="round" stroke-width="1"/>
      <path id="elos9vslnw0zl" d="M344.65,332.12l1.371,281.92a2.3,2.3,0,0,1-2.267,2.267h0a2.239,2.239,0,0,1-2.239-2.155L325.76,332.12Z" transform="translate(141.503 197.317)" fill="#fff" stroke="#263238" stroke-linecap="round" stroke-linejoin="round" stroke-width="1"/>
      <rect id="elhb2pv7xn66l" width="183.749" height="45.559" rx="4.97" transform="translate(379.167 486.844)"/>
      <g id="elx3yy5utm3wh" transform="translate(379.167 486.844)" clip-path="url(#clip-path)">
        <g id="elw69a5drau5a" transform="translate(3.106)">
          <path id="Path_195" data-name="Path 195" d="M462.208,316.9H309.746l-4.534,9.515s140.708,2.463,140.708,10.578,2.435,18.722-25.186,18.722c-22.388,0-97.527,1.063-125.344,1.455a13.994,13.994,0,0,0,4.03,3.442l8.172,1.847H462.208A13.992,13.992,0,0,0,476.2,348.467V330.724A13.992,13.992,0,0,0,462.208,316.9Z" transform="translate(-295.39 -316.9)" opacity="0.2"/>
        </g>
      </g>
      <rect id="ellyqcr0zr1r" width="183.749" height="45.559" rx="4.97" transform="translate(379.167 486.844)" fill="none" stroke="#263238" stroke-linecap="round" stroke-linejoin="round" stroke-width="1"/>
      <path id="eld93p83ld8wm" d="M246.165,422.561c-3.47-11.39-17.826-34.169,51.016-81.716,36.38-25.186,115.41-44.58,115.41-44.58l7.416-8.4s21.3,22.388,62.91,20.821,67.36-19.813,72.313-18.33,5.429,14.356,3.47,38.619-4.478,36.66-23.787,42.593-61.9,7.92-92.6,7.444a441.825,441.825,0,0,1-45.587-2.491s-65.848,41.614-106.958,44.58" transform="translate(-8.153 117.734)" fill="#263238" stroke="#263238" stroke-linecap="round" stroke-linejoin="round" stroke-width="1"/>
      <path id="el464x8f4a2yw" d="M402.262,239.61c-2.994.923-93.609,18.806-101.529,17.323s-28.713-19.31-36.156-18.834-22.388,2.994-23.759,6.94,3.47,17.351,3.47,17.351-4.953,7.416-2.491,10.886,16.791-4.953,16.791-4.953,16.343,11.894,23.759,9.4S297.71,272.3,297.71,272.3s116.389,6.912,117.872,7.416,15.839,3.47,17.323-17.323S419.613,234.153,402.262,239.61Z" transform="translate(-11.705 27.833)" fill="#fff" stroke="#263238" stroke-linecap="round" stroke-linejoin="round" stroke-width="1"/>
      <line id="el49i392w5gcr" y1="16.847" x2="20.289" transform="translate(232.582 273.375)" fill="none" stroke="#263238" stroke-linecap="round" stroke-linejoin="round" stroke-width="1"/>
      <path id="eludnpsxxbbgp" d="M244.55,265.939l10.886-34.169,4.478.979-5.457,24.767Z" transform="translate(-4.552 16.839)" fill="#263238"/>
      <path id="elqxiwvltuo3" d="M404.933,251.42S284.6,284.582,265.288,282.2s-25.186-10.914-29.72-10.914-16.791,5.961-22.388,5.457-11.866-1.987-11.866,1.483,4.953,8.927,7.92,8.927,14.86-.5,14.86-.5-23.283,6.94-24.291,11.39a7.92,7.92,0,0,0,6.464,9.4,13.993,13.993,0,0,1,6.437,2.995,34.477,34.477,0,0,0,4.953,10.886c2.966,3.47,11.866,4.953,21.772,2.966s27.257-10.886,31.2-13.377,124.309-13.377,133.236-15.336,19.813-1.987,23.283-7.948S404.933,251.42,404.933,251.42Z" transform="translate(-85.317 52.179)" fill="#fff"/>
      <g id="elxxn0tmki5z" transform="translate(114.325 303.599)" clip-path="url(#clip-path-2)">
        <path id="eltxy7shedst" d="M259,290.909c-20.681,0-16.091-20.681-22.976-17.211-6.017,2.994-29.5,5.989-36.156,13.573a8.4,8.4,0,0,0,6.073,4.925,13.992,13.992,0,0,1,6.437,2.994,34.478,34.478,0,0,0,4.953,10.886c2.966,3.47,11.866,4.953,21.772,2.966s27.257-10.886,31.2-13.377,124.309-13.377,133.236-15.336c7.192-1.623,15.7-1.931,20.513-5.121l2.8-2.8L414.066,259.93S279.767,290.909,259,290.909Z" transform="translate(-199.233 -236.115)" fill="#92e3a9"/>
        <g id="elxhwhv04tmx" transform="translate(0.637 23.815)">
          <path id="Path_196" data-name="Path 196" d="M259,290.909c-20.681,0-16.091-20.681-22.976-17.211-6.017,2.994-29.5,5.989-36.156,13.573a8.4,8.4,0,0,0,6.073,4.925,13.992,13.992,0,0,1,6.437,2.994,34.478,34.478,0,0,0,4.953,10.886c2.966,3.47,11.866,4.953,21.772,2.966s27.257-10.886,31.2-13.377,124.309-13.377,133.236-15.336c7.192-1.623,15.7-1.931,20.513-5.121l2.8-2.8L414.066,259.93S279.767,290.909,259,290.909Z" transform="translate(-199.87 -259.93)" fill="#f1f1f1"/>
        </g>
      </g>
      <path id="el6buigx1bgep" d="M404.933,251.42S284.6,284.582,265.288,282.2s-25.186-10.914-29.72-10.914-16.791,5.961-22.388,5.457-11.866-1.987-11.866,1.483,4.953,8.927,7.92,8.927,14.86-.5,14.86-.5-23.283,6.94-24.291,11.39a7.92,7.92,0,0,0,6.464,9.4,13.993,13.993,0,0,1,6.437,2.995,34.477,34.477,0,0,0,4.953,10.886c2.966,3.47,11.866,4.953,21.772,2.966s27.257-10.886,31.2-13.377,124.309-13.377,133.236-15.336,19.813-1.987,23.283-7.948S404.933,251.42,404.933,251.42Z" transform="translate(-85.317 52.179)" fill="none" stroke="#263238" stroke-linecap="round" stroke-linejoin="round" stroke-width="1"/>
      <path id="elp8fys9u182s" d="M334.937,219.1s-10.886,29.692-24.739,49.505-19.813,40.634-10.914,62.91a45.587,45.587,0,0,0,28.237,27.341s-6.94,65.373-4.953,82.723,28.712,37.64,68.843,39.179S466.186,467.885,466.186,454s-28.209-87.649-28.209-103.012,2.463-63.386-10.914-106.343S366.643,187.393,334.937,219.1Z" transform="translate(86.319 -36.843)"/>
      <g id="ely07vyo3qi4g" transform="translate(381.396 165.078)" clip-path="url(#clip-path-3)">
        <g id="elgu6nioovemj" transform="translate(0.009 0.807)">
          <path id="Path_198" data-name="Path 198" d="M427.057,243.823c-7.192-23.2-24.179-37.919-43.265-41.613-9.207,2.043-34.365,7.92-40.634,9.4a64.713,64.713,0,0,0-8.228,6.968s-10.886,29.692-24.739,49.505c-9.319,13.293-15.028,27.033-15.112,41.334,36.548,8.647,92.35,22.724,86.753,24.291-8.032,2.295-42.481-16.091-32.155-4.589s65.484,64.365,49.393,59.72-51.688-42.509-42.481-24.123,34.449,48.246,26.418,48.246-50.541-42.509-35.625-17.239,82.7,65.485,60.867,71.221c-12.593,3.3-39.319,2.435-54.822,5.037a106.347,106.347,0,0,0,37.919,8.088c40.1,1.483,74.776-12.873,74.776-26.754s-28.209-87.649-28.209-103.012S440.378,286.92,427.057,243.823Z" transform="translate(-295.08 -202.21)" opacity="0.2"/>
        </g>
      </g>
      <path id="elbp7n9j6x2og" d="M334.937,219.1s-10.886,29.692-24.739,49.505-19.813,40.634-10.914,62.91a45.587,45.587,0,0,0,28.237,27.341s-6.94,65.373-4.953,82.723,28.712,37.64,68.843,39.179S466.186,467.885,466.186,454s-28.209-87.649-28.209-103.012,2.463-63.386-10.914-106.343S366.643,187.393,334.937,219.1Z" transform="translate(86.319 -36.843)" fill="none" stroke="#263238" stroke-linecap="round" stroke-linejoin="round" stroke-width="1"/>
      <path id="el79oex52rjqr" d="M311.5,251s36.38,58.768,89.552,75.559" transform="translate(115.857 51.423)" fill="none" stroke="#263238" stroke-linecap="round" stroke-linejoin="round" stroke-width="1"/>
      <path id="el6ysxvc6l0s" d="M310,254.5s13.992,46.175,50.373,68.563" transform="translate(113.159 57.718)" fill="none" stroke="#263238" stroke-linecap="round" stroke-linejoin="round" stroke-width="1"/>
      <path id="el1zb3n5b3xqo" d="M312.68,256.441s32.882-14.328,46.371-23.591" transform="translate(117.979 18.781)" fill="none" stroke="#263238" stroke-linecap="round" stroke-linejoin="round" stroke-width="1"/>
      <path id="elm8xra2hwi6" d="M307.86,242.49s11.81,2.519,42.145,0" transform="translate(109.31 36.118)" fill="none" stroke="#263238" stroke-linecap="round" stroke-linejoin="round" stroke-width="1"/>
      <path id="elqd2rq5ntsi" d="M364.283,210.71a106.785,106.785,0,0,0-20.793,17.323c-11.39,11.894-66.38,95.148-66.38,95.148s16.343,34.2,21.3,35.177,91.147-72.761,99.066-81.716,12.873-25.186,10.41-32.211" transform="translate(54.007 -21.038)" fill="#ffc100"/>
      <g id="elllis9u4voj" transform="translate(331.117 189.673)" clip-path="url(#clip-path-4)">
        <g id="elddze0yi5y1" transform="translate(17.631 18.554)">
          <path id="Path_200" data-name="Path 200" d="M386.143,264.663c7.92-8.927,12.873-25.186,10.41-32.211L376.963,217.34l-6.269,6.464s-.42,25.354-22.975,39.039-32.155,13.8-35.6,31.007,8.032,21.828-5.737,24.123-22.976,3.442-22.976,12.649a121.979,121.979,0,0,0,1.036,13.629,6.184,6.184,0,0,0,2.6,2.127C292.029,347.358,378.223,273.562,386.143,264.663Z" transform="translate(-283.41 -217.34)" opacity="0.2"/>
        </g>
      </g>
      <path id="elaf21wuik4cc" d="M364.283,210.71a106.785,106.785,0,0,0-20.793,17.323c-11.39,11.894-66.38,95.148-66.38,95.148s16.343,34.2,21.3,35.177,91.147-72.761,99.066-81.716,12.873-25.186,10.41-32.211" transform="translate(54.007 -21.038)" fill="none" stroke="#263238" stroke-linecap="round" stroke-linejoin="round" stroke-width="1"/>
      <path id="el2lkce1v251j" d="M270.717,264.3s15.364,36.66,18.806,40.634,21.8,1.483,27.733-2.994,4.953-13.349,4.953-13.349-22.78-40.13-25.186-41.977-3.47,2.491-13.992,5.961S268.73,257.387,270.717,264.3Z" transform="translate(41.594 42.741)" fill="#fff" stroke="#263238" stroke-linecap="round" stroke-linejoin="round" stroke-width="1"/>
      <path id="el52aorkeiqjw" d="M279.37,186.8s-1.007,14.356,1.483,18.806,9.4,8.927,9.4,14.86-4.953,13.992-3.47,18.33,9.431,4.953,9.431,4.953,14.832,18.33,19.31,24.767,6.436,3.946,13.377,1.987,21.772-14.86,30.2-24.767-5.6-40.13-23.759-60.419-45.587-19.813-51.52-13.992S279.37,186.8,279.37,186.8Z" transform="translate(57.708 -98.151)" fill="#fff"/>
      <g id="elshx70m0vvy" transform="translate(336.876 69.683)" clip-path="url(#clip-path-5)">
        <path id="elettyto2zr64" d="M294.745,169.65c-2.295,11.194-4.59,30.42,2.295,43.433,10.354,19.589,18.386,29.86,12.649,45.951-1.035,2.8-2.1,5.373-3.134,7.612,7.388-3.162,20.821-14.972,28.657-24.179,8.4-9.907-5.6-40.13-23.759-60.419A52.5,52.5,0,0,0,294.745,169.65Z" transform="translate(-255.281 -164.566)" fill="#92e3a9"/>
        <g id="els85i81pry7b" transform="translate(37.169 5.084)">
          <path id="Path_202" data-name="Path 202" d="M294.745,169.65c-2.295,11.194-4.59,30.42,2.295,43.433,10.354,19.589,18.386,29.86,12.649,45.951-1.035,2.8-2.1,5.373-3.134,7.612,7.388-3.162,20.821-14.972,28.657-24.179,8.4-9.907-5.6-40.13-23.759-60.419A52.5,52.5,0,0,0,294.745,169.65Z" transform="translate(-292.45 -169.65)" fill="#fff" opacity="0.5"/>
        </g>
        <path id="el8obrgj0r73n" d="M283.13,184.913s0-7.444,8.927-2.491" transform="translate(-272.042 -144.653)" fill="none" stroke="#263238" stroke-linecap="round" stroke-linejoin="round" stroke-width="1"/>
        <path id="elcfdovtkeah7" d="M285.4,184.68l1.175,6.856s5.429,1.875,9.431-5.205" transform="translate(-267.96 -137.535)" fill="none" stroke="#263238" stroke-linecap="round" stroke-linejoin="round" stroke-width="1"/>
      </g>
      <path id="el31gqan1k0eu" d="M279.37,186.8s-1.007,14.356,1.483,18.806,9.4,8.927,9.4,14.86-4.953,13.992-3.47,18.33,9.431,4.953,9.431,4.953,14.832,18.33,19.31,24.767,6.436,3.946,13.377,1.987,21.772-14.86,30.2-24.767-5.6-40.13-23.759-60.419-45.587-19.813-51.52-13.992S279.37,186.8,279.37,186.8Z" transform="translate(57.708 -98.151)" fill="none" stroke="#263238" stroke-linecap="round" stroke-linejoin="round" stroke-width="1"/>
      <path id="el9bzebtqebml" d="M274.326,209.78v1.987l-.9,24.263,26.726,3.47,5.961-10.41v11.39a54.794,54.794,0,0,1,24.263,3.47c12.873,4.953,29.216,40.13,28.237,54.486s-13.377,17.323-11.894,39.179,34.645,43.516,59.832,29.664,29.244-31.707,39.627-28.237,26.25,24.767,36.157-5.457,5.457-49.505-17.826-74.272-41.585-22.78-44.58-42.593-9.4-46.567-30.783-61.567-52-15.839-78.358-4.45S274.326,196.907,274.326,209.78Z" transform="translate(47.388 -142.933)" fill="#263238"/>
      <g id="el0clja5o7gco" transform="translate(320.819)" clip-path="url(#clip-path-6)">
        <path id="elzndni01edu" d="M290.778,197.929a1.818,1.818,0,0,1-.532,0c-2.8-.644-3.246-5.6-3.526-17.63,0-3.134-.14-6.353-.336-8.927v-.644c-2.379,2.8-7.416,14.692-11.194,25.186l-2.631-.952c10.131-28.209,13.433-27.789,14.5-27.621,1.931.252,2.127,2.8,2.211,3.75.2,2.631.28,5.9.336,9.039,0,4.981.308,13.153,1.343,14.86a14.748,14.748,0,0,0,3.134-4.841c2.8-5.821,5.6-8.4,8.172-8.4,3.3,0,5.037,4.533,6.269,7.752a20.969,20.969,0,0,0,1.035,2.323c1.231.336,5.6-4.114,7.92-6.521l2.043-2.071a5.149,5.149,0,0,1,3.974-2.015c1.567.252,2.323,1.707,3.134,3.218a12.762,12.762,0,0,0,3.162,4.282c.9.7,1.343.588,1.539.56,2.015-.5,4.45-5.933,7.276-12.2.644-1.483,1.343-3.022,2.1-4.645s2.183-4.338,4.254-4.142c2.6.2,3.806,4.282,5.6,10.466a46.537,46.537,0,0,0,5.6,13.992c.644.783,1.511,1.679,2.323,1.6,2.183-.364,4.59-6.828,6.045-10.69a36.37,36.37,0,0,1,2.407-5.6,2.631,2.631,0,0,1,2.379-1.511c2.071,0,3.5,2.8,5.429,6.6,1.455,2.8,3.442,6.744,5.093,7.388a.622.622,0,0,0,.532,0c1.091-.56,2.015-4.17,2.8-7.052a32.548,32.548,0,0,1,3.414-9.263,5.6,5.6,0,0,1,3.806-2.6c3.666-.588,7.752,2.575,10.466,4.7-.14-1.427-.448-3.386-.7-5.093-1.4-9.319-1.791-13.825.532-15.112,1.091-.588,2.379-.252,3.834,1.035a98.881,98.881,0,0,1,7.164,7.528c5.121,5.765,12.9,14.44,16.035,13.6.868-.224,1.343-1.567,1.567-2.631l2.8.56c-.588,2.8-1.791,4.31-3.582,4.785-4.505,1.175-10.634-5.233-18.862-14.44a94.019,94.019,0,0,0-7.108-7.472,3.416,3.416,0,0,0-.672-.5,48.807,48.807,0,0,0,.924,12.062c1.007,6.576,1.2,8.4,0,9.151a1.707,1.707,0,0,1-1.875,0c-.476-.336-1.091-.784-1.763-1.343-2.211-1.707-5.9-4.534-8.4-4.17a2.8,2.8,0,0,0-1.931,1.371,30.786,30.786,0,0,0-3.022,8.4c-1.091,4.142-2.015,7.724-4.226,8.843a3.3,3.3,0,0,1-2.8,0c-2.631-1.035-4.617-4.953-6.548-8.7a28.239,28.239,0,0,0-2.8-4.953h0a34.851,34.851,0,0,0-2.183,5.233c-2.071,5.6-4.422,11.866-8.256,12.453a5.289,5.289,0,0,1-4.925-2.631,47.574,47.574,0,0,1-6.073-14.86,28.708,28.708,0,0,0-3.19-8.4,14.383,14.383,0,0,0-1.427,2.519c-.756,1.6-1.455,3.162-2.1,4.617-3.5,7.808-5.821,12.957-9.179,13.769a4.534,4.534,0,0,1-3.946-1.091,15.2,15.2,0,0,1-3.862-5.149,7.418,7.418,0,0,0-1.119-1.763s-.448,0-1.539,1.2l-2.015,2.071c-4.645,4.757-7.612,7.612-10.159,7.416a2.8,2.8,0,0,1-2.1-1.287,16.09,16.09,0,0,1-1.315-2.8c-.784-2.071-2.295-5.9-3.806-5.961-.448,0-2.323.42-5.6,6.828C294.22,195.97,292.513,197.929,290.778,197.929Z" transform="translate(-274.995 -119.72)" fill="#575757"/>
        <path id="elczp4di0lae" d="M299,257.227s6.94-25.83,13.992-17.631,11.95,10.718,12.593,3.778,0-17.015,6.94-7.556,23.927,18.89,25.186,4.394,3.162-34.03,11.362-23.927,15.112,17.63,15.755,11.95,6.3-10.075,8.815-3.778,4.422,12.621,6.3-1.875S393,192.33,402.46,196.108s13.992,16.371,13.992,9.459-11.362-15.14-1.259-12.621,11.334,8.843,12.593,5.065-5.6-12.621,3.162-12.621" transform="translate(-227.443 -66.575)" fill="none" stroke="#575757" stroke-miterlimit="10" stroke-width="1"/>
      </g>
      <path id="el6jtl7wpwjm9" d="M274.326,209.78v1.987l-.9,24.263,26.726,3.47,5.961-10.41v11.39a54.794,54.794,0,0,1,24.263,3.47c12.873,4.953,29.216,40.13,28.237,54.486s-13.377,17.323-11.894,39.179,34.645,43.516,59.832,29.664,29.244-31.707,39.627-28.237,26.25,24.767,36.157-5.457,5.457-49.505-17.826-74.272-41.585-22.78-44.58-42.593-9.4-46.567-30.783-61.567-52-15.839-78.358-4.45S274.326,196.907,274.326,209.78Z" transform="translate(47.388 -142.933)" fill="none" stroke="#263238" stroke-linecap="round" stroke-linejoin="round" stroke-width="1"/>
    </g>
    <g id="mawahib--Floor--inject-91" transform="translate(67.23 1095.018)">
      <line id="elrlkkoa2338m" x2="1024.078" fill="none" stroke="#263238" stroke-miterlimit="10" stroke-width="1"/>
    </g>
  </g>
</svg>
