<svg xmlns="http://www.w3.org/2000/svg" viewBox="0 0 412.42 475.24"><defs><style>.cls-1{fill:#3d4051;}.cls-2{fill:#dd645e;}.cls-3{fill:#cc5a58;}.cls-4{fill:#f7f3ec;}.cls-5{fill:#f0e7d6;}</style></defs><title>0111</title><g id="Layer_5" data-name="Layer 5"><rect class="cls-1" x="442.04" y="115.26" width="53.75" height="97.13" transform="translate(93.6 -303.49) rotate(45)"/><rect class="cls-2" x="471.95" y="87.92" width="97.05" height="48.69" transform="translate(72.25 -355.05) rotate(45)"/><rect class="cls-3" x="466.44" y="101.22" width="97.05" height="33.12" transform="translate(74.53 -349.54) rotate(45)"/><rect class="cls-1" x="231.59" y="117" width="53.75" height="85.26" transform="translate(394.53 69.84) rotate(135)"/><rect class="cls-2" x="162.58" y="87.92" width="97.05" height="48.69" transform="translate(280.19 22.48) rotate(135)"/><rect class="cls-3" x="168.09" y="101.22" width="97.05" height="33.12" transform="translate(293.48 27.99) rotate(135)"/><rect class="cls-1" x="174.77" y="56.96" width="62.88" height="67.96"/><rect class="cls-2" x="149.45" width="113.52" height="56.96"/><rect class="cls-3" x="149.45" y="18.22" width="113.52" height="38.74"/></g><g id="Layer_4" data-name="Layer 4"><circle class="cls-2" cx="206.21" cy="272.84" r="202.4"/><path class="cls-4" d="M538.94,292.76V293c-.15,95.51-77.63,172.89-173.14,172.89S192.62,388.36,192.62,292.76A173.18,173.18,0,0,1,365.8,119.58C461.41,119.58,538.94,197.11,538.94,292.76Z" transform="translate(-159.58 -19.9)"/><path class="cls-5" d="M538.94,292.76V293l-173.14-.24V119.58C461.41,119.58,538.94,197.11,538.94,292.76Z" transform="translate(-159.58 -19.9)"/><path class="cls-1" d="M366,452.87h-.16c-3.42,0-6.88-.11-10.28-.33l1.54-24.1c2.89.18,5.8.28,8.74.28h.55Zm31.21-3.08-4.69-23.69q4.38-.87,8.65-2l6.25,23.32C404,448.32,400.58,449.12,397.16,449.79Zm-72.62-2.29c-3.36-.89-6.73-1.91-10-3l7.73-22.88c2.8.94,5.63,1.8,8.51,2.56Zm112.2-11.17L426,414.69q4-2,7.83-4.2L446,431.38C443,433.12,439.86,434.79,436.74,436.33Zm-150.83-4.78c-3-1.74-6-3.6-8.9-5.53l13.42-20.08c2.45,1.64,5,3.21,7.55,4.69Zm185.52-18.47L455.5,394.93q3.33-2.94,6.49-6.09l17.08,17.08C476.59,408.4,474,410.81,471.43,413.08Zm-218.68-6.93c-2.46-2.44-4.87-5-7.18-7.62l18.13-16c1.95,2.22,4,4.39,6.09,6.48ZM499,381.68l-20-13.45c1.63-2.43,3.21-5,4.69-7.54l20.92,12.08C502.77,375.8,500.9,378.8,499,381.68Zm-271.72-8.61c-1.75-3-3.42-6.12-5-9.22l21.64-10.73q2,4,4.2,7.81ZM517.46,344.2l-22.86-7.79c.93-2.75,1.8-5.6,2.57-8.48l23.33,6.23C519.6,337.56,518.58,340.94,517.46,344.2Zm-306.29-9.7c-.9-3.33-1.7-6.76-2.39-10.19l23.69-4.75q.87,4.38,2,8.66Zm314.41-31.3-24.11-1.56c.2-2.94.29-5.91.29-8.9v-.64h24.15v.38C525.92,296.24,525.8,299.76,525.58,303.2ZM205.66,293.07v-.33c0-3.38.11-6.75.32-10.08l24.1,1.47q-.26,4.28-.26,8.61Zm293.4-27.44q-.88-4.36-2-8.64l23.3-6.34c.92,3.36,1.73,6.79,2.42,10.2Zm-264.73-7.77L211,251.67c.89-3.36,1.91-6.73,3-10l22.9,7.69C236,252.14,235.09,255,234.33,257.86Zm253.19-25.75q-2-4-4.22-7.81l20.86-12.18c1.74,3,3.41,6.08,5,9.2Zm-239.69-7.05-20.94-12c1.74-3,3.6-6,5.53-8.91l20.09,13.4Q250.05,221.2,247.83,225.06ZM467.68,202.7q-2.94-3.33-6.11-6.46l17-17.15c2.47,2.44,4.89,5,7.19,7.62Zm-198.3-5.84-17.12-17c2.47-2.47,5-4.89,7.62-7.17l16,18.1C273.64,192.72,271.47,194.76,269.38,196.86Zm171.53-17.47q-3.71-2.46-7.57-4.68l12-21c3.05,1.75,6.05,3.61,8.92,5.52Zm-143.44-4.23-12.15-20.88c3-1.74,6.09-3.41,9.21-5l10.76,21.62Q301.3,172.92,297.47,175.16ZM409.06,163.8q-4.2-1.41-8.52-2.55l6.15-23.36c3.34.88,6.72,1.89,10,3Zm-78.88-2.32-6.31-23.31c3.35-.91,6.78-1.72,10.19-2.41l4.77,23.69C335.91,160,333,160.71,330.18,161.48ZM374.24,157q-4.2-.25-8.45-.26h-.49V132.62h.49c3.33,0,6.65.1,9.93.3Z" transform="translate(-159.58 -19.9)"/></g><g id="Layer_3" data-name="Layer 3"><path class="cls-1" d="M361.11,297h0c-2.71-2.71-2.94-6.88-.51-9.31l60.78-60.78c2.43-2.43,6.6-2.2,9.31.51h0c2.71,2.71,2.94,6.88.51,9.31l-60.78,60.78C368,299.89,363.82,299.66,361.11,297Z" transform="translate(-159.58 -19.9)"/><path class="cls-1" d="M377.64,304.59a16.75,16.75,0,1,1,0-23.69A16.75,16.75,0,0,1,377.64,304.59Z" transform="translate(-159.58 -19.9)"/></g><g id="Layer_2" data-name="Layer 2"><path class="cls-1" d="M361.29,287.22h0c2.71-2.71,7.49-2.32,10.69.87l79.77,79.77c3.19,3.19,3.58,8,.87,10.69h0c-2.71,2.71-7.5,2.32-10.69-.87l-79.77-79.77C359,294.72,358.58,289.93,361.29,287.22Z" transform="translate(-159.58 -19.9)"/></g></svg>