<svg width="413" height="476" viewBox="0 0 413 476" fill="none" xmlns="http://www.w3.org/2000/svg">
<rect width="413" height="476" fill="#E5E5E5"/>
<g id="0111 1" clip-path="url(#clip0)">
<g id="Layer 5">
<path id="Vector" d="M110.033 188.874L148.04 150.867L87.7517 90.5795L49.7447 128.586L110.033 188.874Z" fill="#3D4051"/>
<path id="Vector_2" d="M34.435 143.897L103.06 75.2726L68.6307 40.8436L0.00600901 109.468L34.435 143.897Z" fill="#DD645E"/>
<path id="Vector_3" d="M34.4243 143.899L103.049 75.2742L79.6297 51.8549L11.005 120.48L34.4243 143.899Z" fill="#CC5A58"/>
</g>
<g id="Layer 8">
<path id="Vector_4" d="M237.65 56.96H174.77V124.92H237.65V56.96Z" fill="#3D4051"/>
<path id="Vector_5" d="M262.97 0H149.45V56.96H262.97V0Z" fill="#DD645E"/>
<path id="Vector_6" d="M262.97 18.22H149.45V56.96H262.97V18.22Z" fill="#CC5A58"/>
</g>
<g id="Layer 7">
<path id="Vector_7" d="M362.675 128.588L324.668 90.5806L255.987 159.262L293.994 197.269L362.675 128.588Z" fill="#3D4051"/>
<path id="Vector_8" d="M412.425 109.463L343.8 40.8379L309.371 75.2669L377.996 143.892L412.425 109.463Z" fill="#DD645E"/>
<path id="Vector_9" d="M401.404 120.481L332.78 51.8562L309.36 75.2756L377.985 143.9L401.404 120.481Z" fill="#CC5A58"/>
</g>
<g id="Layer 4">
<path id="Vector_10" d="M206.21 475.24C317.992 475.24 408.61 384.622 408.61 272.84C408.61 161.058 317.992 70.44 206.21 70.44C94.4276 70.44 3.81 161.058 3.81 272.84C3.81 384.622 94.4276 475.24 206.21 475.24Z" fill="#DD645E"/>
<path id="Vector_11" d="M379.36 272.86V273.1C379.21 368.61 301.73 445.99 206.22 445.99C110.71 445.99 33.04 368.46 33.04 272.86C33.04 226.93 51.2857 182.881 83.7632 150.403C116.241 117.926 160.29 99.68 206.22 99.68C301.83 99.68 379.36 177.21 379.36 272.86Z" fill="#F7F3EC"/>
<path id="Vector_12" d="M379.36 272.86V273.1L206.22 272.86V99.68C301.83 99.68 379.36 177.21 379.36 272.86Z" fill="#F0E7D6"/>
<path id="Vector_13" d="M206.42 432.97H206.26C202.84 432.97 199.38 432.86 195.98 432.64L197.52 408.54C200.41 408.72 203.32 408.82 206.26 408.82H206.81L206.42 432.97ZM237.63 429.89L232.94 406.2C235.86 405.62 238.743 404.953 241.59 404.2L247.84 427.52C244.42 428.42 241 429.22 237.58 429.89H237.63ZM165.01 427.6C161.65 426.71 158.28 425.69 155.01 424.6L162.74 401.72C165.54 402.66 168.37 403.52 171.25 404.28L165.01 427.6ZM277.21 416.43L266.42 394.79C269.087 393.457 271.697 392.057 274.25 390.59L286.42 411.48C283.42 413.22 280.28 414.89 277.16 416.43H277.21ZM126.38 411.65C123.38 409.91 120.38 408.05 117.48 406.12L130.9 386.04C133.35 387.68 135.9 389.25 138.45 390.73L126.38 411.65ZM311.9 393.18L295.92 375.03C298.14 373.07 300.303 371.04 302.41 368.94L319.49 386.02C317.01 388.5 314.42 390.91 311.85 393.18H311.9ZM93.22 386.25C90.76 383.81 88.35 381.25 86.04 378.63L104.17 362.63C106.12 364.85 108.17 367.02 110.26 369.11L93.22 386.25ZM339.42 361.78L319.42 348.33C321.05 345.9 322.63 343.33 324.11 340.79L345.03 352.87C343.19 355.9 341.32 358.9 339.42 361.78ZM67.7 353.17C65.95 350.17 64.28 347.05 62.7 343.95L84.34 333.22C85.6733 335.887 87.0733 338.49 88.54 341.03L67.7 353.17ZM357.88 324.3L335.02 316.51C335.95 313.76 336.82 310.91 337.59 308.03L360.92 314.26C360.02 317.66 359 321.04 357.88 324.3ZM51.59 314.6C50.69 311.27 49.89 307.84 49.2 304.41L72.89 299.66C73.47 302.58 74.1367 305.467 74.89 308.32L51.59 314.6ZM366 283.3L341.89 281.74C342.09 278.8 342.18 275.83 342.18 272.84V272.2H366.33V272.58C366.34 276.34 366.22 279.86 366 283.3ZM46.08 273.17V272.84C46.08 269.46 46.19 266.09 46.4 262.76L70.5 264.23C70.3267 267.083 70.24 269.953 70.24 272.84L46.08 273.17ZM339.48 245.73C338.893 242.823 338.227 239.943 337.48 237.09L360.78 230.75C361.7 234.11 362.51 237.54 363.2 240.95L339.48 245.73ZM74.75 237.96L51.42 231.77C52.31 228.41 53.33 225.04 54.42 221.77L77.32 229.46C76.42 232.24 75.51 235.1 74.75 237.96V237.96ZM327.94 212.21C326.607 209.543 325.2 206.94 323.72 204.4L344.58 192.22C346.32 195.22 347.99 198.3 349.58 201.42L327.94 212.21ZM88.25 205.16L67.31 193.16C69.05 190.16 70.91 187.16 72.84 184.25L92.93 197.65C91.29 200.083 89.73 202.587 88.25 205.16V205.16ZM308.1 182.8C306.14 180.58 304.103 178.427 301.99 176.34L318.99 159.19C321.46 161.63 323.88 164.19 326.18 166.81L308.1 182.8ZM109.8 176.96L92.68 159.96C95.15 157.49 97.68 155.07 100.3 152.79L116.3 170.89C114.06 172.82 111.89 174.86 109.8 176.96V176.96ZM281.33 159.49C278.857 157.85 276.333 156.29 273.76 154.81L285.76 133.81C288.81 135.56 291.81 137.42 294.68 139.33L281.33 159.49ZM137.89 155.26L125.74 134.38C128.74 132.64 131.83 130.97 134.95 129.38L145.71 151C143.05 152.347 140.443 153.767 137.89 155.26V155.26ZM249.48 143.9C246.68 142.96 243.84 142.11 240.96 141.35L247.11 117.99C250.45 118.87 253.83 119.88 257.11 120.99L249.48 143.9ZM170.6 141.58L164.29 118.27C167.64 117.36 171.07 116.55 174.48 115.86L179.25 139.55C176.33 140.1 173.42 140.81 170.6 141.58V141.58ZM214.66 137.1C211.86 136.933 209.043 136.847 206.21 136.84H205.72V112.72H206.21C209.54 112.72 212.86 112.82 216.14 113.02L214.66 137.1Z" fill="#3D4051"/>
</g>
<g id="Layer 3">
<path id="Vector_14" d="M218.06 284.69C215.717 287.032 212.733 288.627 209.484 289.273C206.235 289.919 202.867 289.588 199.806 288.32C196.746 287.052 194.13 284.905 192.29 282.151C190.449 279.396 189.467 276.158 189.467 272.845C189.467 269.532 190.449 266.294 192.29 263.539C194.13 260.785 196.746 258.638 199.806 257.37C202.867 256.102 206.235 255.771 209.484 256.417C212.733 257.063 215.717 258.658 218.06 261C219.616 262.555 220.85 264.402 221.692 266.434C222.534 268.467 222.967 270.645 222.967 272.845C222.967 275.045 222.534 277.223 221.692 279.256C220.85 281.288 219.616 283.135 218.06 284.69Z" fill="#3D4051"/>
</g>
<rect id="Rectangle 1" x="299.252" y="267" width="11" height="97" transform="rotate(90 299.252 267)" fill="#3D4051"/>
<rect id="Rectangle 2" x="323" y="267" width="11" height="121" transform="rotate(90 323 267)" fill="#3D4051"/>
<rect id="Rectangle 3" x="258.026" y="345.004" width="11" height="97" transform="rotate(150 258.026 345.004)" fill="#3D4051"/>
</g>
<defs>
<clipPath id="clip0">
<rect width="412.42" height="475.24" fill="white"/>
</clipPath>
</defs>
</svg>
