<svg xmlns="http://www.w3.org/2000/svg" xmlns:xlink="http://www.w3.org/1999/xlink" width="1330" height="797" viewBox="0 0 1330 797">
  <defs>
    <linearGradient id="linear-gradient" x1="-0.025" y1="-0.084" x2="0.994" y2="1.049" gradientUnits="objectBoundingBox">
      <stop offset="0" stop-color="#000046"/>
      <stop offset="1" stop-color="#004e92"/>
    </linearGradient>
    <clipPath id="clip-path">
      <path id="SVGID" d="M1312.985,273.581S1140,228.123,1027.563,230.8,862.638,479.709,819.806,501.124,514.63,355.19,514.63,355.19L439.674,455.616S735.287,706.834,845.043,701.48,998.609,597.162,998.609,597.162,940.55,931.175,892.365,1081.086l522.9-.406s-23.177-305.166,41.071-441.653c0,0,55.675,58.194,71.736,122.441s-95.308,166.8-95.308,166.8l53.852,85.43s234.956-134.339,213.171-259.989c-16.469-94.992-44.762-303.45-125.072-370.374S1312.985,273.581,1312.985,273.581Z" transform="translate(-439.674 -230.686)" fill="none"/>
    </clipPath>
    <linearGradient id="linear-gradient-2" x1="0.62" y1="-0.148" x2="0.435" y2="0.787" gradientUnits="objectBoundingBox">
      <stop offset="0" stop-color="#56a1f0"/>
      <stop offset="1" stop-color="#4f53db"/>
    </linearGradient>
    <linearGradient id="linear-gradient-3" x1="0.457" y1="0.713" x2="0.717" y2="-0.127" gradientUnits="objectBoundingBox">
      <stop offset="0" stop-color="#ffbbbc"/>
      <stop offset="0.403" stop-color="#fba8a9"/>
      <stop offset="1" stop-color="#f48c8c"/>
    </linearGradient>
    <linearGradient id="linear-gradient-4" x1="0.46" y1="0.524" x2="0.714" y2="-0.264" xlink:href="#linear-gradient-3"/>
    <linearGradient id="linear-gradient-5" y1="0.5" x2="1" y2="0.5" gradientUnits="objectBoundingBox">
      <stop offset="0" stop-color="#043e85"/>
      <stop offset="1" stop-color="#020550"/>
    </linearGradient>
    <linearGradient id="linear-gradient-6" x1="0.897" y1="-2.685" x2="1.362" y2="-3.463" xlink:href="#linear-gradient-3"/>
    <linearGradient id="linear-gradient-7" x1="0.173" y1="0.134" x2="0.977" y2="0.953" gradientUnits="objectBoundingBox">
      <stop offset="0" stop-color="#ffbbbc"/>
      <stop offset="0.698" stop-color="#fba8a9"/>
      <stop offset="1" stop-color="#f48c8c"/>
    </linearGradient>
    <filter id="Icon_awesome-play" x="595.396" y="323.878" width="138.787" height="156.052" filterUnits="userSpaceOnUse">
      <feOffset dy="3" input="SourceAlpha"/>
      <feGaussianBlur stdDeviation="3" result="blur"/>
      <feFlood flood-opacity="0.161"/>
      <feComposite operator="in" in2="blur"/>
      <feComposite in="SourceGraphic"/>
    </filter>
    <clipPath id="clip-Web_1920_13">
      <rect width="1330" height="797"/>
    </clipPath>
  </defs>
  <g id="Web_1920_13" data-name="Web 1920 – 13" clip-path="url(#clip-Web_1920_13)">
    <rect width="1330" height="797" fill="#9c0e0e"/>
    <g id="Isolation_Mode" data-name="Isolation Mode" transform="translate(162 264.919)">
      <rect id="Rectangle_1018" data-name="Rectangle 1018" width="1947.56" height="1190.573" transform="translate(-343.56 -421.748)" fill="url(#linear-gradient)"/>
      <path id="Path_1075" data-name="Path 1075" d="M1571.868,443.152a217.973,217.973,0,0,0,55.756-227.7,104.271,104.271,0,1,0-125.35-132.319,217.445,217.445,0,0,0-81.207-15.681c-89.558,0-166.474,53.989-200.076,131.177C1182.831,71.2,1064.731-21.695,924.883-21.695c-170.722,0-309.119,138.4-309.119,309.118,0,7.12.328,14.159.8,21.158C500.21,313.248,407.3,409.005,407.3,526.506c0,120.482,97.669,218.151,218.151,218.151a219.185,219.185,0,0,0,40.884-3.882c5.258,115.809,100.788,208.094,217.9,208.094,120.482,0,218.151-97.67,218.151-218.151a217.452,217.452,0,0,0-65.057-155.362,309.765,309.765,0,0,0,184.3-201.375A218.935,218.935,0,0,0,1327.4,482.655a260.4,260.4,0,0,0-102.076,206.92c0,144.082,116.8,260.884,260.884,260.884S1747.1,833.658,1747.1,689.575C1747.1,575.508,1673.862,478.6,1571.868,443.152Z" transform="translate(-208.582 -145.84)" fill="#fff" opacity="0.1"/>
      <g id="Group_714" data-name="Group 714" transform="translate(90.919 -546.695)">
        <g id="Group_713" data-name="Group 713" transform="translate(131.18)">
          <g id="Group_712" data-name="Group 712" transform="translate(0 561.432)">
            <g id="Group_711" data-name="Group 711" transform="translate(0 0)" clip-path="url(#clip-path)">
              <path id="Path_1076" data-name="Path 1076" d="M1312.985,273.581S1140,228.123,1027.563,230.8,862.638,479.709,819.806,501.124,514.63,355.19,514.63,355.19L439.674,455.616S735.287,706.834,845.043,701.48,998.609,597.162,998.609,597.162,940.55,931.175,892.365,1081.086l522.9-.406s-23.177-305.166,41.071-441.653c0,0,55.675,58.194,71.736,122.441s-95.308,166.8-95.308,166.8l53.852,85.43s234.956-134.339,213.171-259.989c-16.469-94.992-44.762-303.45-125.072-370.374S1312.985,273.581,1312.985,273.581Z" transform="translate(-439.674 -230.686)" fill="url(#linear-gradient-2)"/>
              <g id="Group_710" data-name="Group 710" transform="translate(-39.875 182.994)">
                <path id="Path_1077" data-name="Path 1077" d="M433.032,484.067S622.579,673.594,756.89,729.051c130.425,53.853,181.426-9.737,226.381-61.5,0,0-39.837,141.3-202.014,112.057s-396.8-238.736-396.8-238.736Z" transform="translate(-384.461 -484.067)" opacity="0.2"/>
                <path id="Path_1078" data-name="Path 1078" d="M1816.573,841.951l-1.521-45.86S1700.946,908.209,1738.622,1246l53.267,7.8Z" transform="translate(-758.515 -570.744)" opacity="0.2"/>
                <path id="Path_1079" data-name="Path 1079" d="M1857.612,837.182l-10.227-41.091s50.99,28.655,68.263,67.345,0,83.6,0,83.6Z" transform="translate(-790.847 -570.744)" opacity="0.2"/>
              </g>
            </g>
          </g>
          <path id="Path_1080" data-name="Path 1080" d="M1589.024,79.317s-11.365,93.465-105.416,127.227c0,0,14.469,103.7,96.462,149.516,0,0,89.227-16.881,142.281-86.816,0,0-43.407-91.638-33.762-166.4Z" transform="translate(-729.669 372.795)" fill="url(#linear-gradient-3)"/>
          <path id="Path_1081" data-name="Path 1081" d="M1561.8-251.153s-14.038,52.111-10.819,91.126c0,0-14.83-7.681-25.107,4.667s-4.174,57.943,19.024,64.069c0,0-5.7,129.507,80.518,156.891s154.858-40.407,170.751-107.408c0,0,28.63-13.149,35.389-34.213s-2.932-34.917-10.78-36.3c0,0,21.245-62.937,22.818-89.005S1569.867-291.172,1561.8-251.153Z" transform="translate(-740.072 468.17)" fill="url(#linear-gradient-4)"/>
          <path id="Path_1082" data-name="Path 1082" d="M1558.9-324.231s-28.033,44.747-27.508,85.679c0,0-38.573-12.454-29.921-42.839,0,0-42.966-6.154-37.01-61.151,0,0-37.148-47.071,9.965-93.772,0,0,20.608-103.091,127.024-74.721,0,0,45.441-48.82,119.489-32.215s103.074,94.483,103.074,94.483,68.037,3.569,93.967,59.155c23.976,51.4-12.454,103.781-12.454,103.781s12.73,24.112-4.151,47.28c-14.546,19.964-45.663,20.177-45.663,20.177s-14.608,28.064-54.524,27.524c0,0,14.324-56.527-1.517-84.6,0,0-24.907,19.719-57.079,4.151s-55-39.436-73.684-43.587c0,0-17.643,24.908-46.7,14.529S1577.785-327.77,1558.9-324.231Z" transform="translate(-720.485 546.695)" fill="url(#linear-gradient-5)"/>
        </g>
        <path id="Path_1083" data-name="Path 1083" d="M1775.356,1203.494c-5.952,4.186-12.4,7.528-18.443,8.255-11.571,1.391-40.937,1.882-71.726,18-25.626,13.411-43.736,50.542-27.044,82.731,15.174,29.262,58.4,44.6,95.865,18.982,23.774-16.255,50.843-45.119,76.447-64.665C1837.581,1261.354,1787.757,1194.773,1775.356,1203.494Z" transform="translate(-645.182 60.728)" fill="url(#linear-gradient-6)"/>
        <path id="Path_1084" data-name="Path 1084" d="M450.029,394.619s-11.247-12.076-26.957-42.265c-14.644-28.139-36.173-27.389-43.133-16,0,0-26.759-13.5-42.884-23.967-11.866-7.706-47.335-17.306-68.476,11.313-20.429,27.656-10.442,61.673,23.685,87.43,38.595,29.13,77.5,13.921,111.219,45.854Z" transform="translate(-258.037 310.265)" fill="url(#linear-gradient-7)"/>
        <path id="Path_1085" data-name="Path 1085" d="M1602.98,521.222a10.346,10.346,0,1,1-10.346-10.346A10.346,10.346,0,0,1,1602.98,521.222Z" transform="translate(-625.901 252.912)" fill="#fff"/>
        <path id="Path_1086" data-name="Path 1086" d="M1582.6,594.919a10.347,10.347,0,1,1-10.347-10.347A10.347,10.347,0,0,1,1582.6,594.919Z" transform="translate(-620.238 232.44)" fill="#fff"/>
        <path id="Path_1087" data-name="Path 1087" d="M1562.211,668.617a10.347,10.347,0,1,1-10.346-10.347A10.346,10.346,0,0,1,1562.211,668.617Z" transform="translate(-614.576 211.968)" fill="#fff"/>
      </g>
      <circle id="Ellipse_60" data-name="Ellipse 60" cx="10.962" cy="10.962" r="10.962" transform="translate(261.787 67.5)" fill="#fff" opacity="0.1"/>
      <circle id="Ellipse_61" data-name="Ellipse 61" cx="25.349" cy="25.349" r="25.349" transform="translate(154.909 -27.046)" fill="#fff" opacity="0.1"/>
      <circle id="Ellipse_62" data-name="Ellipse 62" cx="8.268" cy="8.268" r="8.268" transform="translate(286.515 -38.829)" fill="#fff" opacity="0.1"/>
      <path id="Path_1088" data-name="Path 1088" d="M-12.974,714.6a22.37,22.37,0,0,1-22.371,22.37A22.37,22.37,0,0,1-57.716,714.6a22.371,22.371,0,0,1,22.371-22.372A22.371,22.371,0,0,1-12.974,714.6Z" transform="translate(-79.405 -344.161)" fill="#fff" opacity="0.1"/>
      <circle id="Ellipse_63" data-name="Ellipse 63" cx="12.387" cy="12.387" r="12.387" transform="translate(939.774 515.829)" fill="#fff" opacity="0.1"/>
      <path id="Path_1089" data-name="Path 1089" d="M1356.212,1015.625a34.683,34.683,0,1,1-34.683-34.682A34.684,34.684,0,0,1,1356.212,1015.625Z" transform="translate(-452.911 -424.363)" fill="#fff" opacity="0.1"/>
    </g>
    <g transform="matrix(1, 0, 0, 1, 0, 0)" filter="url(#Icon_awesome-play)">
      <path id="Icon_awesome-play-2" data-name="Icon awesome-play" d="M114.427,57.881,19.521,1.773C11.809-2.783,0,1.638,0,12.908V125.1a12.93,12.93,0,0,0,19.521,11.135l94.907-56.081A12.928,12.928,0,0,0,114.427,57.881Z" transform="translate(604.4 329.88)" fill="#fff"/>
    </g>
  </g>
</svg>
